<?xml version="1.0" encoding="UTF-8" standalone="no" ?>
<!DOCTYPE svg PUBLIC "-//W3C//DTD SVG 1.1//EN" "http://www.w3.org/Graphics/SVG/1.1/DTD/svg11.dtd">
<svg xmlns="http://www.w3.org/2000/svg" xmlns:xlink="http://www.w3.org/1999/xlink" version="1.1" width="210" height="210" viewBox="0 0 210 210" xml:space="preserve">
<desc>Created with Fabric.js 4.6.0</desc>
<defs>
</defs>
<g transform="matrix(0 0.35 -0.35 0 105 105.13)" id="okCCCsWUa7IIXsjJKTJ-l"  >
<path style="stroke: none; stroke-width: 1; stroke-dasharray: none; stroke-linecap: butt; stroke-dashoffset: 0; stroke-linejoin: miter; stroke-miterlimit: 4; fill: rgb(255,255,255); fill-rule: nonzero; opacity: 1;" vector-effect="non-scaling-stroke"  transform=" translate(-300, -300.01)" d="M 597.031 292.744 C 596.111 292.785 596.29 293.723 596.189 293.93 C 595.269 293.144 594.564 292.867 595.059 291.502 C 596.804 291.564 599.0749999999999 292.19100000000003 599.999 290.915 C 599.349 290.37 598.649 290.27000000000004 597.903 290.605 C 598.02 290.397 598.304 289.61 598.35 289.18800000000005 C 598.883 289.55500000000006 599.129 289.30300000000005 599.086 288.427 C 598.679 287.747 596.83 289.605 596.488 288.26800000000003 C 596.864 288.88100000000003 596.8820000000001 288.11800000000005 597.0630000000001 288.05600000000004 C 596.7400000000001 287.81700000000006 595.8770000000001 286.77000000000004 594.5780000000001 286.982 C 594.7650000000001 287.107 595.2930000000001 287.834 595.5780000000001 288.245 C 594.541 287.868 589.7210000000001 288.269 589.6800000000001 288.169 C 589.8760000000001 287.882 591.216 286.325 591.5450000000001 285.841 C 593.3370000000001 286.137 595.5530000000001 287.157 596.8370000000001 286.141 C 596.3080000000001 285.449 595.6060000000001 285.21000000000004 594.7310000000001 285.425 C 594.9330000000001 284.935 596.2080000000001 284.149 596.6080000000001 283.728 C 595.9580000000001 283.737 593.1740000000001 281.56100000000004 592.4680000000001 281.278 C 592.6930000000001 281.53200000000004 593.1160000000001 282.62800000000004 593.1820000000001 282.958 C 592.6590000000001 283.37 591.9420000000001 281.557 591.6480000000001 281.783 C 588.9160000000002 282.34200000000004 594.5320000000002 284.03200000000004 594.7790000000001 284.081 C 594.7660000000001 284.10400000000004 594.7640000000001 284.122 594.7560000000001 284.14300000000003 C 593.2780000000001 283.298 586.0640000000001 282.994 585.3360000000001 283.63000000000005 C 585.1040000000002 283.11600000000004 584.5000000000001 282.17400000000004 583.7820000000002 282.30000000000007 C 584.5530000000001 281.91100000000006 584.6730000000001 280.65400000000005 584.6730000000001 280.65400000000005 C 584.6730000000001 280.65400000000005 579.3130000000001 280.60400000000004 579.2780000000001 280.61300000000006 C 579.2780000000001 280.6120000000001 580.5010000000001 280.869 580.5190000000001 282.13200000000006 C 579.9180000000001 282.7920000000001 578.8660000000001 281.15400000000005 578.6470000000002 281.33400000000006 C 578.6770000000001 281.41200000000003 578.0220000000002 281.83200000000005 578.0430000000001 281.8310000000001 C 578.7600000000001 282.35100000000006 580.6150000000001 284.3010000000001 580.6150000000001 284.3010000000001 C 580.6150000000001 284.3010000000001 574.7210000000001 280.9840000000001 572.9510000000001 283.5820000000001 C 571.5470000000001 283.0900000000001 571.1450000000001 283.4830000000001 572.1000000000001 281.1570000000001 C 574.1600000000001 281.0210000000001 576.7410000000001 281.1700000000001 577.7200000000001 279.4750000000001 C 576.8340000000002 279.0760000000001 576.0210000000002 279.15100000000007 575.2810000000002 279.7030000000001 C 575.3170000000001 279.2250000000001 576.1710000000002 277.9600000000001 576.4350000000002 277.3210000000001 C 575.5770000000002 277.52400000000006 571.7100000000002 276.3430000000001 571.4730000000002 276.4220000000001 C 571.4740000000002 276.5080000000001 572.6660000000002 277.0100000000001 572.8930000000001 277.8190000000001 C 572.5500000000002 278.3980000000001 571.2440000000001 276.83400000000006 571.0520000000001 277.12300000000005 C 568.9560000000001 278.17600000000004 574.0780000000001 278.56200000000007 574.8510000000001 278.35300000000007 C 574.8140000000001 278.6700000000001 574.9440000000001 278.80600000000004 575.2390000000001 278.75900000000007 C 574.9580000000002 279.99500000000006 564.6870000000001 278.9820000000001 564.6420000000002 278.9190000000001 C 565.1710000000002 279.0930000000001 569.6380000000001 277.5580000000001 570.3010000000002 277.13400000000007 C 569.2340000000002 276.4890000000001 568.1200000000001 276.4240000000001 566.9630000000002 276.9390000000001 C 567.3220000000002 276.5110000000001 570.6490000000002 273.8550000000001 570.6490000000002 273.8550000000001 C 570.6490000000002 273.8550000000001 566.8350000000003 274.5630000000001 566.8410000000002 274.5630000000001 C 566.8340000000003 274.0620000000001 566.9750000000003 273.5990000000001 567.2640000000002 273.1770000000001 C 566.4150000000002 272.5440000000001 565.4770000000002 272.4150000000001 564.4520000000002 272.7920000000001 C 564.5700000000003 273.2580000000001 564.8500000000003 273.4310000000001 565.2870000000003 273.3150000000001 C 564.0720000000002 273.9190000000001 563.4810000000002 274.6860000000001 562.1310000000003 275.2080000000001 C 563.1400000000003 276.2340000000001 566.3080000000003 275.7320000000001 567.4890000000003 275.4070000000001 C 567.1890000000003 275.7580000000001 567.2500000000002 275.9270000000001 567.6710000000003 275.91300000000007 C 564.0600000000003 279.2950000000001 561.0000000000002 274.4360000000001 560.2470000000003 274.4530000000001 C 557.7800000000003 274.50700000000006 555.9550000000003 275.5680000000001 553.4560000000002 275.9170000000001 C 552.8860000000002 275.99700000000007 549.5140000000002 273.91300000000007 547.9020000000003 275.5520000000001 C 548.1430000000003 275.9560000000001 548.0490000000003 276.3230000000001 547.6220000000003 276.6500000000001 C 547.5620000000004 276.6700000000001 552.9870000000003 275.19200000000006 551.9560000000002 276.8080000000001 C 552.1560000000003 276.78300000000013 549.2580000000003 278.2760000000001 546.9810000000002 279.10500000000013 C 547.0430000000002 278.91900000000015 546.5350000000002 278.45600000000013 547.0510000000003 278.2760000000001 C 547.1120000000003 278.22700000000015 545.1690000000003 278.8250000000001 545.9590000000003 279.0310000000001 C 546.3550000000002 279.1350000000001 546.6050000000002 279.17900000000014 546.7600000000003 279.1830000000001 C 545.4550000000004 279.64100000000013 544.4010000000003 279.8480000000001 544.3390000000003 279.3520000000001 C 544.6210000000003 278.9110000000001 544.9010000000003 278.4680000000001 545.1750000000003 278.0230000000001 C 543.8160000000003 278.07700000000006 538.8780000000003 277.81200000000007 538.1120000000003 278.74500000000006 C 537.8100000000003 277.94900000000007 539.2460000000003 277.45000000000005 537.2410000000003 277.30800000000005 C 538.6610000000003 276.01800000000003 545.0740000000003 277.74600000000004 547.5050000000003 276.07900000000006 C 547.1300000000003 275.04100000000005 544.6550000000003 275.8500000000001 543.9190000000003 275.90600000000006 C 544.3200000000003 275.49600000000004 547.9800000000004 272.6960000000001 547.9800000000004 272.6960000000001 C 547.9800000000004 272.6960000000001 543.7700000000003 273.47300000000007 543.9730000000004 273.4810000000001 C 543.9940000000004 272.9730000000001 544.1620000000004 272.5120000000001 544.4830000000004 272.0980000000001 C 543.6450000000004 271.44600000000014 542.7030000000004 271.29200000000014 541.6580000000004 271.6400000000001 C 541.7810000000004 272.2910000000001 542.2360000000003 272.3990000000001 543.0250000000003 271.9640000000001 C 542.8960000000003 272.2600000000001 539.7150000000004 273.71800000000013 539.0640000000003 273.9140000000001 C 540.0070000000003 275.0790000000001 543.3920000000003 274.6270000000001 544.5940000000003 274.3390000000001 C 544.2540000000002 274.6980000000001 544.3060000000003 274.8700000000001 544.7510000000003 274.8540000000001 C 540.8870000000003 278.3540000000001 537.9130000000004 273.0540000000001 537.2270000000003 273.0180000000001 C 534.7060000000004 272.8830000000001 532.6710000000003 273.7340000000001 530.0800000000003 273.83600000000007 C 529.4340000000003 273.86100000000005 526.3280000000003 271.45400000000006 524.4180000000002 272.9150000000001 C 524.6070000000002 273.34800000000007 524.4580000000002 273.7010000000001 523.9690000000003 273.97600000000006 C 523.9070000000003 273.98900000000003 529.6940000000003 273.10900000000004 528.4110000000003 274.57500000000005 C 528.2670000000003 274.57700000000006 525.6900000000003 275.898 523.3520000000003 276.50000000000006 C 522.9180000000003 276.26300000000003 523.7060000000004 276.00000000000006 522.8930000000004 275.54200000000003 C 522.0390000000003 276.73 520.2020000000003 276.88500000000005 520.2050000000004 276.345 C 520.6240000000004 275.85400000000004 520.7430000000004 275.713 521.2490000000004 275.10600000000005 C 519.7780000000004 275.03200000000004 514.7170000000003 274.36500000000007 513.8320000000003 275.21000000000004 C 513.2670000000003 273.52400000000006 507.41500000000036 274.34200000000004 504.73000000000036 274.85800000000006 C 503.44400000000036 275.1050000000001 502.3780000000004 275.81800000000004 501.3010000000004 276.38400000000007 C 494.5960000000004 276.6360000000001 487.8080000000004 277.6960000000001 481.36700000000036 278.71100000000007 C 481.07400000000035 278.5850000000001 480.6620000000004 278.41400000000004 480.08600000000035 278.1840000000001 C 488.56500000000034 277.04300000000006 496.8710000000004 275.1760000000001 505.37300000000033 274.0520000000001 C 499.03400000000033 274.6280000000001 492.6980000000003 275.20400000000006 486.3660000000003 275.77900000000005 C 491.21600000000035 274.80800000000005 496.02200000000033 273.78600000000006 500.78400000000033 272.7180000000001 C 489.5390000000003 274.37200000000007 478.32400000000035 275.90400000000005 467.03300000000036 277.2120000000001 C 479.4790000000004 275.3230000000001 491.90300000000036 272.9940000000001 503.91800000000035 269.1710000000001 C 494.8760000000004 269.1900000000001 485.8590000000003 270.2800000000001 476.93000000000035 271.6230000000001 C 476.93000000000035 271.6230000000001 493.61700000000036 268.2070000000001 501.32000000000033 265.4430000000001 C 479.23800000000034 268.1000000000001 457.32700000000034 274.0030000000001 435.72300000000035 276.7880000000001 C 407.7220000000004 280.3970000000001 378.88100000000037 280.93200000000013 350.10600000000034 279.4250000000001 C 401.1140000000003 279.07600000000014 451.12900000000036 271.7890000000001 501.20400000000035 262.57800000000015 C 442.44600000000037 266.39200000000017 382.44600000000037 272.60000000000014 324.90800000000036 273.57300000000015 C 298.77100000000036 274.0140000000001 272.81200000000035 266.95700000000016 247.08400000000034 261.73700000000014 C 217.51600000000033 255.73700000000014 186.36500000000035 253.88500000000013 156.29200000000034 249.91800000000015 C 110.47200000000035 243.87300000000016 55.43700000000034 224.45800000000014 11.539000000000357 247.91700000000014 C -7.194999999999645 257.92900000000014 -1.1929999999996426 280.1150000000001 15.760000000000357 287.2760000000001 C 27.226000000000354 292.11900000000014 49.222000000000364 291.45100000000014 53.347000000000364 306.70100000000014 C 36.350000000000364 300.2860000000001 46.34200000000036 322.54600000000016 50.474000000000366 327.42200000000014 C 61.035000000000366 339.88500000000016 78.25400000000036 347.1510000000001 94.59300000000036 348.79500000000013 C 145.49000000000035 353.91500000000013 197.43500000000034 360.31800000000015 249.11600000000035 363.3840000000001 C 244.77100000000036 362.0990000000001 240.29700000000037 360.98000000000013 235.69300000000035 360.03000000000014 C 240.61800000000036 360.81300000000016 245.67200000000037 361.07600000000014 250.85000000000036 360.83500000000015 C 248.61600000000035 360.73200000000014 246.46900000000036 360.29500000000013 244.40800000000036 359.5190000000002 C 250.56800000000035 359.2570000000002 256.77900000000034 359.8860000000002 262.91700000000037 360.3450000000002 C 259.7770000000004 359.2370000000002 256.3920000000004 358.4990000000002 252.76000000000036 358.13700000000017 C 297.01100000000037 360.3170000000002 341.94400000000036 361.0520000000002 385.43900000000036 358.28700000000015 C 399.8660000000004 357.3700000000002 414.39800000000037 354.95700000000016 428.85500000000036 352.34700000000015 C 431.53500000000037 352.96500000000015 434.15300000000036 353.65500000000014 436.09300000000036 353.69600000000014 C 439.64800000000037 353.77000000000015 438.35500000000036 353.78000000000014 442.3060000000004 352.7280000000001 C 445.00600000000037 352.0090000000001 461.8870000000004 350.4160000000001 463.02300000000037 346.2720000000001 C 464.9860000000004 345.9690000000001 466.95100000000036 345.6720000000001 468.9190000000004 345.3810000000001 C 469.12200000000036 346.13200000000006 469.4890000000004 346.6250000000001 469.8710000000004 346.6860000000001 C 469.8730000000004 343.3950000000001 474.89600000000036 346.4060000000001 475.7210000000004 346.1500000000001 C 476.7190000000004 343.9690000000001 480.4190000000004 343.4260000000001 483.3010000000004 343.8260000000001 C 483.3110000000004 345.9390000000001 491.39300000000037 343.58600000000007 494.2620000000004 343.0690000000001 C 496.2290000000004 342.7150000000001 501.1590000000004 341.4670000000001 504.5130000000004 340.1820000000001 C 504.8340000000004 340.1310000000001 505.1570000000004 340.0800000000001 505.47800000000035 340.02900000000005 C 505.3470000000004 340.21000000000004 505.33100000000036 340.35600000000005 505.51800000000037 340.43100000000004 C 508.22000000000037 340.136 512.7570000000004 339.33000000000004 515.8540000000004 338.28200000000004 C 520.8050000000004 337.396 525.8090000000004 337.16900000000004 530.7490000000004 336.08700000000005 C 529.5590000000003 336.27000000000004 528.3100000000004 335.71100000000007 527.1200000000003 335.89200000000005 C 529.0260000000003 335.38500000000005 531.2280000000003 334.51200000000006 532.7350000000004 334.12800000000004 C 536.7840000000003 333.09700000000004 537.6720000000004 331.45000000000005 540.9920000000003 330.232 C 540.0500000000003 330.13000000000005 531.3020000000002 333.13100000000003 531.2050000000003 332.36 C 532.1870000000002 332.17900000000003 532.8030000000002 331.81600000000003 533.3470000000003 331.418 C 535.9500000000003 330.788 537.5570000000004 330.39300000000003 537.5570000000004 330.39300000000003 C 537.5570000000004 330.39300000000003 535.9500000000004 330.69300000000004 533.7610000000003 331.10600000000005 C 534.1990000000003 330.76800000000003 534.6380000000003 330.4320000000001 535.2450000000003 330.184 C 537.4960000000003 329.266 539.5290000000003 329.459 541.7980000000003 328.63500000000005 C 543.3370000000003 328.07500000000005 546.3910000000003 326.672 547.6660000000004 325.6940000000001 C 546.2220000000004 325.29600000000005 544.8610000000004 325.49700000000007 543.5880000000004 326.30000000000007 C 544.0320000000004 325.7780000000001 548.1980000000004 322.05800000000005 548.1980000000004 322.05800000000005 C 548.1980000000004 322.05800000000005 543.7960000000004 323.60200000000003 543.5260000000004 323.77200000000005 C 542.6510000000004 323.2660000000001 548.8310000000004 319.78400000000005 549.4900000000005 320.03200000000004 C 549.9550000000005 319.913 550.4160000000005 319.76800000000003 550.8720000000004 319.60800000000006 C 551.7390000000004 319.41300000000007 552.9760000000005 319.17500000000007 552.9760000000005 319.17500000000007 C 552.9760000000005 319.17500000000007 552.2080000000004 318.67800000000005 551.6870000000005 318.7540000000001 C 554.5480000000005 317.65400000000005 556.8790000000005 316.6140000000001 558.5700000000005 316.00200000000007 C 557.2750000000005 316.2420000000001 560.5660000000005 313.59600000000006 560.3940000000005 313.92800000000005 C 562.6270000000004 315.10400000000004 566.2780000000005 315.61400000000003 570.3030000000005 313.0330000000001 C 571.0710000000005 312.54100000000005 573.6340000000005 313.6170000000001 571.6220000000004 311.0270000000001 C 571.5600000000004 311.0410000000001 566.6430000000004 314.2090000000001 566.2440000000004 312.4340000000001 C 567.4720000000003 311.5220000000001 570.2800000000003 308.6600000000001 570.7390000000004 310.6020000000001 C 570.6620000000004 310.57400000000007 573.9260000000004 310.3450000000001 574.4020000000004 311.1500000000001 C 575.4560000000004 310.4400000000001 576.1410000000004 310.6040000000001 577.7380000000004 309.9210000000001 C 576.9960000000004 309.09300000000013 576.0500000000004 308.8370000000001 574.9030000000004 309.1560000000001 C 574.8740000000004 309.1850000000001 582.4680000000004 304.08300000000014 578.7910000000004 304.6390000000001 C 578.9800000000004 304.56900000000013 578.9210000000004 304.4400000000001 578.6120000000004 304.24900000000014 C 580.3400000000004 305.02300000000014 580.3350000000004 304.5770000000001 581.7910000000004 305.05700000000013 C 581.1630000000004 303.6010000000001 581.2970000000004 303.1710000000001 582.1070000000004 302.32300000000015 C 582.9440000000004 302.1560000000002 583.2100000000004 304.09000000000015 583.8470000000004 303.79600000000016 C 583.8280000000004 304.2860000000002 587.7810000000004 298.76100000000014 587.5840000000004 298.88700000000017 C 587.7440000000004 299.56500000000017 587.8970000000004 300.24300000000017 588.0410000000004 300.9230000000002 C 588.5530000000003 300.89000000000016 591.3390000000004 299.36100000000016 590.4550000000004 299.2900000000002 C 589.1740000000004 299.1870000000002 589.8560000000003 298.9150000000002 590.6520000000004 298.76200000000017 C 590.4670000000004 298.4130000000002 590.2770000000004 297.97200000000015 590.3020000000004 297.96000000000015 C 590.6880000000003 298.10600000000017 590.9620000000003 298.01500000000016 591.1240000000004 297.68900000000014 C 592.7340000000004 299.37400000000014 594.6220000000004 299.33300000000014 596.3140000000004 299.48000000000013 C 596.4610000000005 298.4850000000001 596.0780000000004 297.88600000000014 595.4620000000004 297.1200000000001 C 595.2050000000005 297.0340000000001 594.0430000000005 298.95300000000015 593.3090000000004 297.38100000000014 C 593.9000000000004 296.66200000000015 593.9790000000004 298.2640000000001 593.9950000000005 295.93100000000015 C 594.2060000000005 295.8890000000002 597.0870000000004 296.63000000000017 597.0740000000004 296.6200000000002 C 596.8210000000004 296.22200000000015 596.9570000000004 296.15200000000016 597.4810000000004 296.4100000000002 C 597.1770000000005 295.81500000000017 596.6860000000005 295.5170000000002 596.0120000000004 295.5100000000002 C 596.1410000000004 295.42300000000023 596.6470000000004 294.7490000000002 596.6370000000004 294.5950000000002 C 596.9190000000004 294.6140000000002 597.7010000000004 294.6560000000002 598.1720000000004 294.7430000000002 C 598.323 293.712 597.768 293.472 597.031 292.744 z M 348.227 342.417 C 333.95899999999995 349.226 316.097 344.895 301.174 343.76899999999995 C 283.847 342.46099999999996 266.245 340.66599999999994 248.86199999999997 338.30199999999996 C 281.949 340.617 315.088 341.25 348.227 342.417 z M 320.607 357.917 C 294.045 357.351 267.13100000000003 355.784 240.67000000000002 354.16999999999996 C 222.098 353.03799999999995 199.16400000000002 356.67099999999994 182.87800000000001 345.12199999999996 C 215.638 344.83199999999994 248.25300000000001 348.24199999999996 280.783 350.25699999999995 C 300.13100000000003 351.4549999999999 320.151 353.06399999999996 339.053 353.90199999999993 C 347.563 354.2799999999999 358.395 354.13899999999995 366.48 358.0159999999999 C 351.184 358.181 335.83 358.242 320.607 357.917 z M 432.584 279.621 C 446.716 277.885 460.693 273.755 474.821 271.98499999999996 C 460.799 274.254 446.834 282.038 432.584 279.621 z M 465.396 344.887 C 466.50600000000003 344.499 467.63300000000004 344.158 468.767 343.838 C 468.758 344.04 468.766 344.228 468.777 344.41400000000004 C 467.648 344.569 466.523 344.732 465.396 344.887 z M 522.597 280.041 C 523.246 280.903 523.028 281.251 521.9449999999999 281.089 C 521.594 280.51 521.811 280.161 522.597 280.041 z M 503.564 283.985 C 504.37100000000004 283.362 505.312 283.117 506.38800000000003 283.25 C 505.266 284.355 505.025 284.04 503.564 283.985 z M 509.891 282.278 C 509.372 283.532 508.457 282.3 509.891 282.278 L 509.891 282.278 z M 510.266 282.261 C 511.66200000000003 281.98100000000005 512.75 281.309 513.534 280.244 C 515.468 280.95000000000005 511.234 281.894 512.241 282.581 C 513.93 282.569 515.602 282.428 517.258 282.16 C 516.132 283.668 511.873 282.876 510.266 282.261 z M 517.697 337.315 C 517.67 336.898 516.902 336.356 518.312 335.868 C 518.159 336.631 518.539 336.92 519.451 336.738 C 519.487 336.733 518.922 336.297 518.7860000000001 336.23 C 518.221 335.334 522.3710000000001 334.815 522.647 334.516 C 522.955 334.64500000000004 521.576 336.285 524.58 336.274 C 522.285 336.623 519.99 336.97 517.697 337.315 z M 523.129 280.959 C 523.596 280.605 523.533 280.444 522.941 280.478 C 522.5110000000001 279.35200000000003 525.712 279.92 526.1560000000001 279.50100000000003 C 526.837 280.042 523.131 280.959 523.129 280.959 z M 532.13 326.297 C 531.674 326.351 531.219 326.401 530.764 326.46900000000005 C 530.778 326.41300000000007 530.791 326.3550000000001 530.804 326.28800000000007 C 532.157 325.993 532.592 325.999 532.13 326.297 z M 541.903 323.42 C 541.418 323.687 541.332 325.005 540.133 324.047 C 540.723 323.838 541.313 323.628 541.903 323.42 z M 543.463 324.98 C 544.761 324.88 543.8929999999999 325.185 544.505 325.029 C 543.137 326.35 538.97 327.75 536.532 326.907 C 537.14 326.603 537.6940000000001 326.293 538.1650000000001 325.978 C 537.2170000000001 325.961 536.272 325.984 535.3310000000001 326.027 C 537.47 323.839 539.509 325.053 543.463 324.98 z M 557.765 280.907 C 558.2909999999999 280.743 558.818 280.578 559.3439999999999 280.41499999999996 C 560.209 282.075 555.896 280.735 557.765 280.907 z M 560.465 282.601 C 560.5830000000001 281.913 560.765 281.752 561.746 281.688 C 561.884 282.216 560.859 282.287 560.465 282.601 z M 562.813 282.648 C 562.366 282.627 561.518 283.156 562.057 282.40900000000005 C 562.465 281.843 563.045 282.593 562.813 282.648 z M 561.084 278.809 C 561.251 279.42800000000005 561.6899999999999 279.514 562.404 279.06800000000004 C 561.605 281.694 561.493 279.91800000000006 560.183 279.49300000000005 C 560.612 279.01400000000007 561.04 278.535 561.47 278.0570000000001 C 562.272 278.24800000000005 563.0740000000001 278.44000000000005 563.874 278.63200000000006 C 563.225 278.96 561.91 278.683 561.084 278.809 z M 565.496 280.51 C 563.133 280.603 565.373 279.443 565.496 280.51 L 565.496 280.51 z M 571.564 284.251 C 570.718 284.874 570.619 283.284 571.564 284.251 L 571.564 284.251 z M 574.674 308.673 C 574.697 308.23 576.678 308.197 574.674 308.673 L 574.674 308.673 z M 577.32 307.306 C 576.738 306.434 577.755 307.404 577.32 307.306 L 577.32 307.306 z M 579.268 294.274 C 578.492 294.474 581.097 291.91 579.268 294.274 L 579.268 294.274 z M 579.684 293.282 C 578.8729999999999 293.017 578.841 292.4 579.592 291.431 C 580.26 292.02 580.289 292.637 579.684 293.282 z M 585.924 292 C 585.218 292.228 582.492 292.597 582.506 293.131 C 582.41 292.98199999999997 582.375 292.82899999999995 582.399 292.671 C 585.638 290.813 583.713 291.476 585.233 290.87 C 584.9159999999999 290.908 585.209 289.73 585.083 289.817 C 584.776 289.976 584.661 290.062 584.62 290.109 C 584.602 290.09999999999997 584.578 290.091 584.5360000000001 290.08299999999997 C 584.8990000000001 289.61299999999994 585.3900000000001 289.284 586.0110000000001 289.097 C 585.9710000000001 289.068 586.4590000000001 291.06199999999995 586.618 290.63399999999996 C 587.759 290.48799999999994 587.4820000000001 290.58599999999996 588.931 290.20699999999994 C 588.91 290.186 587.936 295.332 585.924 292 z M 594.035 288.283 C 595.327 289.773 595.8729999999999 288.862 597.5029999999999 289.314 C 597.453 289.59200000000004 597.5649999999999 289.73900000000003 597.8359999999999 289.755 C 597.3669999999998 289.997 596.8979999999999 290.239 596.4309999999999 290.48199999999997 C 596.135 290.481 591.914 289.992 594.035 288.283 z" stroke-linecap="round" />
</g>
<g transform="matrix(0.35 0 0 0.35 105.08 105)" id="3atIphqFkBthzacmEd3jG"  >
<path style="stroke: none; stroke-width: 1; stroke-dasharray: none; stroke-linecap: butt; stroke-dashoffset: 0; stroke-linejoin: miter; stroke-miterlimit: 4; fill: rgb(255,255,255); fill-rule: nonzero; opacity: 1;" vector-effect="non-scaling-stroke"  transform=" translate(-300, -299.99)" d="M 590.005 297.27 C 590.493 297.301 591.011 297.342 591.3919999999999 297.459 C 592.6539999999999 297.51 593.4519999999999 297.204 592.934 296.969 C 593.019 296.799 592.818 296.69 592.482 296.61199999999997 C 595.4499999999999 295.86899999999997 598.882 295.08299999999997 598.153 295.08799999999997 C 597.753 295.02799999999996 597.722 294.919 597.806 294.796 C 597.974 294.743 598.058 294.675 598.014 294.577 C 598.194 294.406 598.319 294.249 597.756 294.196 L 597.2429999999999 294.40500000000003 C 591.704 294.367 602.0049999999999 290.067 595.603 290.01200000000006 C 598.396 290.84900000000005 594.6949999999999 290.9750000000001 591.793 291.16100000000006 C 591.503 290.85900000000004 590.199 290.43800000000005 588.103 290.26000000000005 C 586.295 290.38100000000003 587.045 290.62300000000005 586.707 290.86500000000007 C 585.698 290.6860000000001 583.776 290.56800000000004 584.015 290.08000000000004 C 582.619 290.69100000000003 581.752 289.77700000000004 580.0649999999999 290.021 C 578.583 290.32800000000003 580.1719999999999 290.267 579.1229999999999 290.572 C 576.8829999999999 290.574 573.746 290.58 571.963 290.51800000000003 C 571.2629999999999 290.08700000000005 569.1419999999999 289.34700000000004 570.6519999999999 288.60600000000005 C 574.0459999999999 288.60800000000006 569.3889999999999 289.78100000000006 572.9159999999999 289.53200000000004 C 571.3679999999999 288.545 576.0319999999999 289.16400000000004 576.654 288.36600000000004 C 575.516 287.93300000000005 573.236 287.992 571.334 288.17400000000004 L 571.7189999999999 288.29900000000004 C 570.0429999999999 288.482 566.6869999999999 288.78900000000004 564.8539999999999 288.28900000000004 C 565.2729999999999 287.91600000000005 564.472 287.66600000000005 565.703 287.54300000000006 L 563.389 287.53900000000004 C 563.099 287.66200000000003 562.799 287.78700000000003 563.469 287.85200000000003 C 562.3850000000001 288.163 561.2890000000001 288.03600000000006 560.4440000000001 287.84600000000006 C 560.181 287.47100000000006 548.1830000000001 289.79400000000004 548.5490000000001 289.5450000000001 C 547.7590000000001 289.57200000000006 547.2510000000001 289.46100000000007 546.7620000000001 289.3810000000001 C 550.9150000000001 288.98300000000006 560.297 286.9000000000001 558.585 287.0420000000001 C 557.375 286.72300000000007 544.797 289.5340000000001 540.244 289.74000000000007 C 539.741 289.71900000000005 539.238 289.69700000000006 538.735 289.6770000000001 C 538.707 289.6670000000001 538.672 289.6580000000001 538.653 289.6470000000001 C 538.561 289.6510000000001 538.466 289.6570000000001 538.373 289.6630000000001 C 537.498 289.6280000000001 536.624 289.58800000000014 535.748 289.55400000000014 C 535.8710000000001 289.40000000000015 535.869 289.2470000000001 535.339 289.13300000000015 C 535.3080000000001 289.19500000000016 535.4680000000001 289.32300000000015 534.9920000000001 289.32300000000015 L 534.4000000000001 289.13700000000017 C 535.2570000000001 289.06300000000016 536.1210000000001 288.99800000000016 536.9770000000001 288.9200000000002 L 536.44 288.6290000000002 C 540.214 288.20700000000016 543.749 287.5200000000002 547.4860000000001 286.9630000000002 C 549.3530000000001 286.6840000000002 551.2730000000001 286.4380000000002 553.2990000000001 286.27400000000017 C 554.3130000000001 286.19000000000017 555.354 286.1310000000002 556.4290000000001 286.0930000000002 C 557.5020000000001 286.02200000000016 558.609 285.97600000000017 559.7590000000001 285.9610000000002 C 566.2350000000001 284.37500000000017 575.4670000000001 283.1200000000002 577.8920000000002 281.19500000000016 C 585.3330000000002 280.0910000000002 588.2030000000002 278.84900000000016 595.4250000000002 277.53900000000016 C 594.4270000000001 277.2230000000002 596.1590000000002 276.75400000000013 597.6770000000001 276.33500000000015 C 599.1900000000002 275.9350000000002 600.5210000000002 275.47900000000016 598.6660000000002 275.42800000000017 C 593.6870000000001 274.80100000000016 593.5650000000002 275.85200000000015 589.3630000000002 275.36800000000017 L 589.5190000000001 275.64200000000017 L 582.3390000000002 276.03200000000015 C 579.9480000000002 276.16400000000016 577.5700000000002 276.3600000000001 575.1520000000002 276.35500000000013 C 570.3330000000002 276.44100000000014 565.5180000000001 276.55900000000014 560.7040000000002 276.7070000000001 C 555.9030000000001 276.9260000000001 551.0380000000001 276.8510000000001 546.1840000000002 276.90800000000013 C 544.3090000000002 276.9280000000001 542.4240000000002 276.9470000000001 540.5460000000002 276.96700000000016 C 542.4290000000002 275.39100000000013 544.5460000000002 274.12300000000016 533.1020000000002 273.93200000000013 L 543.3270000000002 272.2090000000001 C 550.9120000000003 268.32100000000014 509.7290000000002 272.6630000000001 527.2630000000003 267.4570000000001 C 528.9890000000003 266.3540000000001 526.4640000000003 265.5900000000001 532.4490000000003 264.1590000000001 C 528.9970000000003 263.2730000000001 522.3430000000003 264.1800000000001 519.6880000000003 265.1590000000001 C 514.8800000000003 263.2490000000001 493.9360000000003 267.5170000000001 493.0060000000003 264.3090000000001 C 488.7610000000003 265.3960000000001 485.0380000000003 265.9800000000001 481.59900000000033 266.24700000000007 C 478.1650000000003 266.4680000000001 475.0150000000003 266.38700000000006 471.9070000000003 266.20000000000005 C 465.69200000000035 265.80000000000007 459.6380000000003 265.10400000000004 451.80800000000033 265.35 C 431.95700000000033 265.83200000000005 445.01900000000035 267.694 439.40800000000036 269.80400000000003 C 436.90600000000035 269.69800000000004 434.41600000000034 269.76000000000005 431.99200000000036 269.93 C 429.56700000000035 270.093 427.20800000000037 270.414 424.9770000000004 270.619 C 420.5130000000004 271.108 416.5360000000004 271.814 413.5270000000004 272.285 C 408.0960000000004 272.459 404.77800000000036 271.297 408.38600000000037 270.73400000000004 C 367.6910000000004 268.16200000000003 326.39300000000037 264.64400000000006 284.87200000000036 263.25700000000006 C 276.4070000000004 262.0300000000001 268.20200000000034 262.11600000000004 260.05400000000037 261.9890000000001 C 255.94400000000036 261.8780000000001 251.98700000000036 261.9160000000001 247.97200000000038 261.6590000000001 C 243.95900000000037 261.4090000000001 239.92300000000037 260.9150000000001 235.83400000000037 259.9870000000001 L 238.55400000000037 260.6060000000001 C 238.94800000000038 260.9850000000001 236.85400000000038 261.16500000000013 235.20100000000036 261.3440000000001 C 237.91100000000037 262.0220000000001 240.52600000000035 262.7070000000001 243.03100000000038 263.4010000000001 C 238.17000000000039 263.1690000000001 233.26200000000037 262.9970000000001 228.44200000000038 263.0920000000001 C 227.10200000000037 263.7510000000001 224.70100000000036 264.1150000000001 221.74900000000036 264.2800000000001 C 218.79700000000037 264.41300000000007 215.29300000000038 264.3780000000001 211.74300000000036 264.3430000000001 C 204.64000000000036 264.27200000000005 197.35400000000035 264.2050000000001 193.90900000000036 265.4940000000001 C 166.98300000000037 264.1880000000001 178.31600000000037 263.2100000000001 151.13200000000035 261.5540000000001 C 143.83000000000035 261.88400000000007 135.83400000000034 262.2870000000001 127.50500000000035 262.5230000000001 C 119.17900000000034 262.75200000000007 110.47100000000034 262.9510000000001 101.81300000000036 262.66800000000006 C 95.53300000000036 262.49800000000005 89.80500000000036 261.2320000000001 90.84500000000035 260.6670000000001 C 83.27600000000035 260.88400000000007 72.42200000000035 261.01400000000007 64.59000000000036 261.0000000000001 C 60.41200000000036 261.3590000000001 57.35400000000036 261.6610000000001 55.21400000000036 262.0270000000001 C 53.07100000000036 262.4050000000001 51.85800000000036 262.7440000000001 51.38100000000036 263.0450000000001 C 50.42700000000036 263.64900000000006 52.420000000000364 264.10600000000005 55.84500000000036 264.4410000000001 C 62.68500000000036 265.28100000000006 75.24000000000036 265.81200000000007 81.52400000000036 265.8670000000001 C 78.66200000000036 267.8690000000001 62.13300000000036 266.80500000000006 63.81600000000036 268.6520000000001 C 64.54500000000036 269.4470000000001 65.26900000000036 270.2350000000001 67.26800000000036 270.7120000000001 L 75.57400000000035 269.6090000000001 C 96.36000000000035 270.2570000000001 66.94800000000035 272.08600000000007 80.90600000000035 273.7800000000001 C 83.91300000000035 273.6790000000001 85.41600000000035 273.62700000000007 86.68200000000034 273.31200000000007 C 90.08800000000035 272.7730000000001 91.29800000000034 272.44300000000004 91.16100000000034 272.0640000000001 C 91.02300000000034 271.6930000000001 89.54100000000034 271.2940000000001 87.55800000000035 270.8300000000001 C 97.72900000000035 270.7670000000001 100.67800000000035 272.1460000000001 102.59900000000034 273.5140000000001 C 101.14800000000035 273.91200000000015 100.03700000000035 274.22700000000015 99.70700000000035 274.3360000000001 L 99.13800000000035 274.2360000000001 C 98.72400000000034 274.2670000000001 98.37100000000035 274.3320000000001 98.09000000000034 274.4100000000001 C 97.48700000000035 274.13700000000006 96.47600000000034 274.0560000000001 96.05300000000034 273.85300000000007 C 95.72000000000034 274.03900000000004 94.19000000000034 273.58200000000005 93.17800000000034 273.6460000000001 C 93.52400000000034 273.22800000000007 93.10400000000034 273.11800000000005 92.62500000000034 272.9630000000001 C 92.53000000000034 272.99300000000005 92.42500000000034 273.0250000000001 92.32000000000033 273.0560000000001 C 92.42400000000033 273.0230000000001 92.51800000000033 272.9920000000001 92.61400000000033 272.9600000000001 C 92.36400000000033 272.8790000000001 92.10000000000034 272.7860000000001 91.92000000000033 272.6310000000001 C 91.26900000000033 272.45400000000006 90.80600000000032 272.6740000000001 91.03900000000033 272.9580000000001 C 90.96800000000033 273.1180000000001 91.05600000000032 273.24700000000007 91.21900000000034 273.35800000000006 C 89.55400000000033 273.79100000000005 87.63900000000034 274.21900000000005 88.02000000000034 274.28800000000007 C 88.22000000000034 274.3880000000001 88.21300000000033 274.4990000000001 88.15000000000033 274.6120000000001 C 88.05600000000034 274.6470000000001 88.00300000000033 274.7070000000001 88.01100000000034 274.8070000000001 C 87.89100000000033 274.9560000000001 87.80100000000034 275.09900000000005 88.08500000000033 275.20700000000005 L 88.38600000000034 275.05300000000005 C 89.07100000000034 275.196 89.25100000000033 275.48300000000006 89.17500000000034 275.84900000000005 C 88.41300000000034 275.8070000000001 87.66000000000034 275.778 86.95600000000034 275.76400000000007 C 86.33000000000034 275.86800000000005 85.97200000000035 276.80500000000006 84.51400000000035 276.54100000000005 C 83.76600000000035 275.98400000000004 82.90800000000036 276.71100000000007 81.68400000000035 276.37100000000004 C 83.01700000000035 275.91600000000005 84.36400000000036 275.94300000000004 85.74700000000036 275.848 C 85.45100000000035 275.139 82.34400000000035 275.66 81.23300000000036 275.555 C 80.74100000000035 275.832 78.05100000000036 275.838 76.39600000000036 276.196 C 76.83100000000036 275.69300000000004 76.09600000000036 275.71000000000004 75.24800000000036 275.702 C 75.09300000000036 275.763 74.92400000000036 275.825 74.74900000000036 275.89 C 74.91600000000037 275.82599999999996 75.07800000000036 275.763 75.23200000000037 275.702 C 74.79000000000038 275.697 74.31900000000037 275.684 73.96600000000036 275.587 C 72.82600000000036 275.608 72.13200000000036 275.956 72.61600000000037 276.161 C 72.55300000000037 276.337 72.74400000000037 276.434 73.05200000000038 276.493 C 70.44200000000038 277.397 67.41900000000038 278.37 68.07900000000038 278.323 C 68.44400000000037 278.35999999999996 68.47900000000038 278.46799999999996 68.41600000000038 278.594 C 68.27000000000038 278.657 68.19900000000038 278.729 68.24800000000037 278.824 C 68.10100000000037 279.004 68.00300000000037 279.168 68.51100000000038 279.188 L 68.95200000000038 278.953 C 73.91300000000038 278.688 65.06900000000039 283.53099999999995 70.78900000000039 283.238 C 68.22800000000038 282.556 71.51800000000038 282.23 74.09200000000038 281.886 C 74.37400000000038 282.172 75.56900000000039 282.52000000000004 77.44700000000039 282.58500000000004 C 79.04800000000039 282.36600000000004 78.36300000000038 282.165 78.64600000000038 281.90700000000004 C 79.55800000000039 282.028 81.27800000000039 282.04300000000006 81.09700000000038 282.54400000000004 C 82.30000000000038 281.857 83.13000000000038 282.72400000000005 84.61400000000037 282.38900000000007 C 85.91600000000038 282.00300000000004 84.50500000000038 282.1500000000001 85.42200000000038 281.78800000000007 C 87.41400000000039 281.6670000000001 90.20300000000039 281.4700000000001 91.79700000000038 281.51700000000005 C 92.44400000000039 281.92800000000005 94.36500000000038 282.61100000000005 93.05800000000038 283.3910000000001 C 90.03900000000037 283.4790000000001 94.12400000000038 282.18500000000006 90.99900000000038 282.5270000000001 C 91.71100000000038 283.0000000000001 91.02200000000038 283.1120000000001 90.09400000000038 283.2080000000001 C 89.16400000000037 283.3230000000001 87.99500000000037 283.4450000000001 87.74100000000038 283.8590000000001 C 88.77200000000039 284.2160000000001 90.79000000000039 284.0520000000001 92.47200000000038 283.8410000000001 L 92.12300000000037 283.7260000000001 C 93.60200000000037 283.5010000000001 96.57300000000038 283.1030000000001 98.22200000000038 283.5560000000001 C 97.86500000000038 283.9390000000001 98.58600000000038 284.1670000000001 97.49800000000037 284.3230000000001 L 99.55200000000038 284.2660000000001 C 99.80500000000038 284.1360000000001 100.06600000000037 284.00200000000007 99.46900000000038 283.9560000000001 C 99.69100000000037 283.8760000000001 99.91300000000038 283.8250000000001 100.13500000000037 283.7900000000001 C 100.42200000000038 283.8210000000001 100.71300000000038 283.8380000000001 100.99100000000037 283.8420000000001 L 100.86600000000037 283.7300000000001 C 101.33000000000037 283.7320000000001 101.77000000000037 283.79800000000006 102.15300000000038 283.88200000000006 C 102.19300000000038 283.9460000000001 102.51900000000037 283.92400000000004 103.02900000000038 283.84700000000004 C 103.55600000000038 283.95200000000006 104.05400000000039 284.11800000000005 104.40600000000038 284.389 C 104.37800000000037 284.423 104.36000000000037 284.456 104.34300000000037 284.49 C 102.72200000000038 284.657 101.03000000000037 285.187 99.65000000000038 285.307 C 99.41700000000037 285.338 99.21200000000037 285.12800000000004 99.08100000000037 284.927 L 97.54400000000037 285.615 C 97.56000000000037 284.767 96.12400000000036 285.055 96.82000000000036 284.43600000000004 C 95.75200000000036 285.574 94.45400000000036 285.12800000000004 93.45300000000036 286.29400000000004 C 89.40800000000036 286.96000000000004 85.19600000000035 288.14900000000006 81.19500000000036 290.071 L 81.33600000000037 290.36600000000004 C 80.88000000000036 290.60400000000004 80.45400000000036 290.958 80.02400000000037 291.31300000000005 C 76.59700000000036 291.97100000000006 69.08400000000037 293.36800000000005 68.10300000000038 293.63100000000003 L 67.54500000000037 293.49 C 65.88500000000037 293.48900000000003 65.16500000000038 294.07800000000003 66.13200000000037 294.237 L 64.08600000000037 294.161 L 64.32400000000037 294.109 L 62.29000000000037 294.03299999999996 C 61.91500000000037 293.95699999999994 61.49800000000037 293.57399999999996 62.08200000000037 293.22799999999995 C 60.92500000000037 293.49199999999996 59.62700000000037 293.62399999999997 58.47700000000037 293.46299999999997 C 61.675000000000374 294.01 65.64600000000037 294.77399999999994 68.98800000000037 295.64 C 67.60500000000037 295.89599999999996 65.12200000000037 295.429 63.62500000000037 295.495 C 61.85000000000037 294.934 58.18900000000037 294.425 55.34300000000037 294.015 C 54.71500000000037 294.05199999999996 54.26700000000037 294.947 52.85200000000037 294.529 C 52.168000000000376 293.896 51.244000000000376 294.527 50.06900000000037 294.05899999999997 C 51.43500000000037 293.74699999999996 52.76100000000037 293.917 54.138000000000375 293.96999999999997 C 53.915000000000376 293.234 50.79500000000037 293.42199999999997 49.711000000000375 293.19899999999996 C 49.196000000000375 293.42199999999997 46.54200000000038 293.14199999999994 44.867000000000374 293.32199999999995 C 45.354000000000376 292.86799999999994 44.629000000000374 292.8059999999999 43.79500000000037 292.70799999999997 C 43.632000000000374 292.75199999999995 43.45500000000037 292.79699999999997 43.27300000000037 292.844 C 43.44800000000037 292.79699999999997 43.61800000000037 292.75 43.77900000000037 292.706 C 43.34400000000037 292.654 42.88300000000037 292.59200000000004 42.54800000000037 292.458 C 41.42400000000037 292.355 40.69700000000037 292.629 41.15100000000037 292.88500000000005 C 41.06700000000037 293.05100000000004 41.24300000000037 293.16800000000006 41.53900000000037 293.26000000000005 C 38.85300000000037 293.88100000000003 35.751000000000374 294.52600000000007 36.40200000000037 294.55100000000004 C 36.75700000000037 294.62600000000003 36.77900000000037 294.737 36.69900000000037 294.85600000000005 C 36.548000000000364 294.90200000000004 36.47000000000037 294.96700000000004 36.50400000000037 295.06600000000003 C 36.33500000000037 295.22900000000004 36.21600000000037 295.38100000000003 36.71700000000037 295.458 L 37.18400000000037 295.27000000000004 C 41.709000000000366 295.51200000000006 34.25900000000037 298.76200000000006 37.298000000000364 299.56500000000005 C 32.066000000000365 300.08600000000007 27.137000000000363 300.6460000000001 25.250000000000362 301.7250000000001 C 16.756000000000363 301.8230000000001 13.349000000000363 302.64200000000005 5.007000000000364 302.95400000000006 C 7.132000000000364 303.86500000000007 -3.109999999999637 303.84600000000006 0.9690000000003636 304.60100000000006 C 6.467000000000364 305.90400000000005 6.7960000000003635 304.88000000000005 11.466000000000363 305.93500000000006 L 11.333000000000364 305.64200000000005 C 20.986000000000367 306.37200000000007 30.656000000000365 306.99000000000007 40.35200000000036 307.53100000000006 C 40.35200000000036 307.5330000000001 40.35100000000036 307.53600000000006 40.35000000000036 307.53900000000004 C 40.293000000000355 307.58600000000007 40.26300000000035 307.65100000000007 40.274000000000356 307.75100000000003 C 40.207000000000356 307.91400000000004 40.159000000000354 308.064 40.338000000000356 308.13800000000003 L 40.50500000000036 307.961 C 42.30300000000036 308.221 38.74600000000036 312.098 40.83600000000036 312.399 C 39.96400000000036 311.456 41.18100000000036 311.473 42.13900000000036 311.399 C 42.21800000000036 311.712 42.62400000000036 312.182 43.30100000000036 312.442 C 43.900000000000354 312.39 43.66600000000036 312.12 43.78800000000036 311.892 C 44.10900000000036 312.108 44.73300000000036 312.301 44.63000000000036 312.779 C 45.11700000000036 312.222 45.35600000000036 313.169 45.91900000000036 312.991 C 46.42000000000036 312.74199999999996 45.89700000000036 312.741 46.25600000000036 312.477 C 46.987000000000364 312.561 48.01500000000036 312.678 48.59500000000036 312.80699999999996 C 48.80300000000036 313.26399999999995 49.46000000000036 314.08599999999996 48.93000000000036 314.768 C 47.82000000000036 314.635 49.40100000000036 313.643 48.23500000000036 313.756 C 48.69300000000036 314.801 47.197000000000365 314.003 46.95500000000036 314.775 C 47.30700000000036 315.25199999999995 48.05400000000036 315.282 48.68600000000036 315.173 L 48.566000000000365 315.032 C 49.124000000000365 314.916 50.237000000000364 314.73699999999997 50.81200000000037 315.308 C 50.65600000000037 315.663 50.907000000000366 315.945 50.49800000000037 316.019 L 51.255000000000365 316.113 C 51.356000000000364 316.002 51.46000000000036 315.888 51.24400000000036 315.799 C 51.61300000000036 315.531 51.96700000000036 315.69899999999996 52.234000000000364 315.92199999999997 C 52.301000000000364 316.30699999999996 56.340000000000366 314.45 56.209000000000366 314.686 C 56.47000000000037 314.69 56.63100000000036 314.82099999999997 56.788000000000366 314.918 C 55.414000000000364 315.154 52.289000000000364 316.012 52.85800000000037 315.934 C 53.30900000000037 316.37 59.14000000000037 314.23100000000005 59.45200000000037 314.96700000000004 C 59.859000000000364 314.951 60.35100000000037 314.88700000000006 60.27100000000037 314.49600000000004 C 60.95000000000037 314.70700000000005 60.03700000000037 315.22800000000007 60.51000000000037 315.60800000000006 C 60.52400000000037 315.5470000000001 60.47800000000037 315.41300000000007 60.633000000000365 315.4320000000001 L 61.08300000000037 315.93700000000007 C 62.17100000000037 315.3710000000001 63.703000000000365 316.2060000000001 64.84800000000037 315.4480000000001 C 64.50900000000037 315.8570000000001 64.11200000000036 316.5820000000001 63.380000000000365 316.93700000000007 L 63.26200000000036 316.7300000000001 C 63.157000000000366 316.8450000000001 62.56100000000036 316.95900000000006 62.56200000000036 317.3470000000001 C 63.23300000000036 317.6280000000001 63.82000000000036 317.5760000000001 64.55100000000036 317.2200000000001 C 64.68000000000036 317.3270000000001 64.83000000000035 317.4380000000001 64.93000000000036 317.54800000000006 C 64.92900000000036 317.49700000000007 64.91900000000037 317.45400000000006 64.92500000000037 317.39700000000005 C 65.15000000000036 317.6460000000001 65.12400000000036 317.68300000000005 65.03100000000036 317.83200000000005 C 65.01900000000036 317.86000000000007 65.00500000000036 317.89200000000005 64.97800000000036 317.9200000000001 C 65.36200000000036 319.06700000000006 67.68400000000037 317.2890000000001 68.90500000000037 317.9200000000001 C 69.27800000000038 317.77200000000005 68.94700000000037 317.7270000000001 69.41200000000038 317.5250000000001 C 70.66800000000038 318.0170000000001 71.53100000000038 318.3930000000001 72.85200000000037 318.7010000000001 C 73.29500000000037 318.22600000000006 73.33600000000037 318.0320000000001 72.84100000000038 317.5040000000001 L 73.84100000000038 317.69700000000006 C 73.46400000000038 318.19500000000005 73.66400000000037 318.50200000000007 73.98200000000038 318.76900000000006 C 70.86300000000038 319.5540000000001 67.46400000000038 320.41200000000003 66.85000000000038 320.61100000000005 L 66.32300000000038 320.48800000000006 C 64.76900000000037 320.54300000000006 64.11800000000038 321.15600000000006 65.03000000000037 321.2830000000001 L 63.111000000000374 321.2750000000001 L 63.33200000000037 321.2140000000001 L 61.42300000000037 321.20600000000013 C 61.06900000000037 321.1420000000001 60.66300000000037 320.7740000000001 61.196000000000375 320.4090000000001 C 60.123000000000374 320.7120000000001 58.91300000000037 320.8880000000001 57.830000000000375 320.7640000000001 C 60.84600000000037 321.20300000000015 64.59500000000037 321.8360000000001 67.76200000000037 322.5860000000001 C 66.47600000000037 322.89300000000014 64.13000000000036 322.50600000000014 62.73200000000037 322.6220000000001 C 61.04600000000037 322.12100000000015 57.59800000000037 321.7360000000001 54.91700000000037 321.42200000000014 C 54.33000000000037 321.47900000000016 53.943000000000374 322.3870000000001 52.60200000000037 322.01800000000014 C 51.93900000000038 321.40800000000013 51.09600000000037 322.06900000000013 49.979000000000376 321.64100000000013 C 51.248000000000374 321.2860000000001 52.495000000000374 321.4110000000001 53.787000000000376 321.4160000000001 C 53.552000000000376 320.6870000000001 50.63700000000038 320.98000000000013 49.61200000000038 320.7930000000001 C 49.13700000000038 321.03300000000013 46.64200000000038 320.84300000000013 45.08100000000038 321.07800000000015 C 45.52000000000038 320.60700000000014 44.84000000000038 320.57000000000016 44.055000000000376 320.50000000000017 C 43.90100000000037 320.55100000000016 43.733000000000374 320.60400000000016 43.559000000000374 320.65700000000015 C 43.72500000000037 320.60200000000015 43.88600000000037 320.54900000000015 44.03900000000037 320.49800000000016 C 43.63000000000037 320.4610000000002 43.19500000000037 320.41400000000016 42.87700000000037 320.29200000000014 C 41.82000000000037 320.22900000000016 41.14900000000037 320.52400000000017 41.58200000000037 320.76600000000013 C 41.51000000000037 320.9350000000001 41.67900000000037 321.0460000000001 41.95900000000037 321.12800000000016 C 39.467000000000375 321.83800000000014 36.58400000000037 322.5860000000002 37.193000000000374 322.58900000000017 C 37.52900000000037 322.65200000000016 37.552000000000376 322.76300000000015 37.48100000000037 322.88500000000016 C 37.34000000000037 322.93600000000015 37.27000000000037 323.00300000000016 37.30500000000037 323.10100000000017 C 37.15300000000037 323.27000000000015 37.04600000000037 323.42600000000016 37.51700000000037 323.4850000000002 L 37.94800000000037 323.2820000000002 C 42.60200000000037 323.38200000000023 33.91800000000037 327.5660000000002 39.29500000000037 327.69200000000023 C 36.95400000000037 326.8250000000002 40.065000000000374 326.7410000000002 42.50300000000037 326.5870000000002 C 42.74400000000037 326.8930000000002 43.83800000000037 327.3270000000002 45.59900000000037 327.5290000000002 C 47.119000000000376 327.4280000000002 46.488000000000376 327.17700000000025 46.77400000000037 326.9400000000002 C 47.62200000000037 327.12900000000025 49.23700000000037 327.2680000000002 49.03300000000037 327.75400000000025 C 50.20900000000037 327.15800000000024 50.93300000000037 328.0820000000002 52.35300000000037 327.85800000000023 C 53.59900000000037 327.5680000000002 52.26200000000037 327.61000000000024 53.14700000000037 327.31700000000023 C 55.02800000000037 327.34000000000026 57.66700000000037 327.37000000000023 59.16400000000037 327.4520000000002 C 59.75300000000037 327.8900000000002 61.53600000000037 328.6550000000002 60.26700000000037 329.3780000000002 C 57.41300000000037 329.3390000000002 61.32900000000037 328.2180000000002 58.364000000000374 328.4280000000002 C 59.665000000000376 329.43200000000024 55.744000000000376 328.76100000000025 55.21900000000037 329.5510000000002 C 56.175000000000374 329.99700000000024 58.09300000000037 329.9640000000002 59.69400000000037 329.8040000000002 L 59.370000000000374 329.67300000000023 C 60.77900000000037 329.51100000000025 63.60300000000037 329.24000000000024 65.14500000000038 329.76100000000025 C 64.79400000000038 330.12800000000027 65.46800000000037 330.38800000000026 64.43100000000038 330.49700000000024 L 66.38000000000038 330.52600000000024 C 66.62400000000038 330.4070000000002 66.87600000000037 330.28600000000023 66.31300000000039 330.21300000000025 C 67.22300000000038 329.91700000000026 68.14600000000038 330.0530000000002 68.85800000000039 330.24000000000024 C 69.08100000000039 330.61500000000024 79.16100000000039 328.31100000000026 78.85200000000039 328.56000000000023 C 79.51600000000039 328.5340000000002 79.94500000000039 328.64600000000024 80.35700000000038 328.7260000000002 C 76.86700000000039 329.1190000000002 68.93800000000039 330.69600000000025 70.37800000000038 330.5540000000002 C 71.58900000000038 330.9370000000002 86.28200000000038 327.7760000000002 87.17400000000038 328.4730000000002 C 88.21100000000038 328.4110000000002 89.46000000000038 328.2920000000002 89.20500000000038 327.9120000000002 C 90.93300000000038 328.0430000000002 88.79600000000038 328.6430000000002 89.90400000000038 328.9730000000002 C 87.20900000000039 329.3090000000002 84.94700000000039 329.7460000000002 83.86500000000038 330.4720000000002 C 77.09000000000037 330.3800000000002 74.34200000000038 331.1240000000002 67.67700000000038 331.2490000000002 C 69.33400000000037 332.2080000000002 61.168000000000376 331.9560000000002 64.38900000000038 332.8060000000002 C 68.72100000000037 334.22800000000024 69.02600000000038 333.2130000000002 72.70800000000038 334.3710000000002 L 72.61400000000039 334.0760000000002 C 89.99400000000038 336.23100000000017 107.45500000000038 337.83200000000016 125.15300000000039 339.1020000000002 C 136.9980000000004 338.6920000000002 149.7970000000004 339.6080000000002 162.0930000000004 339.7060000000002 C 168.7120000000004 339.7210000000002 175.6010000000004 339.6790000000002 182.2550000000004 339.5790000000002 C 185.5810000000004 339.5520000000002 188.8500000000004 339.4480000000002 191.9940000000004 339.29400000000015 C 195.1380000000004 339.14000000000016 198.1610000000004 338.98900000000015 200.9990000000004 338.85000000000014 C 203.7090000000004 338.62100000000015 205.65200000000038 339.35900000000015 207.9560000000004 339.7790000000001 C 218.3910000000004 339.4640000000001 231.66400000000039 339.8510000000001 243.4320000000004 339.4600000000001 C 243.21000000000038 339.4550000000001 242.9940000000004 339.4390000000001 242.85400000000038 339.4260000000001 C 249.10700000000037 339.3620000000001 253.7850000000004 340.1510000000001 259.8870000000004 339.9770000000001 C 259.8570000000004 339.7320000000001 260.8020000000004 339.7090000000001 261.2600000000004 339.5780000000001 C 262.3290000000004 340.7180000000001 297.16000000000037 336.9350000000001 299.3130000000004 337.57900000000006 C 299.94600000000037 337.52000000000004 300.6010000000004 337.46700000000004 301.2710000000004 337.4320000000001 C 314.1510000000004 337.87500000000006 327.4880000000004 339.78400000000005 338.5350000000004 339.4310000000001 C 340.9250000000004 338.8500000000001 343.6170000000004 338.3310000000001 345.6250000000004 337.68700000000007 C 347.5870000000004 338.1480000000001 347.9450000000004 337.18700000000007 350.30400000000037 337.2800000000001 C 356.3200000000004 339.4820000000001 359.80400000000037 338.4600000000001 356.70400000000035 337.69700000000006 C 361.61500000000035 337.30000000000007 366.55400000000037 337.43700000000007 370.91800000000035 337.2610000000001 C 372.93900000000036 337.0350000000001 374.94600000000037 336.81200000000007 376.98600000000033 336.5850000000001 C 378.71600000000035 336.3540000000001 379.69000000000034 336.6740000000001 380.5760000000003 337.2000000000001 C 385.0080000000003 336.7770000000001 383.7110000000003 337.3740000000001 388.3690000000003 337.5050000000001 C 389.5120000000003 338.2840000000001 400.0130000000003 335.9700000000001 401.3340000000003 336.1850000000001 L 400.5750000000003 336.32100000000014 C 405.9590000000003 336.34300000000013 409.56800000000027 337.8220000000001 414.83000000000027 337.77700000000016 C 429.46300000000025 338.04900000000015 445.39300000000026 337.08900000000017 458.9330000000003 337.06400000000014 C 459.0480000000003 336.2190000000001 455.9520000000003 337.31800000000015 455.77000000000027 336.20600000000013 C 463.75400000000025 336.17400000000015 471.8220000000003 337.03900000000016 479.87800000000027 337.0000000000001 C 481.3360000000003 337.1930000000001 483.12100000000027 337.5780000000001 483.7880000000003 337.83100000000013 C 486.3680000000003 338.09000000000015 485.2990000000003 337.39800000000014 487.1840000000003 337.47200000000015 L 487.4540000000003 338.22900000000016 C 490.1920000000003 337.5550000000002 491.4920000000003 339.00000000000017 494.0760000000003 338.6390000000002 C 494.2070000000003 338.33000000000015 495.1520000000003 338.27200000000016 496.0720000000003 338.2800000000002 C 496.1350000000003 339.0870000000002 498.90700000000027 338.1740000000002 498.7860000000003 338.9130000000002 L 498.8120000000003 338.85100000000017 C 499.3670000000003 338.85400000000016 499.7600000000003 338.7950000000002 500.4420000000003 338.9220000000002 C 501.4880000000003 338.6190000000002 511.3260000000003 336.2310000000002 512.3910000000003 335.8680000000002 L 512.8920000000003 335.99200000000025 C 514.3700000000002 335.94100000000026 514.9900000000002 335.33000000000027 514.1250000000002 335.20100000000025 L 515.9480000000002 335.21300000000025 L 515.7390000000003 335.2740000000002 L 517.5520000000002 335.2870000000002 C 517.8870000000003 335.3520000000002 518.2710000000003 335.72100000000023 517.7620000000003 336.0850000000002 C 518.7830000000002 335.7850000000002 519.9350000000003 335.6110000000002 520.9630000000003 335.7370000000002 C 518.1000000000003 335.2900000000002 514.5400000000003 334.64900000000017 511.5390000000003 333.88700000000017 C 512.7610000000003 333.5880000000002 514.9860000000003 333.9780000000002 516.3150000000003 333.86600000000016 C 517.9140000000003 334.3720000000001 521.1870000000002 334.76600000000013 523.7360000000003 335.08800000000014 C 524.2930000000003 335.03200000000015 524.6630000000004 334.1250000000001 525.9370000000004 334.49800000000016 C 526.5640000000003 335.1100000000002 527.3680000000004 334.45000000000016 528.4280000000003 334.88100000000014 C 527.2220000000003 335.2350000000001 526.0360000000003 335.10700000000014 524.8090000000003 335.09700000000015 C 525.0320000000003 335.82600000000014 527.8020000000004 335.54000000000013 528.7750000000003 335.73000000000013 C 529.2260000000003 335.49100000000016 531.5970000000003 335.68800000000016 533.0830000000003 335.4590000000001 C 532.6650000000003 335.92700000000013 533.3120000000004 335.9660000000001 534.0590000000003 336.0390000000001 C 534.2080000000003 335.9870000000001 534.3710000000003 335.9350000000001 534.5380000000004 335.8810000000001 C 534.3780000000004 335.9360000000001 534.2220000000003 335.9880000000001 534.0740000000003 336.0400000000001 C 534.4630000000003 336.0780000000001 534.8760000000003 336.1260000000001 535.1780000000003 336.25000000000006 C 536.1810000000004 336.31600000000003 536.8200000000004 336.0210000000001 536.4070000000004 335.77900000000005 C 536.4750000000004 335.61000000000007 536.3150000000004 335.4990000000001 536.0490000000004 335.41600000000005 C 536.3600000000005 335.32400000000007 536.6760000000004 335.2300000000001 536.9900000000005 335.13900000000007 C 537.1830000000004 335.1670000000001 537.3750000000005 335.20200000000006 537.5690000000004 335.2270000000001 C 537.3790000000004 335.1760000000001 537.2340000000004 335.1380000000001 537.1090000000004 335.1050000000001 C 539.1530000000004 334.51000000000005 541.0700000000004 333.97100000000006 540.5760000000004 333.9680000000001 C 540.2570000000004 333.9030000000001 540.2340000000004 333.79300000000006 540.3020000000004 333.67100000000005 C 540.4360000000004 333.62100000000004 540.5030000000004 333.55400000000003 540.4690000000004 333.45500000000004 C 540.6140000000004 333.28700000000003 540.7150000000004 333.13100000000003 540.2670000000004 333.07200000000006 L 539.8580000000004 333.2730000000001 C 539.8070000000004 333.2710000000001 539.7670000000004 333.2670000000001 539.7190000000004 333.26400000000007 C 540.4240000000004 333.00700000000006 541.1190000000004 332.76500000000004 541.8020000000004 332.5640000000001 C 541.4520000000003 332.1620000000001 541.3800000000003 331.7650000000001 540.5690000000004 331.22100000000006 L 541.5460000000004 331.46400000000006 C 542.3870000000004 330.24700000000007 544.4140000000004 330.22900000000004 545.3440000000004 329.6770000000001 C 545.1640000000004 330.31200000000007 545.9180000000003 330.4030000000001 546.5840000000004 330.4680000000001 L 546.3050000000004 330.06700000000006 C 548.8250000000004 330.2130000000001 551.7210000000005 329.5950000000001 553.9560000000004 329.55300000000005 C 554.2680000000004 329.53600000000006 554.5140000000004 329.75900000000007 554.6640000000003 329.96600000000007 L 556.7830000000004 329.3760000000001 C 556.6600000000003 330.2220000000001 558.5990000000004 330.0220000000001 557.6030000000004 330.59800000000007 C 559.1560000000004 329.52700000000004 560.8200000000004 330.0540000000001 562.2890000000004 328.94700000000006 C 567.7390000000005 328.5300000000001 573.4890000000005 327.58600000000007 579.0390000000004 325.90000000000003 L 578.8870000000004 325.595 C 580.8250000000004 324.949 582.4840000000004 323.218 584.9040000000005 323.65200000000004 C 586.5630000000004 322.44700000000006 588.9740000000005 321.77400000000006 589.5920000000004 320.004 C 591.5640000000004 319.69100000000003 592.3230000000004 318.785 594.2590000000005 318.262 C 593.7300000000005 317.414 596.1170000000004 317.151 595.1410000000004 316.512 C 593.8070000000005 315.352 593.7680000000004 316.383 592.6350000000004 315.448 L 592.6770000000005 315.73699999999997 C 588.9140000000004 314.91999999999996 585.1600000000004 314.43499999999995 581.3960000000005 314.17299999999994 C 582.2480000000005 314.018 583.1480000000005 313.94399999999996 584.1300000000006 314.01899999999995 C 586.7230000000005 312.77299999999997 590.4450000000006 311.71599999999995 591.3230000000005 309.88499999999993 C 594.3510000000006 309.32399999999996 595.4710000000006 308.3229999999999 598.3970000000005 307.5609999999999 C 597.5230000000005 306.7919999999999 601.1650000000005 306.20699999999994 599.6120000000005 305.7079999999999 C 597.5000000000006 304.7139999999999 597.5150000000006 305.7469999999999 595.7360000000006 304.9529999999999 L 595.8180000000006 305.23599999999993 C 591.8520000000005 304.9669999999999 587.9440000000005 304.9749999999999 584.0040000000006 304.8419999999999 C 580.0650000000006 304.7079999999999 576.1360000000005 304.71899999999994 572.1840000000005 304.76199999999994 C 569.5660000000005 305.2289999999999 566.8130000000006 305.36699999999996 564.0330000000006 305.44399999999996 C 561.2560000000005 305.53599999999994 558.4480000000005 305.53799999999995 555.6920000000006 305.655 C 553.2750000000005 305.811 550.7860000000006 306.02099999999996 548.3270000000006 306.25699999999995 C 549.5130000000006 305.94199999999995 550.4660000000006 305.58399999999995 551.0490000000005 305.15899999999993 C 558.0450000000005 304.8929999999999 560.8350000000005 304.00499999999994 567.6990000000005 303.52599999999995 C 565.9280000000006 302.66499999999996 574.3640000000005 302.46199999999993 570.9880000000005 301.799 C 566.4340000000005 300.606 566.1840000000005 301.637 562.3190000000005 300.674 L 562.4340000000005 300.965 C 558.3280000000005 300.68399999999997 554.2180000000005 300.44 550.1070000000005 300.215 C 554.0980000000005 299.361 561.7600000000006 297.756 562.7960000000005 297.46099999999996 L 563.4250000000005 297.57599999999996 C 565.2790000000006 297.501 566.0550000000005 296.87999999999994 564.9700000000005 296.76399999999995 L 567.2570000000005 296.74499999999995 L 566.4870000000005 297.042 L 569.2680000000005 296.791 C 569.6900000000005 296.851 570.1740000000004 297.212 569.5380000000005 297.585 C 570.8170000000005 297.269 572.2620000000005 297.075 573.5540000000004 297.185 C 569.9570000000004 296.785 565.4880000000004 296.205 561.7190000000004 295.494 C 563.2500000000003 295.17400000000004 566.0440000000004 295.526 567.7110000000004 295.39200000000005 C 569.7190000000004 295.87100000000004 573.8310000000004 296.208 577.0290000000003 296.48800000000006 C 577.7270000000003 296.4220000000001 578.1870000000004 295.50900000000007 579.7880000000004 295.86100000000005 C 580.5790000000004 296.463 581.5830000000003 295.78900000000004 582.9160000000004 296.20200000000006 C 581.4050000000004 296.5760000000001 579.9170000000004 296.4680000000001 578.3770000000004 296.47800000000007 C 578.6600000000004 297.20400000000006 582.1360000000004 296.87200000000007 583.3570000000004 297.04400000000004 C 583.9210000000004 296.79800000000006 586.8980000000005 296.95400000000006 588.7590000000005 296.69800000000004 C 588.2380000000005 297.175 589.0520000000005 297.20200000000006 589.9880000000005 297.26200000000006 M 594.639 293.613 C 595.361 293.609 595.176 293.816 594.554 294.115 C 594.391 293.925 594.405 293.735 594.639 293.613 z M 590.35 295.679 C 590.157 295.74499999999995 589.976 295.808 589.8100000000001 295.866 C 590.513 296.12199999999996 592.6830000000001 295.955 593.9060000000001 295.889 C 593.9110000000001 295.593 593.465 295.567 593.494 295.43 C 593.883 295.30400000000003 594.428 295.208 594.971 295.121 C 595.148 295.102 595.322 295.082 595.492 295.06 L 595.819 295.107 C 596.194 295.02900000000005 596.6129999999999 294.982 596.9889999999999 294.93600000000004 C 597.271 294.94500000000005 597.5229999999999 294.98600000000005 597.733 295.086 C 597.458 295.208 596.848 295.153 596.4159999999999 295.153 C 597.362 295.148 594.867 295.88 592.387 296.588 C 591.319 296.374 589.1379999999999 296.418 589.3249999999999 296.036 C 589.1859999999999 296.086 589.074 296.128 588.992 296.162 L 588.217 296.024 C 588.677 295.887 589.498 295.75 590.35 295.679 z M 75.044 277.309 C 75.212 277.233 75.369 277.161 75.514 277.09400000000005 C 74.865 276.87700000000007 72.923 277.16300000000007 71.829 277.2950000000001 C 71.85 277.5900000000001 72.253 277.5920000000001 72.238 277.73100000000005 C 71.899 277.87700000000007 71.419 278.00200000000007 70.938 278.11800000000005 C 70.78 278.14700000000005 70.62400000000001 278.17800000000005 70.471 278.208 L 70.175 278.17900000000003 C 69.844 278.278 69.471 278.34700000000004 69.137 278.41400000000004 C 68.884 278.42100000000005 68.655 278.39300000000003 68.458 278.30500000000006 C 68.693 278.16900000000004 69.246 278.19000000000005 69.635 278.1650000000001 C 68.78 278.2220000000001 70.965 277.35600000000005 73.14200000000001 276.5150000000001 C 74.12100000000001 276.6700000000001 76.07900000000001 276.5050000000001 75.93400000000001 276.8980000000001 C 76.05600000000001 276.83900000000006 76.15400000000001 276.7920000000001 76.22400000000002 276.7530000000001 L 76.93300000000002 276.8470000000001 C 76.529 277.01 75.803 277.191 75.044 277.309 z M 92.188 274.498 C 92.3 274.452 92.404 274.409 92.5 274.36899999999997 C 92.174 274.046 91.013 273.98999999999995 90.364 273.931 C 90.315 274.221 90.545 274.293 90.509 274.426 C 90.286 274.51 89.988 274.549 89.691 274.58 C 89.596 274.58 89.501 274.58299999999997 89.408 274.587 L 89.245 274.507 C 89.037 274.546 88.81 274.55 88.607 274.557 C 88.461 274.52000000000004 88.336 274.45300000000003 88.242 274.333 C 88.403 274.24 88.71300000000001 274.357 88.93900000000001 274.40000000000003 C 88.44500000000001 274.30800000000005 89.86300000000001 273.83900000000006 91.268 273.39200000000005 C 91.791 273.71200000000005 92.937 273.89000000000004 92.781 274.24700000000007 C 92.86200000000001 274.21200000000005 92.926 274.1810000000001 92.973 274.15600000000006 L 93.359 274.37200000000007 C 93.096 274.463 92.645 274.515 92.188 274.498 z M 43.402 294.286 C 43.579 294.227 43.743 294.173 43.894 294.122 C 43.277 293.838 41.329 293.915 40.233999999999995 293.93 C 40.215999999999994 294.225 40.614999999999995 294.27 40.58299999999999 294.407 C 40.230999999999995 294.515 39.74399999999999 294.589 39.25599999999999 294.65299999999996 C 39.09499999999999 294.66499999999996 38.93599999999999 294.67799999999994 38.77799999999999 294.693 L 38.49099999999999 294.631 C 38.151999999999994 294.69399999999996 37.77499999999999 294.724 37.43599999999999 294.75399999999996 C 37.184999999999995 294.734 36.96099999999999 294.68199999999996 36.77799999999999 294.573 C 37.029999999999994 294.46299999999997 37.57199999999999 294.543 37.95899999999999 294.56 C 37.11299999999999 294.525 39.37699999999999 293.897 41.624999999999986 293.29200000000003 C 42.56899999999999 293.55 44.52099999999999 293.595 44.33499999999999 293.97 C 44.46199999999999 293.925 44.563999999999986 293.88800000000003 44.63899999999999 293.858 L 45.32699999999999 294.027 C 44.907 294.146 44.167 294.25 43.402 294.286 z M 43.74 322.092 C 43.903 322.029 44.053000000000004 321.969 44.194 321.912 C 43.607 321.64799999999997 41.785000000000004 321.791 40.758 321.84299999999996 C 40.752 322.138 41.127 322.16999999999996 41.102000000000004 322.30699999999996 C 40.774 322.42799999999994 40.31400000000001 322.518 39.855000000000004 322.59999999999997 C 39.709 322.616 39.565000000000005 322.63399999999996 39.42400000000001 322.65399999999994 L 39.150000000000006 322.6019999999999 C 38.83500000000001 322.67599999999993 38.482000000000006 322.71899999999994 38.16700000000001 322.75999999999993 C 37.93100000000001 322.74799999999993 37.720000000000006 322.7029999999999 37.54500000000001 322.6019999999999 C 37.775000000000006 322.4829999999999 38.287000000000006 322.5449999999999 38.650000000000006 322.5489999999999 C 37.857000000000006 322.54299999999995 39.95400000000001 321.83899999999994 42.038000000000004 321.1599999999999 C 42.934000000000005 321.3869999999999 44.765 321.3649999999999 44.601000000000006 321.7469999999999 C 44.718 321.6979999999999 44.81300000000001 321.6559999999999 44.882000000000005 321.6239999999999 L 45.531000000000006 321.7699999999999 C 45.144 321.903 44.455 322.031 43.74 322.092 z M 89.962 328.975 C 89.96000000000001 328.90900000000005 89.901 328.81100000000004 90.25200000000001 328.81300000000005 L 90.51100000000001 328.91 C 90.327 328.931 90.143 328.952 89.962 328.975 z M 535.972 335.396 C 535.1229999999999 335.16700000000003 533.384 335.182 533.536 334.802 C 533.425 334.851 533.3349999999999 334.892 533.2689999999999 334.92400000000004 L 532.6519999999999 334.776 C 532.8259999999999 334.714 533.0709999999999 334.654 533.3439999999999 334.599 C 533.462 334.613 533.573 334.628 533.689 334.642 C 533.608 334.703 533.553 334.755 533.536 334.802 C 533.631 334.761 533.7379999999999 334.71500000000003 533.8589999999999 334.663 C 533.9169999999999 334.671 533.973 334.67900000000003 534.03 334.685 C 534.216 334.743 534.471 334.774 534.768 334.788 C 535.227 334.854 535.653 334.92400000000004 536.0070000000001 334.995 C 536.2700000000001 335.04 536.532 335.073 536.7950000000001 335.112 C 536.525 335.207 536.249 335.302 535.972 335.396 z M 540.24 333.967 C 540.021 334.084 539.5360000000001 334.022 539.19 334.01599999999996 C 539.82 334.02299999999997 538.5340000000001 334.51099999999997 536.94 335.06499999999994 C 536.62 334.97999999999996 536.421 334.92699999999996 535.8770000000001 334.78399999999993 C 536.354 334.76499999999993 536.8240000000001 334.73499999999996 537.1880000000001 334.71799999999996 C 537.1920000000001 334.49899999999997 536.998 334.42499999999995 536.9040000000001 334.347 C 537.1830000000001 334.238 537.4620000000001 334.13 537.7340000000002 334.02299999999997 C 537.8350000000002 334.003 537.9360000000001 333.984 538.0380000000001 333.96399999999994 C 538.1800000000002 333.9479999999999 538.3190000000001 333.92999999999995 538.4570000000001 333.90999999999997 L 538.7160000000001 333.962 C 539.0150000000001 333.889 539.3490000000002 333.848 539.6490000000001 333.807 C 539.872 333.818 540.073 333.863 540.24 333.967 z" stroke-linecap="round" />
</g>
</svg>