<?xml version="1.0" encoding="UTF-8" standalone="no" ?>
<!DOCTYPE svg PUBLIC "-//W3C//DTD SVG 1.1//EN" "http://www.w3.org/Graphics/SVG/1.1/DTD/svg11.dtd">
<svg xmlns="http://www.w3.org/2000/svg" xmlns:xlink="http://www.w3.org/1999/xlink" version="1.1" width="210" height="210" viewBox="0 0 210 210" xml:space="preserve">
<desc>Created with Fabric.js 4.6.0</desc>
<defs>
</defs>
<g transform="matrix(0.35 0 0 0.35 104.99 105)" id="O6tQ7emAMm40n1F86NJnf"  >
<path style="stroke: none; stroke-width: 1; stroke-dasharray: none; stroke-linecap: butt; stroke-dashoffset: 0; stroke-linejoin: miter; stroke-miterlimit: 4; fill: rgb(255,255,255); fill-rule: nonzero; opacity: 1;" vector-effect="non-scaling-stroke"  transform=" translate(-300, -301.7)" d="M 595.431 300.499 L 600 294.25300000000004 C 599.095 288.25300000000004 598.033 286.98800000000006 596.844 286.13700000000006 C 595.673 285.2900000000001 594.421 284.84600000000006 592.9060000000001 280.65000000000003 C 593.1850000000001 279.28000000000003 593.3620000000001 277.72700000000003 593.456 276.047 C 593.557 274.365 593.5690000000001 272.56100000000004 593.4110000000001 270.697 C 593.1540000000001 266.967 592.6350000000001 262.969 592.0450000000001 259.17 C 591.383 255.37900000000002 590.5090000000001 251.80100000000002 589.8650000000001 248.84400000000002 C 589.1830000000001 245.89300000000003 588.7310000000001 243.55800000000002 588.4820000000001 242.30100000000002 C 589.191 240.35700000000003 590.1540000000001 241.294 591.1490000000001 242.92200000000003 C 592.0830000000001 244.55700000000002 592.9990000000001 246.88500000000002 593.7950000000001 247.63900000000004 C 593.316 245.93800000000005 592.831 244.48100000000005 592.3420000000001 243.20000000000005 C 591.8270000000001 241.92300000000006 591.2660000000001 240.82900000000004 590.7370000000001 239.83900000000006 C 589.666 237.86000000000004 588.614 236.31400000000005 587.589 234.66400000000004 C 587.048 233.80000000000004 586.5210000000001 232.90300000000005 585.998 231.90500000000006 C 585.9490000000001 231.62600000000006 585.908 231.34200000000007 585.8580000000001 231.06100000000006 C 582.4960000000001 212.68600000000006 577.4730000000001 194.96700000000007 570.5160000000001 179.20700000000005 C 570.09 178.22200000000004 569.6640000000001 177.23900000000006 569.2400000000001 176.26100000000005 C 568.7770000000002 175.30000000000004 568.3140000000001 174.34200000000004 567.8540000000002 173.38800000000006 C 566.9240000000002 171.48700000000005 566.0190000000001 169.59900000000007 565.0720000000001 167.75100000000006 C 563.0500000000001 164.11200000000005 561.1800000000001 160.50700000000006 559.0040000000001 157.15700000000007 C 554.8980000000001 150.34000000000006 550.2540000000001 144.27300000000008 545.7250000000001 138.75700000000006 C 551.1390000000001 146.81000000000006 556.5830000000001 156.88800000000006 561.2210000000001 168.19600000000005 C 563.5750000000002 173.89900000000006 565.7220000000001 179.90700000000007 567.6480000000001 186.09100000000007 C 563.1770000000001 176.74400000000006 558.3240000000002 167.27200000000008 552.8450000000001 157.95600000000007 C 551.3310000000001 155.40300000000008 549.8130000000001 152.84300000000007 548.2900000000002 150.27800000000008 C 546.7360000000002 147.73400000000007 545.0140000000002 145.2740000000001 543.3790000000002 142.7740000000001 L 540.8910000000002 139.04500000000007 L 539.6400000000002 137.18700000000007 L 538.2950000000002 135.38700000000006 C 536.4940000000001 133.00000000000006 534.6940000000002 130.61600000000007 532.9000000000002 128.23800000000006 C 531.1520000000002 125.83700000000006 529.1660000000002 123.60400000000006 527.2330000000002 121.35900000000005 C 525.2940000000002 119.12000000000005 523.3620000000002 116.89700000000005 521.4100000000002 114.71900000000005 C 519.3300000000002 112.64800000000005 517.2620000000002 110.58600000000006 515.2080000000002 108.53900000000004 C 513.1370000000002 106.51800000000004 511.1150000000002 104.49200000000005 508.8830000000002 102.69300000000004 C 510.8550000000002 105.06600000000005 509.6120000000002 105.16600000000004 509.7120000000002 106.68100000000004 C 507.5890000000002 104.60300000000004 505.38900000000024 102.55800000000004 503.2070000000002 100.47200000000004 C 501.0200000000002 98.39300000000004 498.85300000000024 96.27300000000004 496.4410000000002 94.33000000000004 C 494.0850000000002 92.34900000000005 491.7160000000002 90.35800000000005 489.3400000000002 88.36000000000004 C 488.1470000000002 87.32300000000004 486.9700000000002 86.47700000000005 485.7850000000002 85.56600000000005 L 482.2340000000002 82.88500000000005 C 472.8200000000002 75.83600000000004 463.03600000000023 69.02500000000005 453.0570000000002 62.971000000000046 C 450.59400000000016 61.487000000000045 448.1190000000002 60.048000000000044 445.6400000000002 58.660000000000046 L 452.3140000000002 59.398000000000046 C 452.3140000000002 59.398000000000046 447.80300000000017 56.86700000000005 443.2940000000002 54.33500000000004 C 438.7300000000002 51.902000000000044 434.1660000000002 49.468000000000046 434.1660000000002 49.468000000000046 C 428.13900000000024 47.07700000000005 432.03600000000023 50.246000000000045 437.60000000000025 54.37500000000004 C 432.66500000000025 51.87600000000004 427.72100000000023 49.62300000000004 422.79400000000027 47.694000000000045 C 412.72000000000025 43.72700000000005 402.7960000000003 41.027000000000044 393.5580000000003 40.002000000000045 C 399.2110000000003 42.19500000000004 405.5210000000003 45.514000000000046 412.0120000000003 49.49200000000005 C 418.5110000000003 53.46700000000005 425.1940000000003 58.090000000000046 431.8170000000003 62.75400000000005 C 445.0890000000003 72.07200000000005 458.1020000000003 81.55700000000004 470.2830000000003 85.88600000000005 C 472.8030000000003 90.00600000000006 477.4940000000003 93.28100000000005 481.5540000000003 96.43000000000005 C 485.5390000000003 99.72700000000005 488.9390000000003 102.74400000000006 488.71200000000033 105.73700000000005 C 491.7200000000003 108.94200000000005 494.41800000000035 111.96700000000006 497.1380000000003 114.63500000000005 C 498.5180000000003 115.95100000000005 499.7590000000003 117.31000000000004 500.98800000000034 118.61400000000005 C 502.2220000000003 119.91300000000005 503.44500000000033 121.15500000000004 504.65900000000033 122.35200000000005 C 505.8690000000003 123.55100000000004 507.0800000000003 124.70200000000004 508.27100000000036 125.82900000000005 C 509.39900000000034 127.00900000000006 510.52200000000033 128.15300000000005 511.6450000000004 129.27700000000004 C 513.9270000000004 131.51200000000006 516.1470000000004 133.68600000000004 518.3580000000004 135.85200000000003 C 522.5490000000004 140.38100000000003 527.0740000000004 144.74100000000004 531.1360000000004 150.17200000000003 C 535.4390000000004 155.45600000000002 539.4320000000005 161.69700000000003 543.4570000000004 169.324 C 544.1560000000004 171.799 543.6790000000004 172.704 542.8610000000004 173.30200000000002 C 542.8840000000005 173.294 542.9020000000005 173.276 542.9260000000005 173.27 C 553.1160000000006 186.62400000000002 559.4440000000005 200.751 563.9950000000005 215.371 C 568.5850000000005 230.03 571.6800000000004 245.161 575.0190000000005 261.97700000000003 C 575.7580000000005 266.20900000000006 576.4260000000005 271.23900000000003 576.5210000000004 275.40900000000005 C 576.5190000000005 275.91100000000006 576.5110000000004 276.40000000000003 576.4980000000004 276.874 L 559.2680000000004 238.872 C 557.7530000000004 234.19500000000002 555.8390000000004 229.905 554.0920000000003 225.98100000000002 C 551.1870000000004 219.77400000000003 548.5590000000003 214.49900000000002 547.7540000000004 209.741 C 543.4930000000004 203.352 537.8280000000003 196.262 530.9410000000004 186.71300000000002 C 530.2100000000004 187.235 525.9670000000003 180.62000000000003 525.7010000000004 182.252 C 527.1360000000003 184.668 528.7230000000004 186.845 530.2810000000004 188.955 C 531.8670000000004 191.043 533.5190000000005 192.99200000000002 535.0230000000004 194.96900000000002 C 538.1250000000003 198.853 540.8530000000004 202.71400000000003 542.3760000000003 207.02800000000002 C 545.2310000000003 211.16700000000003 545.1110000000003 209.299 546.6800000000003 211.01800000000003 C 548.9000000000003 214.91700000000003 550.7000000000003 218.76600000000002 550.4510000000002 219.53600000000003 C 547.7880000000002 215.05400000000003 546.9510000000002 214.71400000000003 546.0160000000003 214.03200000000004 C 545.1050000000004 213.33700000000005 543.9990000000003 212.36200000000005 540.7750000000003 206.68800000000005 C 540.8320000000003 207.61700000000005 542.2230000000003 210.33800000000005 543.8660000000003 213.35200000000003 C 545.4230000000003 216.41300000000004 547.2220000000003 219.77600000000004 548.1430000000004 221.94000000000003 C 547.1550000000003 220.89200000000002 547.2930000000003 222.39500000000004 548.2510000000003 225.29400000000004 C 548.0750000000003 225.07300000000004 547.8860000000003 224.81900000000005 547.6900000000003 224.55200000000005 C 538.4030000000002 205.09600000000006 526.1120000000003 187.17600000000004 512.3410000000002 171.14300000000006 C 512.7300000000002 171.41400000000004 512.9700000000003 171.58300000000006 512.9700000000003 171.58300000000006 C 512.9700000000003 171.58300000000006 512.6580000000002 171.25900000000004 512.1890000000003 170.77600000000007 C 511.8160000000003 170.38500000000008 511.3360000000003 169.89100000000008 510.8260000000003 169.38900000000007 C 510.1860000000003 168.65700000000007 509.5450000000003 167.92600000000007 508.8990000000003 167.20100000000008 C 511.54400000000027 168.85700000000008 512.8810000000003 168.48800000000008 517.1540000000003 172.33100000000007 C 513.9790000000004 168.47600000000008 510.13700000000034 163.79500000000007 506.38000000000034 159.63700000000009 C 504.5130000000003 157.54700000000008 502.6980000000003 155.5610000000001 501.00400000000036 153.8760000000001 C 499.32200000000034 152.1760000000001 497.8470000000004 150.69600000000008 496.60600000000034 149.6740000000001 C 495.3280000000003 147.41000000000008 495.0130000000003 146.1260000000001 496.32600000000036 146.36300000000008 C 488.0870000000004 140.4430000000001 485.30900000000037 135.1790000000001 478.6040000000004 129.5840000000001 C 474.7740000000004 126.9780000000001 476.4160000000004 128.6400000000001 478.2240000000004 130.5660000000001 C 480.04000000000036 132.4900000000001 482.0600000000004 134.6280000000001 479.1520000000004 132.8960000000001 C 477.59500000000037 130.9070000000001 474.0970000000004 128.4780000000001 471.86700000000036 126.9940000000001 C 474.8010000000004 129.0800000000001 481.10600000000034 134.9980000000001 485.38100000000037 139.3390000000001 C 481.63400000000036 136.00800000000012 481.3560000000004 137.1880000000001 480.01900000000035 136.6190000000001 C 480.01900000000035 136.6190000000001 481.54700000000037 138.0290000000001 483.07600000000036 139.4400000000001 C 484.59600000000034 140.85800000000012 486.1160000000004 142.27500000000012 486.1160000000004 142.27500000000012 C 484.84500000000037 142.88400000000013 478.3830000000004 135.60200000000012 474.9520000000004 133.69200000000012 C 477.5940000000004 134.3510000000001 476.5740000000004 133.44900000000013 479.2310000000004 134.1250000000001 C 473.4320000000004 129.7960000000001 464.9120000000004 123.16600000000011 460.3280000000004 119.02900000000011 C 457.6850000000004 116.50200000000011 463.1400000000004 120.34200000000011 464.92500000000035 121.23200000000011 C 464.04800000000034 119.59900000000012 458.81200000000035 117.32400000000011 458.22000000000037 115.73800000000011 C 459.57900000000035 115.75000000000011 461.8880000000004 118.28100000000012 464.06000000000034 119.59000000000012 C 464.06000000000034 119.59000000000012 459.85100000000034 116.34400000000012 455.51100000000037 113.26400000000012 C 453.35800000000035 111.70100000000012 451.1400000000004 110.22500000000012 449.50400000000036 109.07900000000012 C 447.84100000000035 107.97100000000012 446.73300000000035 107.23200000000013 446.73300000000035 107.23200000000013 C 447.00600000000037 106.80200000000012 451.55200000000036 109.58600000000013 454.2340000000003 111.61900000000013 C 449.1770000000003 107.56600000000013 444.99500000000035 105.16800000000013 437.67100000000033 102.71700000000013 C 434.6400000000003 100.68200000000013 431.3740000000003 98.49000000000012 429.12200000000036 96.97900000000013 C 426.88900000000035 95.42700000000012 425.7390000000004 94.41900000000012 427.0030000000003 94.69000000000013 C 423.89200000000034 93.37400000000012 425.6770000000003 94.82500000000013 425.47400000000033 95.26400000000012 C 424.40400000000034 94.66000000000012 423.4410000000003 94.14700000000012 422.5640000000003 93.70800000000013 C 421.6730000000003 93.29000000000012 420.8620000000003 92.96000000000012 420.1260000000003 92.67000000000013 C 418.64900000000034 92.09800000000013 417.44700000000034 91.73100000000014 416.3550000000003 91.42700000000013 C 414.1650000000003 90.82700000000014 412.4440000000003 90.42600000000013 409.7270000000003 89.31100000000013 C 409.7270000000003 89.31100000000013 410.6580000000003 89.95600000000013 411.5860000000003 90.59900000000013 C 412.5130000000003 91.24500000000013 413.4080000000003 91.94500000000014 413.4080000000003 91.94600000000013 C 405.1560000000003 87.22300000000013 410.8030000000003 92.39700000000012 403.4460000000003 88.42000000000013 C 405.0500000000003 88.10100000000013 404.96900000000034 86.89800000000012 404.0440000000003 85.40400000000012 C 402.3910000000003 85.76700000000012 397.71400000000034 83.03800000000012 394.2490000000003 81.81900000000013 C 396.0860000000003 83.41300000000012 386.5260000000003 80.13500000000013 391.8220000000003 82.88500000000013 C 389.76300000000026 82.40500000000013 388.0340000000003 81.85200000000013 386.4570000000003 81.38500000000013 C 385.9300000000003 81.23600000000013 385.42900000000026 81.08600000000013 384.9370000000003 80.93700000000014 C 369.8260000000003 74.90300000000013 354.4800000000003 69.52800000000013 348.2490000000003 69.75000000000014 C 334.2490000000003 70.25000000000014 329.4990000000003 76.00000000000014 323.9990000000003 76.25000000000014 C 322.4030000000003 76.32300000000014 320.65900000000033 76.54300000000015 318.9150000000003 76.77600000000014 C 317.9420000000003 74.50600000000014 317.0310000000003 72.01700000000014 315.6270000000003 69.97100000000015 C 316.4690000000003 70.54900000000015 317.3880000000003 71.54000000000015 317.7630000000003 70.86600000000014 C 317.0370000000003 69.61000000000014 316.10100000000034 68.37300000000015 315.03400000000033 67.44600000000014 C 314.7580000000003 67.22700000000015 314.48600000000033 67.01300000000013 314.22300000000035 66.80400000000014 C 313.92800000000034 66.64300000000014 313.64200000000034 66.48800000000014 313.3660000000003 66.33800000000015 C 312.83200000000033 66.01700000000015 312.26200000000034 65.87900000000015 311.80300000000034 65.71300000000015 C 310.21100000000035 65.24400000000016 309.48000000000036 65.30500000000015 310.24800000000033 65.93700000000015 C 309.5470000000003 65.66500000000015 308.78600000000034 65.39700000000015 307.97100000000034 65.13900000000015 C 307.42300000000034 64.93000000000015 306.83300000000037 64.71700000000016 306.2410000000003 64.51800000000016 C 303.8860000000003 63.69800000000016 301.4770000000003 63.03800000000016 301.4750000000003 63.03900000000016 C 301.2810000000003 62.68500000000016 304.7740000000003 63.47700000000016 306.1150000000003 63.924000000000156 C 302.9850000000003 62.738000000000156 297.1370000000003 62.03600000000016 294.0760000000003 61.95400000000016 C 289.0970000000003 61.07000000000016 285.1690000000003 60.55700000000016 285.1690000000003 60.55700000000016 C 285.1690000000003 60.55700000000016 280.6020000000003 60.69200000000016 274.45900000000034 61.00900000000016 C 273.76200000000034 60.94100000000016 273.01200000000034 60.878000000000156 272.18900000000036 60.82200000000016 C 267.94400000000036 61.28200000000016 265.84600000000034 60.90200000000016 263.59300000000036 60.49600000000016 C 261.34300000000036 60.113000000000156 258.94000000000034 59.671000000000156 254.10400000000035 60.32900000000016 C 252.77400000000034 60.91600000000016 251.23800000000034 61.27700000000016 249.53700000000035 61.510000000000154 C 247.81400000000033 61.79500000000015 246.00000000000034 61.87400000000015 243.82800000000034 62.39900000000016 L 243.00100000000035 62.610000000000156 C 242.84900000000036 62.628000000000156 242.55100000000036 62.73100000000016 242.33100000000036 62.790000000000155 C 241.85500000000036 62.931000000000154 241.37400000000036 63.07300000000016 240.88900000000035 63.217000000000155 C 239.89000000000036 63.55400000000016 239.04400000000035 63.67000000000016 238.11600000000035 63.96200000000015 C 236.21700000000035 64.42100000000015 234.25200000000035 64.95400000000015 232.24400000000037 65.55300000000015 C 233.30100000000036 65.12900000000015 233.20100000000036 64.92500000000015 232.59700000000038 64.87200000000016 C 232.29400000000038 64.83900000000015 231.87000000000037 64.81200000000015 231.39200000000037 64.80900000000015 C 231.16300000000035 64.79700000000015 230.92100000000036 64.78700000000015 230.67600000000036 64.77600000000015 L 230.53100000000035 64.76200000000016 L 230.49600000000035 64.75900000000016 L 230.47800000000035 64.75800000000015 L 230.26200000000034 64.76400000000015 L 230.15700000000035 64.76200000000016 L 229.73200000000034 64.75600000000016 C 227.48400000000035 64.72500000000015 225.61200000000034 64.65400000000015 229.39800000000034 63.732000000000156 C 227.57800000000034 63.370000000000154 222.93200000000033 63.94100000000016 217.87200000000033 64.51800000000016 C 217.17800000000034 64.59300000000016 216.47600000000034 64.66900000000015 215.77300000000034 64.74700000000016 L 214.52500000000035 64.88200000000016 L 213.33500000000035 65.28800000000017 C 212.02300000000034 65.76800000000017 210.72600000000034 66.24500000000016 209.48100000000034 66.70000000000017 C 207.10400000000033 67.58300000000017 204.91700000000034 68.38800000000018 203.12700000000032 68.89400000000018 C 204.10500000000033 68.16700000000017 203.7260000000003 68.00400000000018 205.26900000000032 67.18900000000018 C 202.98000000000033 68.33700000000017 201.42600000000033 69.12900000000018 200.24800000000033 69.68700000000018 C 199.65900000000033 69.97400000000019 199.16700000000034 70.18100000000018 198.72700000000034 70.37200000000018 C 198.19900000000035 70.59700000000018 197.74900000000034 70.78700000000019 197.32400000000035 70.96800000000019 C 196.45200000000034 71.33900000000018 195.64600000000036 71.66100000000019 194.57800000000034 72.32000000000019 C 193.55400000000034 73.01000000000019 192.11600000000035 73.95700000000019 190.75700000000035 76.11100000000019 L 192.04300000000035 76.43700000000018 C 191.60400000000035 77.23900000000019 191.36200000000034 77.96100000000018 191.13500000000036 78.57300000000018 C 190.96600000000035 79.19700000000017 190.81900000000036 79.74200000000017 190.67400000000035 80.27700000000017 C 190.37100000000035 81.33800000000016 190.09700000000035 82.66200000000018 189.97700000000034 83.49000000000017 C 190.04200000000034 83.29600000000016 190.11700000000033 83.07600000000016 190.19600000000034 82.84200000000017 C 190.27900000000034 82.64600000000017 190.36600000000033 82.17800000000017 190.46000000000035 81.85200000000017 C 190.63900000000035 81.04600000000018 190.85500000000036 80.22300000000017 191.06400000000036 79.64100000000018 C 191.27400000000037 79.04700000000018 191.48500000000035 78.64100000000018 191.66800000000038 78.56500000000018 C 191.84400000000036 78.48800000000018 191.85600000000036 78.71900000000018 191.86900000000037 79.42600000000019 C 191.78700000000038 80.43000000000019 191.75600000000037 81.50600000000018 191.70600000000036 82.41900000000018 C 191.68400000000037 82.90300000000018 191.65000000000035 83.23600000000017 191.61800000000036 83.57100000000018 L 191.47900000000035 84.61500000000018 C 191.25100000000035 86.02200000000018 190.89800000000037 87.48300000000017 190.28500000000037 89.04300000000018 C 189.83900000000037 88.90600000000018 190.44500000000036 86.65900000000018 190.70000000000036 85.14900000000017 C 190.70000000000036 85.14900000000017 190.19800000000035 86.84200000000017 189.43100000000035 88.52200000000018 C 189.29400000000035 88.83100000000017 189.14900000000034 89.13000000000018 189.00100000000035 89.42200000000018 C 188.99300000000034 89.40100000000018 188.98800000000034 89.37800000000018 188.98100000000034 89.35400000000018 C 188.84400000000034 88.87000000000019 188.69400000000033 88.42400000000018 188.53400000000033 88.00700000000019 C 188.89500000000032 86.67100000000019 189.14100000000033 85.3440000000002 189.06000000000034 84.24200000000019 C 188.67200000000034 85.44500000000019 188.33600000000035 86.30500000000019 188.07100000000034 86.91500000000019 C 187.75200000000035 86.2340000000002 187.41900000000035 85.6390000000002 187.10600000000034 85.0920000000002 C 186.44100000000034 83.9960000000002 185.87500000000034 83.2370000000002 185.18700000000032 82.45700000000019 C 184.80400000000031 82.0860000000002 184.41300000000032 81.68600000000019 183.7200000000003 81.3530000000002 C 183.0240000000003 81.05200000000019 182.25200000000032 80.88800000000019 181.5290000000003 80.8800000000002 C 180.05500000000032 80.8530000000002 178.59000000000032 81.0480000000002 176.9560000000003 81.51900000000019 C 176.5020000000003 81.64100000000019 176.0360000000003 81.79000000000019 175.5610000000003 81.95400000000019 C 172.62500000000028 80.9340000000002 168.2930000000003 80.88200000000019 162.50000000000028 84.5020000000002 C 158.2580000000003 87.15300000000019 153.7690000000003 91.21200000000019 149.7110000000003 95.65900000000019 C 149.7030000000003 95.6600000000002 149.6950000000003 95.66100000000019 149.6870000000003 95.6630000000002 C 149.2650000000003 95.7580000000002 148.7600000000003 95.9220000000002 147.8320000000003 96.53700000000019 C 147.3680000000003 96.84000000000019 146.79800000000031 97.26800000000019 146.06700000000032 97.8920000000002 C 145.33600000000033 98.53100000000019 144.45000000000033 99.33400000000019 143.27500000000032 100.7160000000002 C 144.24100000000033 100.20400000000019 144.0520000000003 100.60500000000019 143.1770000000003 101.83100000000019 C 142.7460000000003 102.47300000000018 142.0810000000003 103.31900000000019 141.29200000000031 105.06000000000019 C 141.07400000000032 105.5970000000002 140.8790000000003 106.14600000000019 140.7120000000003 106.75400000000019 C 140.6630000000003 106.9690000000002 140.6350000000003 107.19700000000019 140.5970000000003 107.42000000000019 C 139.3830000000003 109.31600000000019 138.36200000000028 111.11900000000018 137.5930000000003 112.74600000000018 C 137.3380000000003 112.95100000000018 137.07200000000032 113.16300000000018 136.8050000000003 113.37700000000018 C 135.41600000000028 114.45800000000018 134.0280000000003 115.53900000000019 134.0280000000003 115.53900000000019 C 132.0690000000003 118.17800000000018 132.84000000000032 118.39400000000019 133.0370000000003 119.04300000000019 C 133.13000000000028 119.38200000000019 133.07100000000028 119.82300000000019 132.4260000000003 120.8480000000002 C 132.1120000000003 121.3360000000002 131.6210000000003 122.0450000000002 130.9890000000003 122.8770000000002 C 130.7990000000003 123.0980000000002 130.6260000000003 123.3390000000002 130.3550000000003 123.6450000000002 C 129.9850000000003 123.9730000000002 129.6460000000003 124.3300000000002 129.1250000000003 124.74200000000019 C 128.1290000000003 125.42300000000019 127.29700000000031 125.8920000000002 126.64600000000031 126.19300000000018 C 126.02000000000031 126.49600000000018 125.56800000000031 126.63100000000018 125.27400000000031 126.64800000000018 C 124.69000000000031 126.68300000000018 124.72400000000032 126.25000000000018 124.86500000000031 125.73800000000018 C 125.01800000000031 125.22300000000018 125.2280000000003 124.63400000000019 125.0840000000003 124.34200000000018 C 124.9380000000003 124.04700000000018 124.4660000000003 124.03900000000019 123.0540000000003 124.70800000000018 C 123.0540000000003 124.70800000000018 122.6580000000003 125.24400000000018 122.2080000000003 125.79100000000018 C 121.7650000000003 126.34000000000019 121.32000000000029 126.88800000000018 121.32000000000029 126.88800000000018 L 116.32200000000029 129.30800000000016 L 117.0020000000003 128.78700000000018 C 115.66500000000029 129.81200000000018 113.6340000000003 131.11300000000017 111.8840000000003 132.20100000000016 C 110.1450000000003 133.24400000000017 108.6800000000003 134.11100000000016 108.5350000000003 133.90400000000017 C 108.6660000000003 133.58600000000015 109.5380000000003 132.84100000000018 110.4020000000003 132.13300000000018 C 111.2620000000003 131.44200000000018 112.1230000000003 130.75100000000018 112.2500000000003 130.44200000000018 C 110.0690000000003 132.40700000000018 104.8780000000003 135.07900000000018 99.6150000000003 139.6880000000002 C 98.96300000000029 140.3250000000002 98.31100000000029 140.9620000000002 97.6630000000003 141.5950000000002 C 97.02200000000029 142.2300000000002 96.39100000000029 143.0510000000002 95.7860000000003 143.7780000000002 C 95.0970000000003 144.62200000000018 94.7850000000003 145.07400000000018 94.4080000000003 145.6010000000002 C 94.0370000000003 146.1230000000002 93.6830000000003 146.6390000000002 93.3510000000003 147.1450000000002 C 92.4700000000003 148.5300000000002 89.8970000000003 152.67700000000022 89.1550000000003 154.8040000000002 C 88.1170000000003 156.0760000000002 86.8230000000003 157.7740000000002 85.4950000000003 159.53300000000021 C 86.0650000000003 161.1320000000002 86.6610000000003 162.77900000000022 87.1820000000003 164.26200000000023 C 85.0030000000003 165.33300000000023 83.1700000000003 166.56000000000023 82.0170000000003 167.56500000000023 C 82.22700000000029 167.18300000000022 81.0950000000003 167.70400000000024 79.4730000000003 168.75000000000023 C 78.6840000000003 169.30800000000022 77.7950000000003 170.03800000000024 76.8990000000003 170.82500000000022 C 76.0280000000003 171.64800000000022 75.2010000000003 172.6040000000002 74.4620000000003 173.51800000000023 C 76.7390000000003 171.32500000000022 77.2940000000003 171.08800000000022 76.9520000000003 171.76400000000024 C 76.78400000000029 172.10800000000023 76.4010000000003 172.68800000000024 75.92100000000029 173.39900000000023 C 75.68300000000029 173.75500000000022 75.42100000000029 174.14300000000023 75.14600000000029 174.55200000000022 C 74.90200000000029 174.98300000000023 74.64600000000029 175.43400000000022 74.38800000000029 175.89100000000022 C 73.91500000000029 176.37000000000023 73.33000000000028 176.9660000000002 72.77100000000029 177.71400000000023 C 72.23000000000029 178.47400000000022 71.65000000000029 179.34600000000023 71.05700000000029 180.28700000000023 C 69.9840000000003 182.14400000000023 68.84300000000029 184.74700000000024 68.29600000000029 185.88600000000022 C 67.61600000000028 187.33900000000023 66.9490000000003 188.72700000000023 66.34300000000029 189.8060000000002 C 65.70800000000028 190.9060000000002 65.08600000000028 191.7290000000002 64.6270000000003 191.9580000000002 C 62.767000000000294 197.6360000000002 64.5200000000003 196.0620000000002 64.8090000000003 197.6480000000002 C 63.642000000000294 199.2250000000002 61.7500000000003 202.8670000000002 60.117000000000296 205.76500000000019 C 58.4910000000003 208.70300000000017 57.11200000000029 210.93700000000018 56.898000000000295 209.6130000000002 C 58.4610000000003 206.5650000000002 61.916000000000295 199.9710000000002 60.40800000000029 200.8150000000002 C 57.20700000000029 206.3490000000002 59.596000000000295 203.4440000000002 57.52200000000029 208.3330000000002 C 57.44200000000029 207.8590000000002 55.18800000000029 211.2400000000002 55.21900000000029 210.1330000000002 C 54.64400000000029 211.6020000000002 53.87800000000029 213.31300000000022 53.03300000000029 215.20100000000022 C 52.200000000000294 217.1030000000002 51.25400000000029 219.1400000000002 50.245000000000296 221.17800000000022 C 53.6530000000003 214.93400000000022 49.4180000000003 225.74400000000023 51.6410000000003 222.06700000000023 L 53.3290000000003 215.40100000000024 C 56.626000000000296 207.93200000000024 54.7760000000003 214.17400000000023 56.3930000000003 211.51600000000025 C 54.9570000000003 214.77800000000025 54.1030000000003 217.16600000000025 53.510000000000296 219.06300000000024 C 52.9110000000003 220.95400000000024 52.5740000000003 222.35100000000025 52.260000000000296 223.72700000000023 C 51.590000000000295 226.44900000000024 51.2070000000003 229.22100000000023 49.059000000000296 235.65700000000024 C 47.8690000000003 237.92100000000025 46.12100000000029 242.17500000000024 45.59700000000029 243.51300000000023 C 46.98200000000029 239.15300000000022 45.407000000000295 239.52800000000022 44.328000000000294 241.93000000000023 C 43.986000000000296 243.85300000000024 43.50000000000029 245.61400000000023 42.925000000000296 247.27400000000023 C 42.367000000000296 248.94100000000023 41.84400000000029 250.57100000000023 41.2200000000003 252.11800000000022 C 40.858000000000295 253.07700000000023 40.4690000000003 254.01200000000023 40.0800000000003 254.94000000000023 C 39.352000000000295 253.1930000000002 39.1070000000003 251.51000000000022 39.0940000000003 250.07800000000023 C 39.0610000000003 248.46700000000024 39.2790000000003 247.16500000000022 39.4260000000003 246.40700000000024 C 39.7170000000003 244.90100000000024 39.7480000000003 245.50700000000023 36.9170000000003 250.13800000000023 C 36.4400000000003 256.07800000000026 37.1660000000003 256.54200000000026 37.9440000000003 255.97300000000024 C 38.6320000000003 255.49400000000023 39.467000000000304 254.31700000000023 40.0580000000003 254.99100000000024 C 39.3230000000003 256.7480000000002 38.605000000000295 258.48200000000026 38.0670000000003 260.28200000000027 C 38.6540000000003 258.4260000000003 39.114000000000296 258.0670000000003 39.2750000000003 258.3610000000003 C 39.501000000000296 258.71500000000026 39.4570000000003 259.9730000000003 39.4300000000003 261.0100000000003 C 38.3890000000003 267.6510000000003 38.1580000000003 268.8840000000003 37.7590000000003 269.1950000000003 C 37.3890000000003 269.5040000000003 37.0060000000003 268.8490000000003 36.1860000000003 271.66000000000025 C 34.5940000000003 281.78700000000026 33.4210000000003 289.9690000000003 32.5670000000003 297.72300000000024 C 31.746000000000297 305.47300000000024 31.273000000000298 312.76600000000025 31.819000000000297 320.98500000000024 C 31.819000000000297 320.98500000000024 32.1220000000003 319.04000000000025 32.4240000000003 317.0940000000002 C 32.7660000000003 315.16800000000023 33.108000000000295 313.24200000000025 33.108000000000295 313.24200000000025 L 31.968000000000295 310.64800000000025 C 33.114000000000296 304.67700000000025 34.56100000000029 311.84100000000024 35.3420000000003 315.23000000000025 C 34.855000000000295 316.07400000000024 35.2230000000003 326.06900000000024 34.502000000000294 322.0890000000002 C 34.502000000000294 322.0890000000002 34.54500000000029 322.6980000000002 34.60900000000029 323.61000000000024 C 34.688000000000294 324.5240000000002 34.79500000000029 325.74500000000023 34.89900000000029 326.96500000000026 C 34.992000000000296 328.17900000000026 35.13800000000029 329.41300000000024 35.24600000000029 330.33800000000025 C 35.352000000000295 331.2600000000003 35.42400000000029 331.87700000000024 35.42400000000029 331.87700000000024 C 35.64300000000029 331.1250000000002 35.578000000000294 329.15300000000025 35.60800000000029 327.95900000000023 C 35.65000000000029 326.76800000000026 35.710000000000285 326.32600000000025 36.079000000000285 328.5890000000002 C 35.780000000000285 331.75400000000025 36.622000000000284 342.1740000000002 35.26600000000028 335.7360000000002 C 35.31500000000028 336.21800000000025 35.36700000000028 336.72100000000023 35.41800000000028 337.2220000000002 C 35.20300000000028 336.6870000000002 34.988000000000284 336.1340000000002 34.774000000000285 335.5560000000002 C 34.04000000000028 333.5050000000002 33.19900000000028 331.21600000000024 32.68100000000028 328.6960000000002 C 32.09600000000028 326.1890000000002 31.52400000000028 323.5130000000002 30.95700000000028 320.7590000000002 C 30.68900000000028 319.38000000000017 30.353000000000282 317.9920000000002 30.14500000000028 316.5790000000002 C 29.95400000000028 315.1630000000002 29.76100000000028 313.7390000000002 29.57000000000028 312.31800000000015 C 29.16800000000028 309.47900000000016 28.76700000000028 306.65300000000013 28.382000000000282 303.92400000000015 C 28.030000000000282 301.19400000000013 27.86100000000028 298.54600000000016 27.528000000000283 296.09500000000014 C 27.223000000000283 293.64100000000013 26.871000000000283 291.37400000000014 26.453000000000284 289.37400000000014 C 26.089000000000283 287.3720000000001 25.780000000000285 285.63300000000015 25.284000000000283 284.25300000000016 L 26.336000000000283 282.35900000000015 C 26.336000000000283 282.35900000000015 26.109000000000282 280.77100000000013 25.77100000000028 278.39000000000016 C 25.600000000000282 277.19300000000015 25.40200000000028 275.79600000000016 25.18900000000028 274.30100000000016 C 25.05100000000028 272.80100000000016 24.90400000000028 271.20000000000016 24.757000000000282 269.60100000000017 C 24.409000000000283 266.38700000000017 24.307000000000283 263.1700000000002 24.156000000000283 260.7420000000002 C 23.99500000000028 258.3120000000002 24.006000000000284 256.6930000000002 24.006000000000284 256.6930000000002 C 24.427000000000284 253.8060000000002 24.938000000000283 251.92000000000021 25.494000000000284 250.7050000000002 C 26.078000000000284 249.4950000000002 26.651000000000284 248.9490000000002 27.133000000000283 248.7260000000002 C 28.093000000000284 248.2830000000002 28.679000000000283 249.1230000000002 28.211000000000283 248.5840000000002 C 31.284000000000283 223.5120000000002 37.93500000000029 204.3350000000002 45.567000000000284 189.9390000000002 C 44.79700000000028 187.3880000000002 46.808000000000284 179.7810000000002 50.863000000000284 170.6300000000002 C 54.85500000000028 161.46100000000018 60.87300000000028 150.80600000000018 66.88500000000028 141.8040000000002 C 97.45600000000027 99.6110000000002 139.93300000000028 63.60300000000021 188.47200000000026 41.761000000000195 C 200.60600000000028 36.35600000000019 213.06200000000027 31.771000000000193 225.73200000000026 28.225000000000193 C 238.41200000000026 24.740000000000194 251.27400000000026 22.184000000000193 264.15300000000025 20.787000000000194 C 277.03300000000024 19.426000000000194 289.9090000000002 19.137000000000196 302.57200000000023 19.937000000000193 C 313.04700000000025 20.659000000000194 323.3590000000002 22.145000000000195 333.3970000000002 24.313000000000194 C 332.94900000000024 24.804000000000194 332.81000000000023 25.357000000000195 332.8520000000002 25.918000000000195 C 333.0080000000002 27.904000000000195 335.0770000000002 30.246000000000194 333.4440000000002 31.796000000000195 C 333.4440000000002 31.796000000000195 334.3600000000002 31.459000000000195 335.7460000000002 31.071000000000193 C 337.1490000000002 30.671000000000195 339.0230000000002 30.135000000000193 340.8960000000002 29.599000000000192 C 342.80800000000016 29.138000000000194 344.7210000000002 28.67700000000019 346.1560000000002 28.33300000000019 C 346.88300000000015 28.15300000000019 347.48800000000017 28.03300000000019 347.9130000000002 27.95000000000019 C 347.9490000000002 27.94300000000019 347.97600000000017 27.93800000000019 348.0090000000002 27.931000000000193 C 352.1960000000002 28.974000000000192 356.6840000000002 30.069000000000194 361.31300000000016 31.34800000000019 C 361.4660000000002 31.57500000000019 361.75800000000015 31.82700000000019 362.23800000000017 32.11600000000019 C 364.61800000000017 32.892000000000195 366.2590000000002 33.15500000000019 367.32700000000017 33.08300000000019 C 375.47200000000015 35.51700000000019 383.84400000000016 38.499000000000194 391.5210000000002 42.12600000000019 C 389.0550000000002 40.60700000000019 386.8500000000002 39.28400000000019 384.8430000000002 38.11000000000019 C 382.8350000000002 36.938000000000194 380.9560000000002 36.04200000000019 379.25500000000017 35.16900000000019 C 375.85900000000015 33.405000000000186 372.89700000000016 32.26700000000019 369.9830000000002 31.07400000000019 C 369.4580000000002 30.872000000000188 368.9300000000002 30.67000000000019 368.4010000000002 30.46900000000019 C 367.9110000000002 29.76300000000019 367.13500000000016 29.02800000000019 366.2100000000002 28.42200000000019 C 365.9800000000002 28.71400000000019 365.5000000000002 28.95200000000019 364.9270000000002 29.168000000000188 C 360.4190000000002 27.50900000000019 355.2030000000002 25.699000000000186 347.4440000000002 23.138000000000186 C 339.48100000000017 20.03200000000019 334.0680000000002 17.586000000000187 328.8880000000002 15.019000000000187 C 326.28600000000023 13.783000000000186 323.7280000000002 12.599000000000187 320.9180000000002 11.343000000000186 C 318.09400000000016 10.188000000000187 315.0070000000002 9.007000000000186 311.3330000000002 7.9200000000001864 C 311.3330000000002 7.9200000000001864 311.7840000000002 8.163000000000187 312.4620000000002 8.528000000000187 C 313.13200000000023 8.915000000000187 314.0240000000002 9.432000000000187 314.9150000000002 9.949000000000186 C 316.6760000000002 10.980000000000187 318.4390000000002 12.012000000000187 318.4390000000002 12.012000000000187 C 315.4890000000002 11.849000000000187 313.0510000000002 11.607000000000188 310.9740000000002 11.466000000000188 C 308.8950000000002 11.336000000000187 307.1960000000002 11.179000000000187 305.7560000000002 11.009000000000187 C 302.88700000000017 10.628000000000187 301.0410000000002 10.387000000000187 299.3540000000002 10.056000000000187 C 295.9890000000002 9.454000000000187 293.1420000000002 8.930000000000188 283.8930000000002 10.227000000000187 L 284.7380000000002 5.486000000000187 C 283.0730000000002 6.0880000000001875 280.8010000000002 6.359000000000187 278.2220000000002 6.519000000000187 C 275.64400000000023 6.732000000000187 272.7500000000002 6.709000000000187 269.8440000000002 6.666000000000187 C 266.94200000000023 6.680000000000187 264.0130000000002 6.529000000000186 261.3800000000002 6.430000000000187 C 258.7510000000002 6.361000000000187 256.40600000000023 6.232000000000187 254.67000000000021 6.091000000000187 C 254.67000000000021 6.091000000000187 254.3100000000002 6.3350000000001865 253.77200000000022 6.700000000000187 C 253.23900000000023 7.081000000000187 252.52800000000022 7.589000000000187 251.8170000000002 8.096000000000187 C 250.4130000000002 9.110000000000186 249.0090000000002 10.125000000000187 249.0090000000002 10.125000000000187 C 234.08100000000022 10.341000000000186 224.4850000000002 12.152000000000186 219.29500000000021 10.339000000000187 L 221.45200000000023 12.879000000000186 C 219.99000000000024 12.804000000000187 215.76100000000022 13.618000000000187 210.5800000000002 15.034000000000185 C 205.39200000000022 16.432000000000187 199.24200000000022 18.387000000000185 193.83700000000022 20.251000000000186 C 183.03300000000021 23.938000000000187 174.9180000000002 26.857000000000184 182.1260000000002 20.977000000000185 C 180.2210000000002 22.100000000000186 178.5380000000002 23.476000000000184 176.2170000000002 24.980000000000185 C 173.8770000000002 26.454000000000185 170.96200000000022 28.168000000000184 166.6040000000002 30.092000000000183 L 163.96200000000022 28.036000000000183 C 157.9530000000002 31.521000000000182 151.6680000000002 35.26700000000018 146.4670000000002 38.408000000000186 C 141.2220000000002 41.478000000000186 137.0380000000002 43.914000000000186 134.8770000000002 44.25400000000019 C 140.8090000000002 39.61300000000019 142.3340000000002 37.21900000000019 143.8230000000002 34.81500000000019 C 142.2270000000002 35.75400000000019 140.7210000000002 36.64200000000019 139.2990000000002 37.48000000000019 C 137.9120000000002 38.37400000000019 136.6060000000002 39.21200000000019 135.3770000000002 40.00200000000019 C 132.9160000000002 41.58300000000019 130.8280000000002 43.06300000000019 129.04000000000022 44.42300000000019 C 125.42300000000021 47.08600000000018 123.01500000000021 49.274000000000186 121.34800000000021 51.018000000000185 C 117.99400000000021 54.479000000000184 117.73200000000021 56.35200000000019 117.58600000000021 58.03100000000018 C 117.46600000000021 59.73600000000018 117.49600000000021 61.292000000000186 115.10300000000021 64.42300000000019 C 112.75500000000021 67.61100000000019 107.84500000000021 72.17600000000019 98.5160000000002 80.74100000000018 L 97.6470000000002 78.90900000000019 C 97.6470000000002 78.90900000000019 97.13300000000021 79.5440000000002 96.36200000000021 80.49700000000018 C 95.61500000000021 81.46900000000018 94.6170000000002 82.76400000000018 93.61900000000021 84.06100000000018 C 91.60600000000021 86.62600000000018 89.70600000000022 89.27200000000018 89.70500000000021 89.27200000000018 C 89.70500000000021 89.27200000000018 86.87000000000022 91.19400000000017 84.06900000000022 93.19100000000017 C 81.28900000000021 95.22500000000018 78.50900000000021 97.26000000000018 78.50900000000021 97.26000000000018 C 74.65800000000021 106.23000000000017 62.94900000000021 119.42400000000018 51.68300000000021 135.17900000000017 C 46.04100000000021 143.02600000000018 40.43900000000021 151.4320000000002 35.85700000000021 159.85800000000017 C 31.246000000000212 168.26300000000018 27.581000000000213 176.62600000000018 25.374000000000212 184.01800000000017 C 23.352000000000213 189.70800000000017 19.935000000000212 195.85700000000017 16.528000000000212 203.58900000000017 C 13.092000000000212 211.28700000000018 9.482000000000212 220.54300000000018 7.367000000000212 232.01300000000018 L 10.613000000000213 231.14500000000018 C 9.751000000000213 233.33400000000017 8.854000000000212 236.33600000000018 7.802000000000213 239.92800000000017 C 6.906000000000213 243.54700000000017 5.794000000000213 247.75200000000018 4.953000000000213 252.41800000000018 C 3.1190000000002125 261.7270000000002 1.6820000000002127 272.7810000000002 1.0990000000002125 283.8650000000002 C 0.5490000000002124 289.4180000000002 0.6080000000002125 294.9650000000002 0.45500000000021246 300.3380000000002 C 0.19000000000021244 305.7290000000002 0.46700000000021247 310.8650000000002 0.46900000000021247 315.6470000000002 C 0.46600000000021247 318.04500000000024 0.46300000000021246 320.3370000000002 0.46000000000021246 322.4990000000002 C 0.5400000000002124 324.64900000000017 0.5830000000002125 326.6810000000002 0.5830000000002125 328.5680000000002 C 0.5820000000002125 332.3420000000002 0.40700000000021247 335.5390000000002 -0.0009999999997875042 337.94700000000023 C 3.3090000000002124 346.49900000000025 3.3940000000002124 345.9500000000002 2.8670000000002123 343.32400000000024 C 2.6120000000002124 342.0050000000002 2.2220000000002122 340.15000000000026 2.050000000000212 338.61900000000026 C 1.9120000000002122 337.0770000000003 2.050000000000212 335.84700000000026 2.639000000000212 335.81900000000024 C 3.205000000000212 337.94800000000026 3.942000000000212 339.89100000000025 4.545000000000212 341.74700000000024 C 5.143000000000212 343.60200000000026 5.705000000000212 345.34700000000026 6.235000000000213 346.9930000000002 C 7.281000000000213 350.28300000000024 8.012000000000212 353.2290000000002 8.890000000000212 355.7920000000002 C 10.507000000000211 360.9610000000002 11.441000000000212 365.0140000000002 12.080000000000211 368.6430000000002 C 12.878000000000212 372.2080000000002 13.38900000000021 375.3440000000002 13.99200000000021 378.7220000000002 C 14.29800000000021 380.41100000000023 14.629000000000211 382.1600000000002 15.04400000000021 384.0470000000002 C 15.46200000000021 385.9340000000002 16.11100000000021 387.8880000000002 16.83100000000021 390.0950000000002 C 21.94000000000021 399.6970000000002 20.49800000000021 395.7710000000002 18.65300000000021 390.7120000000002 C 17.745000000000207 388.17300000000023 16.678000000000207 385.37000000000023 16.37400000000021 383.7620000000002 C 16.09200000000021 382.14400000000023 16.36300000000021 381.82200000000023 17.963000000000207 384.2840000000002 C 19.372000000000206 388.1470000000002 20.65900000000021 391.4120000000002 21.858000000000207 394.2310000000002 C 23.045000000000208 397.05500000000023 24.147000000000208 399.43200000000024 25.347000000000207 401.44400000000024 C 27.660000000000206 405.5170000000002 29.707000000000207 408.48200000000026 31.866000000000206 411.6370000000002 C 36.491000000000206 417.78300000000024 41.21600000000021 424.8400000000002 51.69000000000021 441.97300000000024 C 52.18100000000021 444.05900000000025 50.36000000000021 442.17200000000025 48.16800000000021 439.28000000000026 C 46.012000000000214 436.36400000000026 43.362000000000215 432.54300000000023 41.76000000000021 431.0870000000003 C 44.01400000000021 433.8720000000003 46.40400000000021 437.01100000000025 48.91900000000021 440.4350000000003 C 51.58600000000021 443.74600000000027 54.38500000000021 447.3360000000003 57.28700000000021 451.1480000000003 C 63.24700000000021 458.6480000000003 69.88100000000021 466.8360000000003 77.1920000000002 475.0000000000003 C 86.4330000000002 485.41200000000026 96.76100000000021 495.78900000000027 107.38900000000021 505.1760000000003 C 122.9530000000002 525.3850000000002 158.2800000000002 560.5570000000002 225.7490000000002 580.2500000000002 C 324.25 609 319.25 594.5 384 592.5 C 384 592.5 391.947 589.291 403.748 584.365 C 403.753 584.366 403.763 584.367 403.763 584.367 C 412.614 582.005 414.42699999999996 580.769 415.616 579.779 C 415.897 579.529 416.145 579.285 416.441 579.025 C 419.488 577.732 422.65799999999996 576.379 425.905 574.982 C 434.135 573.567 445.486 570.14 455.73699999999997 566.076 C 467.01099999999997 561.705 476.852 556.506 480.51399999999995 554.703 C 483.371 554.0749999999999 482.02899999999994 555.314 479.6809999999999 556.978 C 477.33399999999995 558.631 473.9439999999999 560.5519999999999 472.8689999999999 561.5559999999999 C 482.79099999999994 556.458 486.8579999999999 552.9259999999999 491.5469999999999 549.347 C 493.8469999999999 547.443 496.3529999999999 545.62 499.62999999999994 543.1129999999999 C 501.28799999999995 541.896 503.14699999999993 540.531 505.29099999999994 538.957 C 506.36799999999994 538.174 507.51499999999993 537.34 508.7459999999999 536.445 C 509.9629999999999 535.527 511.2629999999999 534.547 512.6529999999999 533.498 L 513.5409999999999 533.9000000000001 C 526.17 522.8750000000001 538.67 509.9200000000001 548.8969999999999 494.3210000000001 C 559.1129999999999 479.0560000000001 567.435 462.20900000000006 573.7149999999999 444.5660000000001 C 580.011 426.9440000000001 584.2699999999999 408.6830000000001 587.035 390.6640000000001 C 587.394 388.3240000000001 587.726 385.9880000000001 588.039 383.65800000000013 C 589.5169999999999 379.56400000000014 590.924 375.51800000000014 592.235 371.57800000000015 L 590.787 370.5550000000001 C 594.5930000000001 363.4610000000001 595.8860000000001 355.4310000000001 596.938 347.11400000000015 C 597.3199999999999 342.93800000000016 597.63 338.67800000000017 598.083 334.35400000000016 C 598.4549999999999 330.0260000000002 598.795 325.62500000000017 599.588 321.1510000000002 L 596.5999999999999 329.75300000000016 C 594.67 317.91 596.613 311.506 595.431 300.499 z M 334.87 24.627 C 336.466 24.983999999999998 338.055 25.355 339.635 25.746 C 342.17699999999996 26.465 344.925 27.163 347.81399999999996 27.883 C 347.54999999999995 27.904999999999998 347.23199999999997 27.932 346.86699999999996 27.962999999999997 C 345.84099999999995 28.083 344.472 28.243999999999996 343.104 28.403999999999996 C 341.745 28.554999999999996 340.395 28.728999999999996 339.37899999999996 28.907999999999998 C 338.36999999999995 29.069999999999997 337.69599999999997 29.177999999999997 337.69599999999997 29.177999999999997 C 334.878 28.112 333.553 27.301 333.27 26.545999999999996 C 332.997 25.824 333.683 25.184 334.87 24.627 z M 65.373 334.195 C 65.373 334.195 63.027 336.877 61.351000000000006 334.866 C 59.675000000000004 332.854 62.02100000000001 329.837 62.02100000000001 329.837 C 63.699000000000005 330.507 65.37400000000001 331.513 65.37400000000001 331.513 L 65.37400000000001 334.195 z M 86.937 300.567 C 84.666 297.843 87.845 293.759 87.845 293.759 C 90.115 294.666 92.383 296.029 92.383 296.029 L 92.383 299.65999999999997 C 92.383 299.66 89.207 303.291 86.937 300.567 z M 96.566 326.331 C 96.566 326.331 92.812 330.623 90.129 327.404 C 87.447 324.185 91.20100000000001 319.35699999999997 91.20100000000001 319.35699999999997 C 93.88600000000001 320.429 96.56500000000001 322.03999999999996 96.56500000000001 322.03999999999996 L 96.56500000000001 326.331 z M 269.613 111.167 C 269.613 111.167 251.518 115.45400000000001 248.721 125.188 C 245.924 134.924 231.89100000000002 121.409 231.89100000000002 121.409 C 231.89100000000002 121.409 246.50500000000002 118.229 247.76800000000003 110.161 C 249.03200000000004 102.095 269.622 103.794 269.622 103.794 L 270.74100000000004 99.899 C 270.74100000000004 99.899 270.74100000000004 99.899 271.165 94.753 C 271.59200000000004 89.605 282.56800000000004 99.083 282.56800000000004 99.083 C 289.80800000000005 95.89099999999999 297.58400000000006 105.504 297.58400000000006 105.504 C 297.58400000000006 105.504 291.73400000000004 111.19900000000001 287.69300000000004 114.254 C 283.658 117.31 269.613 111.167 269.613 111.167 z M 291.507 145.896 C 288.469 145.896 286.949 136.01999999999998 289.229 133.74099999999999 C 291.507 131.462 294.546 132.22099999999998 294.546 132.22099999999998 L 301.383 136.77999999999997 C 301.383 136.779 294.546 145.896 291.507 145.896 z M 327.524 135.975 L 320.375 133.74099999999999 L 322.162 128.38 C 327.972 132.4 327.524 135.975 327.524 135.975 z M 331.282 111.177 C 331.282 111.177 326.662 116.46000000000001 323.35999999999996 112.49900000000001 C 320.05899999999997 108.53600000000002 324.681 102.59400000000001 324.681 102.59400000000001 C 327.984 103.914 331.282 105.89600000000002 331.282 105.89600000000002 L 331.282 111.177 z M 404.552 113.169 C 404.552 113.169 400.798 117.461 398.115 114.24199999999999 C 395.434 111.023 399.188 106.195 399.188 106.195 C 401.872 107.267 404.551 108.87799999999999 404.551 108.87799999999999 L 404.551 113.169 z M 419.815 170.143 C 419.815 170.143 416.061 174.434 413.378 171.216 C 410.697 167.997 414.45099999999996 163.17000000000002 414.45099999999996 163.17000000000002 C 417.135 164.24200000000002 419.81399999999996 165.852 419.81399999999996 165.852 L 419.81399999999996 170.143 z M 476.794 485.648 C 476.445 486.25500000000005 475.83599999999996 487.002 475.055 487.829 C 474.079 488.56 472.895 489.265 471.41200000000003 489.916 C 470.386 489.492 472.73100000000005 486.171 474.475 483.455 C 471.446 486.769 469.283 487.352 467.09700000000004 487.77099999999996 C 464.90900000000005 488.20699999999994 462.889 488.71799999999996 459.821 491.81399999999996 C 459.821 491.81399999999996 460.5 489.83199999999994 461.17900000000003 487.849 C 461.78600000000006 485.843 462.39300000000003 483.839 462.39300000000003 483.839 C 459.807 485.92 456.619 488.547 454.185 490.034 C 453.09 490.659 452.152 491.05899999999997 451.468 491.079 C 454.908 487.41700000000003 463.31600000000003 481.831 463.31600000000003 481.831 C 463.93 475.68100000000004 468.264 474.235 471.858 474.12 C 471.493 474.549 471.117 474.98900000000003 470.737 475.434 C 469.761 476.608 468.749 477.75 467.959 478.58000000000004 C 467.182 479.42600000000004 466.664 479.98800000000006 466.664 479.98800000000006 L 468.429 479.37300000000005 C 468.98499999999996 477.67800000000005 470.17199999999997 476.28900000000004 471.412 474.94300000000004 C 471.673 474.66400000000004 471.936 474.38800000000003 472.19599999999997 474.11100000000005 C 474.72999999999996 474.088 476.81399999999996 474.69000000000005 476.81399999999996 474.69000000000005 C 476.81399999999996 474.69000000000005 479.331 481.229 476.794 485.648 z M 483.876 438.139 C 483.876 438.139 481.27599999999995 441.11 479.41999999999996 438.88100000000003 C 477.56299999999993 436.65200000000004 480.162 433.31100000000004 480.162 433.31100000000004 C 482.019 434.05300000000005 483.876 435.16800000000006 483.876 435.16800000000006 L 483.876 438.139 z M 497.4 454.557 C 497.4 454.557 492.779 459.838 489.47799999999995 455.877 C 486.17599999999993 451.916 490.79799999999994 445.974 490.79799999999994 445.974 C 494.10099999999994 447.293 497.3999999999999 449.276 497.3999999999999 449.276 L 497.3999999999999 454.557 z M 502.977 419.602 C 505.28099999999995 416.89099999999996 508.209 414.395 508.209 414.395 L 513.217 416.079 C 513.217 416.079 516.75 422.142 511.945 424.01 C 507.137 425.875 502.977 419.602 502.977 419.602 z M 508.438 511.719 C 509.179 510.768 509.885 509.86199999999997 510.53 509.033 C 511.19399999999996 508.08000000000004 511.777 507.206 512.2669999999999 506.439 C 513.953 504.339 515.294 502.75300000000004 516.54 501.416 C 517.8 500.082 518.9739999999999 499.002 520.101 497.807 C 522.413 495.452 524.829 492.766 527.896 487.064 C 526.336 488.129 526.3199999999999 487.78900000000004 523.915 491.033 C 524.3539999999999 490.212 524.843 489.368 525.353 488.514 C 527.2539999999999 486.36400000000003 529.1389999999999 484.213 530.968 482.076 C 533.29 479.24600000000004 535.361 476.30600000000004 537.404 473.49100000000004 C 541.477 469.08900000000006 545.633 464.035 549.736 458.48 L 549.16 459.63 C 544.201 470.234 537.846 479.906 531.894 488.743 C 525.78 497.163 519.504 504.401 514.176 510.492 C 512.468 510.879 510.553 511.293 508.438 511.719 z M 568.385 431.633 C 567.622 434.53299999999996 566.562 437.44399999999996 565.483 440.46299999999997 C 564.3689999999999 443.46899999999994 563.3739999999999 446.63399999999996 561.914 449.76199999999994 C 560.0409999999999 453.30999999999995 559.151 453.9959999999999 558.435 453.99999999999994 C 558.4409999999999 454.00699999999995 558.4499999999999 454.00999999999993 558.4559999999999 454.0179999999999 C 553.983 466.4419999999999 548.4469999999999 478.0209999999999 541.372 488.44999999999993 C 535.1419999999999 498.13699999999994 527.596 506.7049999999999 519.319 514.395 L 524 508 C 524 508 520.591 509.039 514.371 510.449 C 520.132 505.663 525.982 499.635 531.406 492.824 C 534.313 489.369 536.728 485.469 539.361 481.706 L 541.313 478.869 L 543.086 475.92400000000004 C 544.277 473.96700000000004 545.468 472.016 546.647 470.07800000000003 C 547.254 469.27700000000004 547.9580000000001 468.44800000000004 548.558 467.521 C 549.165 466.595 549.789 465.641 550.414 464.687 C 551.662 462.772 552.913 460.851 554.056 459.175 C 555.238 457.51800000000003 556.1370000000001 456.027 556.888 455.071 C 557.359 454.46700000000004 557.753 454.071 558.047 453.944 C 557.5110000000001 453.807 556.99 453.495 556.0880000000001 454.077 C 556.0880000000001 454.077 557.0820000000001 451.581 558.5720000000001 447.839 C 559.2420000000001 446.273 559.8690000000001 444.429 560.5230000000001 442.456 C 563.5240000000001 437.581 566.4230000000001 432.495 569.1550000000001 427.25300000000004 C 569.498 426.60400000000004 569.82 425.93700000000007 570.1580000000001 425.283 C 569.579 427.359 568.99 429.465 568.385 431.633 z" stroke-linecap="round" />
</g>
</svg>