<?xml version="1.0" encoding="UTF-8" standalone="no" ?>
<!DOCTYPE svg PUBLIC "-//W3C//DTD SVG 1.1//EN" "http://www.w3.org/Graphics/SVG/1.1/DTD/svg11.dtd">
<svg xmlns="http://www.w3.org/2000/svg" xmlns:xlink="http://www.w3.org/1999/xlink" version="1.1" width="640" height="640" viewBox="0 0 640 640" xml:space="preserve">
<desc>Created with Fabric.js 5.3.0</desc>
<defs>
</defs>
<g transform="matrix(1.0634471852 0 0 3.5318163811 320 320)" id="FpG2D9siEiXoJYNMe1s6l"  >
<path style="stroke: none; stroke-width: 1; stroke-dasharray: none; stroke-linecap: butt; stroke-dashoffset: 0; stroke-linejoin: miter; stroke-miterlimit: 4; fill: rgb(255,255,255); fill-rule: nonzero; opacity: 1;" vector-effect="non-scaling-stroke"  transform=" translate(-300.001807059, -300.0000195032)" d="M 574.683 345.846 C 575.304 347.246 577.826 345.028 576.585 348.678 C 575.4440000000001 352.035 550.813 362.231 547.7180000000001 363.229 C 540.8560000000001 365.438 533.8030000000001 366.483 526.6220000000001 367.01599999999996 C 523.2690000000001 367.26399999999995 507.69700000000006 364.90899999999993 512.3600000000001 371.97099999999995 C 510.6950000000001 372.13499999999993 509.0290000000001 372.2989999999999 507.36400000000015 372.46099999999996 C 511.46400000000017 378.26599999999996 486.27400000000017 372.811 482.2880000000001 371.70899999999995 C 483.2940000000001 371.4359999999999 484.3000000000001 371.16399999999993 485.3060000000001 370.893 C 485.4270000000001 370.40299999999996 483.7880000000001 367.94399999999996 483.36000000000007 367.176 C 476.8740000000001 367.207 470.38700000000006 367.18399999999997 463.90200000000004 367.11899999999997 C 471.27200000000005 371.93699999999995 452.69700000000006 373.01199999999994 452.088 373.082 C 443.85900000000004 374.021 435.601 376.215 427.254 375.799 C 411.19 374.998 396.521 375.863 379.77500000000003 376.90299999999996 C 340.98 379.311 302.165 381.366 263.41900000000004 384.42799999999994 C 242.34600000000003 386.09399999999994 221.26400000000004 387.46299999999997 200.13900000000004 388.25399999999996 C 183.76600000000005 388.86699999999996 162.74800000000005 392.49799999999993 146.87300000000005 388.43199999999996 C 143.81400000000005 387.64699999999993 136.61800000000005 382.162 135.49600000000004 381.938 C 126.96700000000004 380.23699999999997 114.35500000000005 384.52 105.63400000000004 385.247 C 102.20600000000005 385.53200000000004 57.444000000000045 386.476 70.99700000000004 377.651 C 64.69900000000004 377.165 64.21400000000004 372.122 59.466000000000044 370.196 C 57.094000000000044 369.235 26.185000000000045 370.81500000000005 26.371000000000045 366.86600000000004 C 26.440000000000044 365.18800000000005 54.539000000000044 366.19200000000006 56.73200000000004 366.184 C 54.84000000000004 364.58500000000004 37.37400000000004 364.98100000000005 33.673000000000044 362.112 C 34.64100000000005 362.411 36.30900000000005 360.684 37.68100000000005 358.942 C 25.78700000000005 355.75100000000003 9.501000000000047 356.337 9.501000000000047 356.337 C 12.834000000000048 354.671 27.001000000000047 354.005 27.001000000000047 354.005 L 16.66800000000005 352.837 L 31.29200000000005 349.216 C 29.188000000000052 345.204 28.84100000000005 340.196 29.27700000000005 336.505 C 27.26200000000005 336.548 10.14800000000005 338.526 9.65400000000005 335.95 C 9.08600000000005 332.966 27.20900000000005 333.304 28.862000000000048 333.311 C 28.85700000000005 333.49899999999997 29.117000000000047 331.094 29.207000000000047 331.03799999999995 C 27.899000000000047 331.13999999999993 21.364000000000047 330.477 17.572000000000045 329.84999999999997 C 18.606000000000044 328.86199999999997 19.587000000000046 326.912 20.215000000000046 325.30899999999997 L 4.947000000000045 322.50399999999996 L 13.451000000000045 320.164 C 6.456000000000045 315.031 9.083000000000045 303.943 7.283000000000045 298.079 C 6.992000000000044 297.13 -2.2769999999999557 289.98900000000003 4.412000000000045 292.345 C 4.1840000000000455 291.574 5.271000000000045 292.23100000000005 4.199000000000045 291.732 C 5.045000000000045 291.829 6.201000000000045 291.651 7.439000000000045 291.40000000000003 C 3.5120000000000453 290.338 -1.202999999999954 286.70500000000004 5.257000000000046 284.88700000000006 C -1.7589999999999542 279.0640000000001 7.920000000000046 276.7710000000001 11.366000000000046 277.44000000000005 C 8.887000000000047 275.15500000000003 3.250000000000046 274.0470000000001 5.641000000000046 268.37200000000007 C -2.4409999999999545 273.5400000000001 -0.13599999999995394 265.2900000000001 2.186000000000046 260.2900000000001 C 3.1690000000000462 258.17300000000006 10.929000000000046 252.01100000000008 5.881000000000046 255.03200000000007 C 11.572000000000045 250.40100000000007 24.024000000000047 242.48500000000007 29.897000000000045 239.58000000000007 C 17.025000000000045 234.19600000000008 39.30300000000005 231.43800000000007 35.01800000000004 230.41700000000006 C 40.715000000000046 230.60300000000007 55.33500000000004 235.07200000000006 57.66900000000004 233.01500000000007 C 67.42100000000003 233.39200000000008 67.93500000000004 230.06000000000006 77.24500000000003 225.30700000000007 C 81.77100000000003 222.99600000000007 86.48000000000003 222.62800000000007 91.24300000000004 222.44100000000006 L 88 221.502 C 88 221.502 101.399 218.779 117.064 221.989 C 124.52099999999999 223.00300000000001 131.90699999999998 224.282 138.214 224.709 C 135.832 223.702 146.954 222.851 139.575 223.19 C 144.308 222.588 143.707 222.246 146.873 219.958 C 146.506 224.88 167.881 222.839 173.587 222.752 C 180.75699999999998 222.642 187.813 223.16400000000002 194.94899999999998 223.268 C 195.32799999999997 223.273 208.14499999999998 225.01 201.83399999999997 222.773 C 215.54299999999998 222.874 233.42499999999998 220.534 249.95699999999997 217.559 C 236.24099999999996 218.715 254.70399999999995 215.612 256.01599999999996 215.411 C 260.39099999999996 214.739 264.93699999999995 214.395 269.364 214.377 C 278.508 214.341 286.306 215.875 295.40099999999995 215.133 C 301.53399999999993 214.633 349.75399999999996 206.247 352.65299999999996 211.25900000000001 C 352.43899999999996 210.63600000000002 309.45099999999996 216.061 304.438 216.722 C 338.832 215.175 373.286 216.163 407.691 214.907 C 418.887 214.49800000000002 507.587 205.04500000000002 510.26699999999994 213.923 C 509.78299999999996 212.375 377.86599999999993 218.105 364.8639999999999 218.02700000000002 C 365.21399999999994 218.74 364.86299999999994 219.311 363.8119999999999 219.74 C 391.9879999999999 220.01500000000001 419.9899999999999 220.913 448.0889999999999 221.566 C 456.1419999999999 221.754 515.8079999999999 213.235 518.3179999999999 220.659 C 518.7099999999999 221.778 472.37099999999987 224.57299999999998 467.83799999999985 224.768 C 483.03299999999984 232.522 506.50599999999986 222.175 523.3339999999998 230.381 C 520.3579999999998 230.347 517.3639999999998 230.962 514.3899999999999 230.873 C 534.7889999999999 234.265 556.2569999999998 229.772 576.6719999999999 234.819 C 572.8399999999999 234.79999999999998 569.0079999999999 234.78099999999998 565.1759999999999 234.762 C 567.7359999999999 235.333 570.1899999999999 236.175 572.491 237.398 C 559.56 236.264 546.539 235.62 533.529 235.362 C 535.985 235.15 538.467 234.89 540.951 234.641 C 531.703 234.595 522.455 234.54999999999998 513.207 234.504 C 514.306 234.807 515.432 235.048 516.581 235.238 C 516.274 235.239 515.966 235.238 515.659 235.239 C 531.131 240.336 549.683 236.642 566.087 240.008 C 566.473 240.03300000000002 566.858 240.06 567.245 240.086 C 565.291 238.455 563.4 236.274 568.192 240.151 C 576.461 240.73100000000002 584.547 241.48600000000002 589.001 242.416 L 571.0849999999999 243.755 C 579.4649999999999 243.709 587.8459999999999 243.64 596.132 245.176 C 589.819 245.689 583.506 246.202 577.194 246.71499999999997 C 580.794 246.74199999999996 586.0039999999999 246.533 589.6129999999999 247.73399999999998 C 586.0089999999999 247.60099999999997 562.4939999999999 245.87499999999997 567.9409999999999 248.664 L 577.5849999999999 250.082 L 575.352 250.727 C 579.268 250.714 583.5219999999999 250.925 586.511 252.413 C 580.5079999999999 252.20700000000002 572.802 251.25400000000002 567.145 253.50300000000001 L 570.656 254.961 C 573.829 254.864 577.0079999999999 254.86800000000002 580.122 255.08700000000002 C 576.443 255.4 572.764 255.71300000000002 569.0849999999999 256.026 C 566.512 256.63 562.6859999999999 257.568 560.4219999999999 258.31600000000003 C 560.3829999999999 258.45000000000005 560.338 258.584 560.2639999999999 258.72 C 560.3779999999999 258.728 569.1379999999999 258.877 573.8969999999999 258.389 C 571.4939999999999 258.979 568.4939999999999 259.629 568.3269999999999 259.66700000000003 C 572.7469999999998 260.61100000000005 577.7129999999999 259.951 581.9729999999998 261.781 C 576.9119999999998 261.435 571.7609999999999 261.35 566.7509999999999 261.843 C 567.7419999999998 262.545 568.8259999999999 262.88300000000004 570.0049999999999 262.857 C 566.6589999999999 263.17100000000005 563.3109999999999 264.31500000000005 568.8059999999999 265.468 C 565.1569999999999 265.658 561.5269999999999 266.041 557.915 266.61400000000003 C 562.01 267.11100000000005 571.913 266.249 572.168 266.03400000000005 C 570.079 267.79900000000004 562.991 266.85400000000004 569.272 268.84700000000004 C 567.053 268.69700000000006 564.7890000000001 269.16100000000006 562.566 269.08200000000005 C 568.6310000000001 269.21600000000007 561.8910000000001 271.6700000000001 568.8340000000001 273.40500000000003 C 566.037 273.36300000000006 562.523 273.40200000000004 559.9240000000001 274.30400000000003 C 564.2970000000001 275.44100000000003 591.4890000000001 273.059 591.7780000000001 274.771 C 592.1740000000001 277.047 571.6390000000001 278.526 569.6130000000002 278.73900000000003 C 571.2560000000002 278.91400000000004 572.8250000000002 279.333 574.3280000000002 279.968 C 573.1500000000002 279.55400000000003 572.0750000000002 279.695 571.1070000000002 280.406 C 572.6100000000002 280.437 574.1050000000002 280.594 575.5910000000002 280.879 C 571.8940000000002 280.969 568.1970000000002 281.058 564.5010000000002 281.148 C 566.0030000000002 281.403 586.3970000000002 281.95700000000005 586.1890000000002 281.552 C 586.4250000000002 282.01800000000003 575.3190000000002 283.939 575.9950000000002 283.83000000000004 C 576.6920000000002 284.39500000000004 576.9340000000002 285.01500000000004 576.7200000000003 285.69000000000005 C 580.0500000000003 285.81700000000006 583.3620000000003 286.1580000000001 586.6550000000002 286.7130000000001 C 583.9950000000002 286.7770000000001 577.9770000000002 285.75700000000006 575.6810000000002 286.9820000000001 C 575.9690000000002 287.2010000000001 578.8560000000001 286.61300000000006 578.8010000000002 287.6300000000001 C 578.5200000000002 287.8700000000001 578.2230000000002 288.0580000000001 577.9150000000002 288.2050000000001 C 583.4170000000001 288.1470000000001 592.9310000000002 287.7260000000001 592.9480000000002 288.3750000000001 C 592.9570000000002 288.7070000000001 580.5500000000002 288.68400000000014 578.6080000000002 288.7840000000001 C 580.2100000000002 288.8940000000001 582.1970000000002 288.8480000000001 583.6680000000001 289.6030000000001 C 577.0650000000002 289.5820000000001 570.5950000000001 289.2590000000001 564.0250000000001 290.1130000000001 C 565.2030000000001 290.10000000000014 580.618 289.4020000000001 582.7680000000001 289.9230000000001 C 582.7180000000002 290.4530000000001 582.9100000000002 292.0530000000001 583.1620000000001 293.2450000000001 L 591.2550000000001 293.2450000000001 C 591.2550000000001 293.2450000000001 588.6860000000001 294.6740000000001 585.4220000000001 295.31600000000014 C 585.4970000000002 295.36700000000013 585.5750000000002 295.40800000000013 585.6500000000001 295.46200000000016 C 585.6550000000001 295.6220000000002 585.546 295.75600000000014 585.3580000000001 295.87300000000016 L 595.5880000000001 297.57800000000015 C 595.5880000000001 297.57800000000015 586.2810000000001 299.37800000000016 580.893 299.89900000000017 C 582.667 305.21900000000016 571.504 297.0280000000002 580.806 303.76200000000017 C 577.571 303.26000000000016 574.922 303.23900000000015 571.767 303.91400000000016 C 572.538 304.12100000000015 573.3080000000001 304.32800000000015 574.0780000000001 304.53500000000014 C 571.7250000000001 304.70100000000014 569.916 304.81600000000014 568.5400000000001 304.8940000000001 C 568.5810000000001 304.9640000000001 568.4780000000001 305.0620000000001 568.1440000000001 305.1990000000001 C 569.1550000000001 305.49600000000015 570.1540000000001 305.8300000000001 571.1450000000001 306.1830000000001 L 571.2710000000001 306.2200000000001 L 584.672 307.5770000000001 C 584.672 307.5770000000001 574 310.3560000000001 571.919 311.34300000000013 C 571.793 311.48400000000015 571.674 311.6180000000001 571.561 311.7470000000001 C 571.7270000000001 312.5650000000001 577.071 313.2430000000001 577.071 313.2430000000001 L 577.072 313.2430000000001 C 581.793 312.3930000000001 585.363 311.7680000000001 585.545 312.2840000000001 C 585.711 312.7550000000001 582.654 313.3780000000001 578.7389999999999 313.9750000000001 L 583.3389999999999 315.99300000000005 C 583.3389999999999 315.99300000000005 581.116 316.15100000000007 577.333 316.74300000000005 C 577.452 317.22700000000003 577.606 317.78400000000005 577.771 318.3020000000001 C 576.231 319.2240000000001 572.8879999999999 320.0030000000001 572.4209999999999 320.41300000000007 C 574.555 319.65900000000005 576.5619999999999 319.5110000000001 578.4459999999999 319.9460000000001 C 578.5179999999999 320.03600000000006 578.5809999999999 320.0570000000001 578.6239999999999 319.98300000000006 C 579.2889999999999 320.15100000000007 579.939 320.3910000000001 580.5729999999999 320.7080000000001 C 580.6829999999999 321.2650000000001 571.5349999999999 323.40100000000007 566.6229999999998 323.9890000000001 L 565.6349999999998 325.1240000000001 C 568.9789999999998 324.4290000000001 574.0759999999998 323.4560000000001 574.2079999999997 323.9210000000001 C 574.2689999999998 324.1690000000001 569.2169999999998 325.1790000000001 564.8869999999997 325.9850000000001 L 564.2859999999997 326.6760000000001 C 568.9169999999997 326.0670000000001 574.9069999999997 325.1020000000001 575.1859999999997 325.4690000000001 C 575.2539999999997 325.5430000000001 561.4559999999997 330.1470000000001 561.8639999999997 330.0470000000001 C 561.9439999999997 330.1060000000001 563.5839999999997 330.9020000000001 563.6849999999997 330.9940000000001 C 563.6169999999997 330.9020000000001 562.6379999999997 332.01900000000006 562.0959999999997 332.7170000000001 C 564.0879999999996 332.8380000000001 566.9519999999997 333.0220000000001 569.1359999999996 333.1960000000001 C 574.0159999999996 332.34100000000007 578.0129999999996 331.6180000000001 577.9939999999996 331.5710000000001 C 578.1579999999996 331.9910000000001 575.3859999999996 332.6780000000001 571.5399999999996 333.4210000000001 C 572.7359999999996 333.5670000000001 574.9169999999996 333.9410000000001 576.9429999999996 334.3040000000001 C 586.3299999999997 332.2020000000001 598.3139999999996 329.71600000000007 599.9169999999997 336.4840000000001 C 601.595 343.598 578.421 345.258 574.683 345.846 z" stroke-linecap="round" />
</g>
</svg>