<?xml version="1.0" encoding="UTF-8" standalone="no" ?>
<!DOCTYPE svg PUBLIC "-//W3C//DTD SVG 1.1//EN" "http://www.w3.org/Graphics/SVG/1.1/DTD/svg11.dtd">
<svg xmlns="http://www.w3.org/2000/svg" xmlns:xlink="http://www.w3.org/1999/xlink" version="1.1" width="640" height="640" viewBox="0 0 640 640" xml:space="preserve">
<desc>Created with Fabric.js 5.3.0</desc>
<defs>
</defs>
<g transform="matrix(-1.063455184 0 0 3.1672257348 320.0000000081 320)" id="VmLKbWZvohNZYPtDZliE5"  >
<path style="stroke: none; stroke-width: 1; stroke-dasharray: none; stroke-linecap: butt; stroke-dashoffset: 0; stroke-linejoin: miter; stroke-miterlimit: 4; fill: rgb(255,255,255); fill-rule: nonzero; opacity: 1;" vector-effect="non-scaling-stroke"  transform=" translate(-300.0005541921, -300.0025)" d="M 592.362 365.855 C 592.823 365.97700000000003 593.774 366.046 594.967 366.064 C 594.3629999999999 367.593 592.4259999999999 369.507 593.276 370.771 C 592.2489999999999 371.459 593.092 372.107 594.0939999999999 372.653 L 587.5279999999999 373.877 C 588.0959999999999 374.157 589.4149999999998 373.896 590.4749999999999 373.75600000000003 C 587.1209999999999 374.90700000000004 589.5859999999999 375.293 584.7289999999999 375.223 C 583.6879999999999 375.541 583.9909999999999 375.844 584.03 376.19800000000004 C 580.973 376.16900000000004 578.6469999999999 376.081 577.63 377.34600000000006 L 576.638 377.3790000000001 L 576.347 377.3130000000001 L 576.169 377.3930000000001 C 568.952 377.61000000000007 561.7529999999999 376.90600000000006 554.614 377.07200000000006 L 554.134 376.85900000000004 L 558.072 375.96700000000004 C 558.291 375.33000000000004 554.039 375.18600000000004 556.914 374.45700000000005 C 556.359 374.05300000000005 555.047 374.23500000000007 553.9879999999999 374.3070000000001 L 555.8009999999999 373.56300000000005 C 555.545 373.84400000000005 556.3559999999999 373.96500000000003 556.891 374.10600000000005 C 559.438 372.51400000000007 559.2869999999999 370.31500000000005 560.256 369.09600000000006 C 563.322 369.74600000000004 566.813 369.68600000000004 570.2769999999999 369.33200000000005 C 573.7439999999999 368.97800000000007 577.1969999999999 368.50500000000005 580.252 368.60200000000003 C 580.699 370.22900000000004 583.3359999999999 367.79900000000004 585.043 368.781 C 586.01 367.942 588.098 367.66700000000003 589.625 367.201 L 590.705 367.32300000000004 C 593.967 365.91600000000005 587.764 367.18000000000006 588.412 366.026 L 590.416 365.137 C 590.951 365.247 591.254 365.471 592.2810000000001 365.247 C 592.7750000000001 365.007 593.273 364.76 592.969 364.535 L 592.1510000000001 364.28700000000003 L 593.11 363.81600000000003 C 592.8870000000001 363.944 592.778 364.07000000000005 592.921 364.18500000000006 L 596.816 363.67100000000005 C 596.597 363.96400000000006 597.144 364.07200000000006 597.691 364.177 C 596.759 364.26500000000004 595.753 364.394 594.8670000000001 364.57300000000004 C 593.513 364.854 592.438 365.258 592.362 365.855 z M 594.134 318.322 C 591.991 318.357 589.839 318.414 587.693 318.459 C 588.585 319.075 592.407 319.901 590.701 320.332 C 589.291 320.691 583.3140000000001 319.451 579.3670000000001 319.537 C 578.1030000000001 319.633 576.9530000000001 319.74399999999997 575.9040000000001 319.89099999999996 C 574.8550000000001 320.05799999999994 573.9100000000001 320.24199999999996 573.0540000000001 320.443 C 571.3450000000001 320.842 570.003 321.304 568.9470000000001 321.8 C 566.8360000000001 322.79200000000003 565.8710000000001 323.925 565.4120000000001 324.98900000000003 C 565.2600000000001 325.34400000000005 563.7810000000002 325.461 561.8750000000001 325.468 C 559.9710000000001 325.49600000000004 557.6370000000001 325.468 555.7700000000001 325.425 C 557.1680000000001 326.774 554.157 327.73 551.0710000000001 328.701 L 552.3170000000001 328.73400000000004 C 554.1160000000001 328.79200000000003 555.9210000000002 328.915 557.7230000000001 329.00800000000004 C 561.33 329.22 564.9440000000001 329.41 568.571 329.696 C 572.198 330.03400000000005 575.833 330.39500000000004 579.4830000000001 330.786 C 577.2470000000001 331.296 584.4340000000001 332.712 582.1940000000001 333.22 C 580.7740000000001 333.543 574.831 332.15700000000004 570.8810000000001 332.14700000000005 C 569.6170000000001 332.21000000000004 568.4630000000001 332.29300000000006 567.4100000000001 332.41600000000005 C 566.359 332.5570000000001 565.4080000000001 332.71900000000005 564.5490000000001 332.89700000000005 C 562.83 333.25500000000005 561.4770000000001 333.68300000000005 560.4080000000001 334.153 C 558.2730000000001 335.093 557.2810000000002 336.202 556.7970000000001 337.25600000000003 C 556.6350000000001 337.608 555.1540000000001 337.68800000000005 553.2500000000001 337.648 C 551.3440000000002 337.629 549.0120000000001 337.54400000000004 547.1460000000001 337.454 C 549.767 340.112 536.148 340.919 536.97 343.529 C 531.421 343.421 524.1560000000001 342.794 518.4540000000001 343.17 C 514.6060000000001 343.521 510.62200000000007 344.166 506.64500000000004 344.928 C 502.874 345.324 499.17800000000005 345.742 495.51900000000006 346.17 C 493.62500000000006 346.445 491.73500000000007 346.721 489.8310000000001 346.995 C 478.6960000000001 348.845 467.40900000000005 350.513 456.23300000000006 352.282 C 456.11000000000007 352.608 455.8400000000001 352.945 455.3620000000001 353.274 C 453.8910000000001 354.386 450.8190000000001 355.13100000000003 447.5610000000001 355.231 L 445.08600000000007 355.24 C 435.12000000000006 355.714 425.18500000000006 356.18600000000004 415.2710000000001 356.657 C 413.30100000000004 357.311 410.9940000000001 357.84999999999997 408.45900000000006 358.204 C 404.31800000000004 359.269 399.9320000000001 360.233 395.5710000000001 361.184 C 393.6160000000001 361.60900000000004 391.6500000000001 362.021 389.6790000000001 362.42800000000005 C 390.42500000000007 362.39400000000006 391.1770000000001 362.34800000000007 391.9200000000001 362.3190000000001 C 400.93300000000005 361.88700000000006 409.7660000000001 361.6940000000001 418.3740000000001 361.4580000000001 C 421.99000000000007 361.38200000000006 425.55500000000006 361.3160000000001 429.08600000000007 361.2530000000001 C 435.39900000000006 360.1960000000001 441.6690000000001 359.0940000000001 447.8760000000001 357.9210000000001 C 463.6810000000001 355.31900000000013 479.2200000000001 352.2140000000001 494.7260000000001 349.2980000000001 C 495.23000000000013 349.1400000000001 496.0310000000001 349.1210000000001 496.4970000000001 349.3040000000001 C 496.8130000000001 349.4920000000001 496.7760000000001 349.7750000000001 496.2120000000001 349.91300000000007 C 491.3720000000001 351.13200000000006 486.6830000000001 352.7900000000001 482.0620000000001 354.29600000000005 C 477.4490000000001 355.83500000000004 472.86900000000014 357.36100000000005 468.2260000000001 358.90900000000005 C 468.0220000000001 358.97600000000006 467.8160000000001 359.04100000000005 467.6130000000001 359.107 C 475.7220000000001 360.78700000000003 481.7150000000001 360.656 486.9860000000001 359.788 C 494.6310000000001 362.05 501.02100000000013 365.298 508.4240000000001 366.62 C 508.4960000000001 367.186 508.9870000000001 367.884 510.0880000000001 368.772 L 514.4140000000001 367.643 L 521.1540000000001 370.58099999999996 L 517.3770000000001 370.22399999999993 C 517.7090000000001 373.83699999999993 529.4200000000001 377.12999999999994 539.58 375.25899999999996 C 543.268 375.88199999999995 540.5350000000001 377.34499999999997 540.6370000000001 378.66599999999994 C 520.735 379.64199999999994 496.6530000000001 384.9169999999999 476.54300000000006 381.9049999999999 C 472.0040000000001 377.70699999999994 468.8670000000001 381.4749999999999 458.77000000000004 381.7129999999999 C 447.21700000000004 382.1779999999999 434.65900000000005 383.29599999999994 422.04900000000004 384.5439999999999 C 415.72700000000003 385.1119999999999 409.43000000000006 385.8549999999999 403.16100000000006 386.3469999999999 C 400.04600000000005 386.6669999999999 396.9460000000001 386.9489999999999 393.87000000000006 387.1769999999999 C 390.78100000000006 387.3939999999999 387.7200000000001 387.6069999999999 384.6960000000001 387.8179999999999 L 385.1170000000001 386.2949999999999 L 359.63900000000007 386.7219999999999 C 350.21600000000007 379.3599999999999 329.0610000000001 390.8889999999999 315.35900000000004 391.19199999999995 C 301.16600000000005 392.41499999999996 283.62100000000004 392.01399999999995 265.884 392.46199999999993 C 257.016 392.6909999999999 248.04700000000003 392.93299999999994 239.418 393.76699999999994 C 230.781 394.56999999999994 222.473 395.92299999999994 214.786 397.8109999999999 C 214.773 397.8119999999999 214.76 397.81299999999993 214.746 397.81299999999993 C 213.161 398.8159999999999 211.239 399.7919999999999 208.89600000000002 400.73299999999995 C 207.62400000000002 400.00499999999994 213.65500000000003 399.67699999999996 210.58300000000003 398.13599999999997 C 210.50900000000001 398.11499999999995 210.42800000000003 398.102 210.35300000000004 398.082 C 201.75700000000003 398.686 191.37300000000005 399.783 181.33300000000003 400.108 C 169.48800000000003 400.391 158.18400000000003 399.88100000000003 151.11100000000002 397.007 C 150.24200000000002 396.528 148.876 396.034 147.27700000000002 395.527 C 148.28400000000002 396.294 144.80200000000002 396.587 147.239 397.304 C 144.311 397.325 143.34900000000002 395.63599999999997 142.24200000000002 394.111 C 142.419 394.138 142.59600000000003 394.162 142.77200000000002 394.186 C 142.57100000000003 394.12699999999995 142.37000000000003 394.07 142.168 394.01099999999997 C 142.192 394.04499999999996 142.217 394.07699999999994 142.241 394.111 C 139.175 393.63599999999997 136.122 392.722 132.98000000000002 391.682 C 133.758 391.69300000000004 134.54500000000002 391.714 135.31600000000003 391.767 C 133.76200000000003 391.123 132.70900000000003 390.473 132.55600000000004 389.814 C 130.80900000000003 389.81800000000004 129.05800000000005 389.81300000000005 127.30600000000004 389.797 C 129.24400000000003 390.423 131.12800000000004 391.069 132.98000000000005 391.682 C 129.67500000000004 391.636 126.62300000000005 391.701 126.40000000000005 389.788 C 126.33800000000005 389.78700000000003 126.27700000000004 389.786 126.21500000000005 389.786 L 124.57400000000004 390.92 C 123.95800000000004 390.462 123.63100000000004 390.081 123.32800000000005 389.743 C 122.13500000000005 389.722 120.94200000000005 389.69599999999997 119.75300000000004 389.663 C 119.73100000000004 389.735 119.67800000000004 389.802 119.57500000000005 389.857 C 119.54200000000004 389.785 119.48800000000004 389.718 119.43200000000004 389.653 C 95.76500000000004 388.98600000000005 73.31500000000005 386.13 63.22700000000005 378.564 C 59.30800000000005 375.62600000000003 53.87300000000005 370.733 47.94500000000005 364.267 C 47.32500000000005 363.929 46.90000000000005 363.575 46.93700000000005 363.161 C 45.542000000000044 361.612 44.12300000000005 359.973 42.69300000000005 358.259 C 42.246000000000045 358.289 42.22200000000005 358.64500000000004 42.420000000000044 359.086 C 41.79600000000004 358.482 41.10700000000004 358.027 40.478000000000044 357.569 C 39.49800000000005 356.773 38.676000000000045 355.976 38.64700000000004 354.588 C 39.414000000000044 355.22200000000004 40.26700000000004 355.814 41.14800000000004 356.379 C 40.15600000000004 355.154 39.16000000000004 353.894 38.16600000000004 352.59700000000004 C 38.16800000000004 352.603 38.17200000000004 352.61100000000005 38.17500000000004 352.61800000000005 L 35.90400000000004 353.41700000000003 C 33.649000000000036 351.684 31.630000000000038 346.50500000000005 29.74100000000004 348.413 C 30.69800000000004 347.599 29.14300000000004 344.684 30.55500000000004 344.20300000000003 C 30.55500000000004 344.20300000000003 30.07000000000004 343.41100000000006 29.58400000000004 342.62 C 29.135000000000037 341.80400000000003 28.68600000000004 340.987 28.68600000000004 340.987 C 29.50900000000004 342.136 30.51000000000004 343.21700000000004 31.49500000000004 344.29200000000003 C 32.46900000000004 345.334 33.38100000000004 346.408 34.30400000000004 347.35600000000005 C 28.625000000000036 339.3430000000001 23.177000000000035 330.20700000000005 18.78200000000004 320.2420000000001 C 18.46600000000004 320.0570000000001 18.15500000000004 319.8880000000001 17.86600000000004 319.74500000000006 C 18.09300000000004 319.19200000000006 17.775000000000038 319.0760000000001 18.310000000000038 319.14700000000005 C 17.763000000000037 317.87600000000003 17.23000000000004 316.59200000000004 16.719000000000037 315.2950000000001 C 16.51400000000004 315.11000000000007 16.301000000000037 314.92500000000007 16.077000000000037 314.7320000000001 C 14.663000000000038 313.5180000000001 12.909000000000038 311.9920000000001 12.006000000000038 308.6010000000001 C 10.438000000000038 309.5340000000001 11.358000000000038 312.6310000000001 12.994000000000037 314.3850000000001 L 10.915000000000036 314.5800000000001 C 13.113000000000037 320.3970000000001 16.707000000000036 326.5140000000001 20.390000000000036 330.0470000000001 C 20.390000000000036 330.0470000000001 19.774000000000036 329.75700000000006 19.158000000000037 329.4670000000001 C 18.550000000000036 329.1590000000001 17.942000000000036 328.8520000000001 17.942000000000036 328.8520000000001 C 17.874000000000034 331.4340000000001 18.924000000000035 331.7480000000001 19.807000000000034 332.05000000000007 C 20.704000000000033 332.3620000000001 21.530000000000033 332.6210000000001 21.496000000000034 335.1410000000001 C 23.854000000000035 337.1700000000001 21.058000000000035 332.7800000000001 23.085000000000033 334.1290000000001 C 23.871000000000034 336.1860000000001 19.936000000000032 335.6820000000001 21.976000000000035 338.7050000000001 C 12.7 328.365 6.232 313.519 2.845 299.438 C 2.4250000000000003 299.247 2.455 300.02799999999996 2.484 300.806 C 0.552 298.688 -0.7570000000000001 286.97499999999997 0.49 276.008 C 1.036 270.522 2.104 265.264 2.9219999999999997 261.27 C 3.7119999999999997 257.272 4.163 254.457 3.026 253.7 C 3.992 253.24499999999998 4.012 255.786 4.9559999999999995 252.78799999999998 C 4.709999999999999 252.398 4.547 251.456 3.5609999999999995 251.89299999999997 C 6.299999999999999 248.57799999999997 8.238999999999999 244.39899999999997 10.846 240.20199999999997 C 13.408 236.02899999999997 16.725 231.87399999999997 21.012 229.43099999999998 C 20.262 228.90699999999998 21.645 227.176 21.289 226.66 C 21.589000000000002 226.608 21.883000000000003 226.53 22.176000000000002 226.44 C 19.483 224.282 19.203000000000003 222.894 22.802000000000003 223.107 C 23.689000000000004 223.008 25.452 222.97 27.712000000000003 222.966 C 29.114000000000004 221.87900000000002 30.564000000000004 221.008 31.869000000000003 220.763 L 30.494000000000003 220.393 C 30.494000000000003 220.393 31.021000000000004 220.083 31.810000000000002 219.617 C 32.595 219.141 33.651 218.52499999999998 34.759 218.01 C 35.853 217.46699999999998 36.947 216.92399999999998 37.768 216.518 C 38.589 216.109 39.142 215.855 39.142 215.855 C 39.247 215.381 38.041000000000004 215.94 37.282000000000004 216.17399999999998 C 38.999 214.76399999999998 39.937000000000005 215.69699999999997 40.467000000000006 216.40399999999997 L 43.650000000000006 212.71799999999996 C 47.62400000000001 212.40199999999996 51.57000000000001 211.43999999999997 55.623000000000005 210.31399999999996 C 54.959 210.16399999999996 54.339000000000006 210.01999999999995 53.783 209.89199999999997 C 50.124 207.97299999999996 54.402 205.95299999999997 58.398 205.23399999999998 C 58.398 205.23399999999998 59.178000000000004 204.89399999999998 60.579 204.40999999999997 C 61.994 203.87699999999998 64.037 203.16799999999998 66.542 202.49599999999998 C 71.561 201.14999999999998 78.372 200.016 86.076 200.18699999999998 C 87.94 200.283 89.84299999999999 200.35199999999998 91.77199999999999 200.408 C 91.44699999999999 199.97799999999998 92.30399999999999 199.577 93.27499999999999 199.272 C 98.395 199.39999999999998 103.279 199.89 107.904 200.71699999999998 C 108.73899999999999 200.73499999999999 109.565 200.74599999999998 110.404 200.767 C 118.917 200.714 127.631 200.843 136.465 200.683 C 154.074 200.553 171.876 200.226 187.909 200.381 C 191.927 200.866 200.017 201.754 204.09099999999998 202.165 C 236.32399999999998 202.683 271.216 200.774 306.812 200.53799999999998 C 324.421 200.45999999999998 342.158 200.38199999999998 359.831 200.30399999999997 C 368.666 200.23799999999997 377.48400000000004 200.48199999999997 386.261 200.68899999999996 C 393.324 200.86799999999997 400.34700000000004 201.08999999999997 407.343 201.34799999999996 C 408.65700000000004 200.96899999999997 409.97 200.61399999999995 411.26 200.33799999999997 C 416.866 199.43399999999997 424.933 199.32899999999998 431.563 199.54499999999996 C 431.932 199.53499999999997 432.299 199.53099999999995 432.667 199.53499999999997 C 435.68899999999996 199.75999999999996 440.9 199.99199999999996 447.12699999999995 200.20299999999997 C 450.23999999999995 200.29899999999998 453.60599999999994 200.402 457.0799999999999 200.50799999999998 C 460.5469999999999 200.63899999999998 464.1189999999999 200.77399999999997 467.65199999999993 200.90599999999998 C 481.7969999999999 201.31699999999998 495.27899999999994 201.82599999999996 498.79799999999994 201.45399999999998 C 519.2529999999999 202.79199999999997 538.7919999999999 203.24099999999999 559.155 206.027 C 557.5649999999999 206.57 562.5509999999999 207.875 560.962 208.41699999999997 C 559.952 208.75999999999996 555.8389999999999 207.46199999999996 553.069 207.50599999999997 C 545.944 208.12299999999996 543.727 210.45099999999996 542.934 212.55099999999996 C 542.67 213.25099999999995 538.75 212.84799999999996 536.139 212.57999999999996 C 536.924 213.83599999999996 535.28 214.60899999999995 533.326 215.33399999999995 C 543.2620000000001 216.36699999999993 546.347 218.16799999999995 542.605 218.68699999999995 C 529.914 219.44499999999996 514.787 218.81699999999995 501.026 218.50499999999997 C 498.517 218.66399999999996 496.041 218.82999999999996 493.593 218.99699999999996 C 493.81 219.21399999999997 493.808 219.46599999999995 493.80600000000004 219.71699999999996 C 497.87000000000006 219.77399999999994 506.00100000000003 219.76199999999994 510.07000000000005 219.90099999999995 C 500.84700000000004 219.81999999999996 492.20900000000006 219.74499999999995 483.71500000000003 219.67099999999996 C 478.82300000000004 220.01399999999995 474.01200000000006 220.35099999999997 469.23600000000005 220.68599999999995 C 468.32400000000007 220.56499999999994 467.34000000000003 220.44999999999996 466.232 220.37199999999996 C 466.17900000000003 220.52399999999994 466.095 220.77199999999996 465.80800000000005 220.91499999999996 C 465.451 220.93799999999996 465.08500000000004 220.96299999999997 464.72 220.98699999999997 C 462.269 220.79299999999998 459.90900000000005 220.42499999999995 458.19100000000003 220.53499999999997 C 457.77700000000004 220.61099999999996 457.81800000000004 220.85499999999996 457.91400000000004 221.12199999999996 C 454.987 221.14599999999996 452.057 221.18199999999996 449.12100000000004 221.19199999999995 C 449.119 221.89199999999994 449.11600000000004 222.82699999999994 449.11500000000007 223.34999999999994 C 438.9650000000001 223.49799999999993 422.72800000000007 223.73699999999994 410.04800000000006 224.31299999999993 C 397.3670000000001 224.91299999999993 388.25000000000006 225.98299999999992 392.3310000000001 228.27999999999994 L 400.43500000000006 228.21499999999995 C 400.44100000000003 228.87899999999993 400.45200000000006 230.20699999999994 400.45200000000006 230.20699999999994 C 410.55100000000004 230.57399999999993 422.21900000000005 230.82699999999994 433.50000000000006 231.19099999999995 C 437.21100000000007 230.96399999999994 440.9220000000001 230.80399999999995 444.61500000000007 230.74999999999994 C 465.2630000000001 230.41399999999993 485.9220000000001 230.08099999999993 508.7030000000001 232.29399999999995 C 510.6330000000001 232.19699999999995 512.897 232.11899999999994 515.3380000000001 232.02999999999994 C 517.46 231.81099999999995 519.5360000000001 231.49499999999995 520.9810000000001 231.14599999999996 C 521.5120000000001 231.33999999999995 522.0380000000001 231.53299999999996 522.5640000000001 231.72599999999997 C 530.167 231.34299999999996 538.2320000000001 230.65099999999998 543.594 228.96899999999997 C 547.609 229.79599999999996 551.354 230.66599999999997 554.7560000000001 231.56299999999996 C 557.2350000000001 231.59699999999995 559.6800000000001 231.72599999999997 562.0860000000001 232.01499999999996 C 577.8500000000001 234.01299999999995 579.3030000000001 240.27299999999997 580.9590000000002 245.66099999999994 C 579.4980000000002 245.94099999999995 578.0370000000001 246.26599999999993 576.5740000000002 246.61999999999995 C 578.2200000000001 247.03299999999996 579.8630000000002 247.49199999999996 581.4980000000002 248.04199999999994 C 580.7870000000001 248.20299999999995 581.4080000000001 248.76899999999995 582.0140000000001 249.33199999999994 C 582.6510000000001 249.89899999999994 583.1450000000001 250.44999999999993 582.5060000000001 250.61799999999994 C 581.6210000000001 250.84699999999995 578.5330000000001 248.95299999999995 576.2500000000001 248.81999999999994 C 570.3500000000001 248.88499999999993 568.4670000000001 251.26599999999993 567.7150000000001 253.31999999999994 C 567.4610000000001 254.00899999999993 564.5140000000001 253.52799999999993 562.5330000000001 253.34599999999995 C 563.1440000000001 254.69999999999996 561.6250000000001 255.48099999999994 560.0450000000001 256.35999999999996 C 558.4570000000001 257.23299999999995 556.811 258.09999999999997 556.9920000000001 259.381 C 554.6970000000001 259.263 551.7990000000001 258.92699999999996 549.2280000000001 259.04699999999997 C 550.1990000000001 259.599 550.9680000000001 260.171 551.402 260.76899999999995 C 551.345 260.96199999999993 550.9100000000001 261.22599999999994 550.273 261.50999999999993 C 549.878 261.9289999999999 548.966 262.34299999999996 547.345 262.75199999999995 C 547.164 262.73299999999995 547.003 262.715 546.832 262.69599999999997 C 544.774 263.27099999999996 542.667 263.66999999999996 542.048 263.42499999999995 C 540.417 263.10699999999997 538.904 262.73199999999997 537.47 262.31999999999994 C 533.609 263.40799999999996 529.876 264.5729999999999 526.202 265.7559999999999 C 541.212 272.7559999999999 538.806 284.09399999999994 532.109 293.08199999999994 C 532.13 293.3619999999999 532.1410000000001 293.6429999999999 532.1500000000001 293.9239999999999 L 533.9850000000001 293.7319999999999 L 538.8440000000002 293.4479999999999 C 542.0940000000002 293.2989999999999 545.3500000000001 293.1479999999999 548.6190000000001 292.9989999999999 C 555.1620000000001 292.7459999999999 561.7710000000002 292.5919999999999 568.5140000000001 292.5679999999999 C 572.1020000000001 292.4119999999999 575.4090000000001 293.26399999999995 575.8070000000001 294.45899999999995 C 576.2170000000001 295.6449999999999 573.6060000000001 296.74899999999997 570.0260000000002 296.905 C 554.8880000000001 297.726 539.9520000000002 298.98199999999997 525.0940000000002 300.47499999999997 C 526.1350000000002 300.65299999999996 527.0050000000001 300.89099999999996 527.6330000000002 301.21399999999994 C 531.6540000000001 303.28299999999996 525.8420000000001 305.68699999999995 526.5460000000002 307.86499999999995 C 527.2950000000002 307.7939999999999 528.0430000000001 307.722 528.7930000000001 307.65099999999995 L 535.0330000000001 307.07199999999995 L 541.3260000000001 306.756 C 545.5310000000002 306.566 549.7440000000001 306.373 553.9710000000001 306.183 C 554.6450000000001 306.09499999999997 555.3500000000001 306.217 555.5920000000001 306.445 C 555.8360000000001 306.675 555.4730000000001 306.90999999999997 554.791 306.99399999999997 C 549.773 307.65099999999995 544.7090000000001 308.23199999999997 539.6170000000001 308.775 C 542.3750000000001 308.685 544.9770000000001 308.59999999999997 546.844 308.539 C 551.6080000000001 310.19599999999997 542.2700000000001 313.953 546.994 313.84 C 554.096 314.55499999999995 562.351 314.578 571.195 314.366 C 580.009 314.207 589.4140000000001 314.03499999999997 598.812 313.865 C 598.839 315.646 603.513 317.35 594.134 318.322 z M 463.569 360.402 C 464.66700000000003 360.358 465.771 360.317 466.85400000000004 360.267 L 466.81300000000005 359.366 C 465.737 359.716 464.655 360.062 463.569 360.402 z" stroke-linecap="round" />
</g>
</svg>