<?xml version="1.0" encoding="UTF-8" standalone="no" ?>
<!DOCTYPE svg PUBLIC "-//W3C//DTD SVG 1.1//EN" "http://www.w3.org/Graphics/SVG/1.1/DTD/svg11.dtd">
<svg xmlns="http://www.w3.org/2000/svg" xmlns:xlink="http://www.w3.org/1999/xlink" version="1.1" width="210" height="210" viewBox="0 0 210 210" xml:space="preserve">
<desc>Created with Fabric.js 4.6.0</desc>
<defs>
</defs>
<g transform="matrix(0.19 -0.19 0.19 0.19 150.25 141.39)" id="oJX_JSzJeFPZRPgQ3WNKk"  >
<path style="stroke: none; stroke-width: 1; stroke-dasharray: none; stroke-linecap: butt; stroke-dashoffset: 0; stroke-linejoin: miter; stroke-miterlimit: 4; fill: rgb(255,255,255); fill-rule: nonzero; opacity: 1;" vector-effect="non-scaling-stroke"  transform=" translate(-299.99, -300)" d="M 593.32 241.689 C 593.0150000000001 241.662 592.7080000000001 241.637 592.397 241.612 L 593.187 241.54399999999998 L 592.708 241.48399999999998 C 592.55 241.52899999999997 592.414 241.56799999999998 592.288 241.60299999999998 C 589.6320000000001 241.39399999999998 586.86 241.23 584.861 240.95 C 583.575 240.302 582.74 239.998 581.3149999999999 239.47899999999998 C 579.0459999999999 238.65699999999998 584.088 237.70999999999998 585.382 237.344 C 581.399 236.033 574.4259999999999 235.93699999999998 566.4459999999999 236.309 C 558.4669999999999 236.695 549.4979999999999 237.676 541.487 238.31 C 539.019 238.55 537.534 239.971 535.064 240.211 C 533.8739999999999 240.07500000000002 532.6899999999999 239.93900000000002 531.504 239.80300000000003 C 529.0310000000001 240.05900000000003 525.277 240.70600000000002 524.088 240.57300000000004 C 514.587 239.51000000000005 497.01 242.88600000000002 486.04499999999996 243.32300000000004 C 478.729 243.60100000000003 471.227 244.92300000000003 462.73599999999993 245.07600000000002 C 455.5109999999999 244.83200000000002 444.25899999999996 246.83900000000003 434.3929999999999 247.86800000000002 C 433.1149999999999 248.26000000000002 431.8349999999999 248.64800000000002 430.5519999999999 249.04200000000003 C 426.8069999999999 249.69100000000003 420.7729999999999 249.56200000000004 419.49799999999993 249.95300000000003 C 405.6859999999999 252.66000000000003 392.2509999999999 253.23300000000003 380.99299999999994 255.07300000000004 C 363.81699999999995 257.44800000000004 346.8279999999999 258.80800000000005 331.04999999999995 261.01700000000005 L 330.078 260.48800000000006 C 328.4 260.95000000000005 326.74199999999996 261.32800000000003 326.284 261.71900000000005 C 325.324 261.8670000000001 324.366 262.02000000000004 323.416 262.1770000000001 C 320.765 262.1260000000001 318.574 262.4170000000001 316.957 263.3280000000001 C 314.906 263.19200000000006 316.199 262.8540000000001 315.016 262.6760000000001 C 311.975 263.1420000000001 308.66 263.4850000000001 305.259 263.7260000000001 C 304.22200000000004 263.5680000000001 302.716 263.51100000000014 299.60400000000004 263.7750000000001 L 299.54400000000004 264.0330000000001 C 297.04 264.12500000000006 294.54 264.1570000000001 292.11300000000006 264.07700000000006 C 284.494 263.8910000000001 277.61500000000007 263.22900000000004 273.5830000000001 262.25600000000003 C 268.1180000000001 264.58500000000004 261.0870000000001 263.15200000000004 254.7090000000001 264.035 C 247.1560000000001 264.65500000000003 238.1260000000001 266.216 232.1550000000001 265.3 C 231.96900000000008 265.281 231.79500000000007 265.273 231.6090000000001 265.255 C 231.76700000000008 264.61 227.9190000000001 263.834 229.2820000000001 263.231 C 224.14800000000008 262.965 219.06500000000008 262.812 214.0040000000001 262.723 C 208.9210000000001 262.547 203.8530000000001 262.40500000000003 198.78000000000011 262.30600000000004 C 193.71000000000012 262.242 132.79200000000012 262.05400000000003 127.67900000000012 261.86 C 122.56500000000011 261.654 117.41700000000012 261.498 112.22200000000012 261.152 C 110.43700000000013 261.31399999999996 106.11300000000013 261.264 100.43900000000012 261.072 C 97.60300000000012 260.958 94.42700000000012 260.83 91.06300000000012 260.692 C 87.70700000000012 260.496 84.16500000000012 260.232 80.58000000000011 259.974 C 66.21700000000011 259.06399999999996 51.35900000000011 257.21999999999997 45.29700000000011 256.336 L 44.18700000000011 256.244 C 37.60900000000011 255.21900000000002 29.610000000000113 254.25500000000002 23.87500000000011 254.44700000000003 C 23.21100000000011 254.51300000000003 22.54500000000011 254.57900000000004 21.87400000000011 254.64700000000002 C 21.21200000000011 254.69700000000003 20.54900000000011 254.74900000000002 19.882000000000108 254.80100000000002 C 18.54600000000011 254.913 17.20300000000011 255.02900000000002 15.865000000000109 255.14300000000003 C 16.98100000000011 255.78100000000003 18.015000000000107 256.40200000000004 18.90600000000011 256.994 C 16.29700000000011 256.454 13.696000000000108 255.91800000000003 12.605000000000109 256.19000000000005 C 6.822000000000108 256.244 9.720000000000109 258.08700000000005 11.57500000000011 260.21200000000005 C 12.999000000000109 261.25500000000005 10.666000000000109 262.0210000000001 12.98400000000011 263.24700000000007 C 11.21700000000011 262.8810000000001 10.33200000000011 262.69900000000007 8.55700000000011 262.3330000000001 C 8.21700000000011 263.0130000000001 14.09900000000011 262.9770000000001 12.65000000000011 263.9240000000001 C 10.989000000000111 263.3340000000001 8.98800000000011 263.4180000000001 7.21300000000011 263.0540000000001 C 7.64000000000011 264.1370000000001 13.31700000000011 264.5570000000001 12.86900000000011 265.4630000000001 C 11.86000000000011 265.50700000000006 8.098000000000109 263.2360000000001 7.52400000000011 264.36300000000006 C 7.41000000000011 264.59100000000007 9.19100000000011 264.95500000000004 10.08300000000011 265.1410000000001 C 4.51600000000011 264.4940000000001 1.2170000000001107 265.0590000000001 6.01800000000011 267.2920000000001 C 4.26500000000011 266.9320000000001 1.8860000000001103 265.9690000000001 -0.0039999999998903135 265.7890000000001 C -0.0029999999998903135 265.7970000000001 0.0030000000001096866 265.8030000000001 0.006000000000109687 265.8110000000001 C 0.9240000000001097 266.0210000000001 2.4720000000001097 266.5630000000001 3.3250000000001094 266.7390000000001 C 2.2770000000001094 266.5230000000001 1.2240000000001094 266.3070000000001 0.17400000000010962 266.0890000000001 C 0.3040000000001096 266.2870000000001 0.4570000000001096 266.48700000000014 0.6210000000001097 266.6870000000001 C 1.3790000000001097 266.9790000000001 2.14800000000011 267.2450000000001 2.9680000000001097 267.4130000000001 C 2.2710000000001096 267.27100000000013 1.5720000000001098 267.1270000000001 0.8710000000001097 266.9810000000001 C 1.3150000000001096 267.4670000000001 1.8430000000001097 267.9530000000001 2.4360000000001096 268.4260000000001 C 4.78300000000011 269.6570000000001 6.980000000000109 271.2310000000001 8.34000000000011 271.5090000000001 L 16.54500000000011 273.4260000000001 L 18.60400000000011 273.8940000000001 L 20.65400000000011 274.2750000000001 L 24.75700000000011 275.0040000000001 C 30.232000000000113 275.9580000000001 35.72100000000011 276.8730000000001 41.20400000000011 277.65900000000005 C 41.28000000000011 277.213 40.75200000000011 276.701 41.684000000000104 276.59600000000006 C 44.5900000000001 276.48800000000006 46.705000000000105 278.24500000000006 49.616000000000106 278.13500000000005 L 49.9040000000001 277.43600000000004 C 52.0750000000001 278.01800000000003 54.345000000000105 278.629 56.6540000000001 279.249 C 61.0000000000001 279.63100000000003 65.3280000000001 279.95300000000003 69.6410000000001 280.04400000000004 C 69.55300000000011 279.76800000000003 69.5240000000001 279.521 69.9590000000001 279.46200000000005 C 71.76100000000011 279.42400000000004 74.20700000000011 279.8960000000001 76.76100000000011 280.19700000000006 C 77.14300000000011 280.18700000000007 77.5250000000001 280.1790000000001 77.9000000000001 280.16900000000004 C 78.20500000000011 280.03700000000003 78.3020000000001 279.78900000000004 78.36200000000011 279.63900000000007 C 79.07100000000011 279.7150000000001 79.71900000000011 279.8070000000001 80.34200000000011 279.90200000000004 C 78.07900000000011 280.17600000000004 75.8140000000001 280.43600000000004 73.54800000000012 280.67300000000006 L 62.44000000000011 282.05400000000003 C 60.22100000000011 279.90400000000005 55.74000000000011 278.81600000000003 51.93700000000011 279.187 C 50.524000000000115 279.29900000000004 49.247000000000114 279.705 47.97300000000011 280.232 C 48.59800000000011 280.262 49.20500000000011 280.29200000000003 49.829000000000114 280.322 C 48.027000000000115 280.602 46.54900000000011 281.378 45.094000000000115 282.171 C 44.95800000000011 282.155 44.822000000000116 282.137 44.67700000000011 282.135 C 40.99100000000011 281.22499999999997 36.871000000000116 281.923 33.02500000000011 281.861 L 33.39400000000011 282.726 C 32.66500000000011 282.584 32.18800000000011 282.093 31.400000000000112 282.024 C 31.64000000000011 282.22 31.874000000000112 282.41 32.11300000000011 282.604 L 32.066000000000116 282.59999999999997 C 31.186000000000117 282.21599999999995 30.167000000000115 282.126 29.136000000000116 282.234 C 26.62600000000012 281.13399999999996 23.669000000000118 280.69399999999996 20.63800000000012 280.7 C 20.204000000000118 280.382 19.58900000000012 280.20099999999996 18.90300000000012 280.245 C 18.60500000000012 280.171 18.26200000000012 280.139 18.03500000000012 280.011 C 16.00000000000012 278.8 13.614000000000122 278.10400000000004 11.02900000000012 277.69 C 11.54500000000012 277.9 12.07800000000012 278.114 12.59600000000012 278.324 C 11.84700000000012 278.192 11.10700000000012 278.048 10.30500000000012 278.142 C 10.41700000000012 278.3 10.53600000000012 278.466 10.65100000000012 278.626 C 8.01000000000012 277.70399999999995 4.67900000000012 278.614 3.2180000000001208 280.64099999999996 C 1.7510000000001207 282.67199999999997 2.697000000000121 285.05899999999997 5.333000000000121 285.97799999999995 L 5.715000000000121 286.12299999999993 C 4.493000000000121 286.56999999999994 3.4760000000001208 287.30799999999994 2.9980000000001206 288.42499999999995 C 2.7440000000001206 289.03899999999993 3.1340000000001207 289.71799999999996 3.2960000000001206 290.37199999999996 C 3.3280000000001206 291.34299999999996 4.436000000000121 292.04699999999997 5.76100000000012 291.93699999999995 C 6.12000000000012 291.907 6.45400000000012 291.81699999999995 6.75500000000012 291.68799999999993 C 8.32200000000012 291.83699999999993 9.91300000000012 291.90899999999993 11.44800000000012 292.13899999999995 C 11.754000000000119 292.2049999999999 12.09800000000012 292.06499999999994 12.222000000000119 291.81899999999996 C 12.324000000000119 291.58299999999997 12.162000000000118 291.33699999999993 11.846000000000119 291.27899999999994 C 10.721000000000119 290.97499999999997 9.626000000000118 290.63999999999993 8.53400000000012 290.2969999999999 L 8.30100000000012 290.49799999999993 C 8.32600000000012 290.4119999999999 8.36700000000012 290.33399999999995 8.408000000000118 290.2579999999999 C 8.309000000000118 290.22599999999994 8.209000000000119 290.19499999999994 8.110000000000118 290.16399999999993 C 8.177000000000119 290.1119999999999 8.238000000000119 290.0569999999999 8.309000000000118 290.0079999999999 C 8.390000000000118 290.0199999999999 8.469000000000118 290.0329999999999 8.55100000000012 290.04599999999994 C 8.66300000000012 289.90399999999994 8.798000000000119 289.7749999999999 8.955000000000119 289.6569999999999 C 10.84500000000012 289.7419999999999 12.721000000000119 289.86599999999993 14.52200000000012 290.2699999999999 C 14.62800000000012 290.29799999999994 14.517000000000118 290.74999999999994 14.722000000000119 290.88199999999995 C 14.826000000000118 290.9479999999999 14.930000000000119 291.006 15.039000000000119 291.06399999999996 C 14.718000000000119 291.01199999999994 14.382000000000119 290.97799999999995 14.024000000000118 290.96599999999995 C 12.786000000000119 291.75199999999995 12.319000000000118 292.04699999999997 11.995000000000118 292.25299999999993 L 11.989000000000118 292.24699999999996 C 11.989000000000118 292.24699999999996 11.987000000000117 292.24899999999997 11.893000000000118 292.31699999999995 C 11.744000000000119 292.41099999999994 11.614000000000118 292.49299999999994 11.425000000000118 292.61299999999994 C 11.425000000000118 292.61299999999994 11.427000000000119 292.62699999999995 11.431000000000118 292.65099999999995 C 11.394000000000117 292.67699999999996 11.354000000000118 292.7049999999999 11.314000000000117 292.73499999999996 L 10.710000000000118 292.729 C 10.483000000000118 292.721 10.277000000000118 292.829 10.187000000000118 292.978 C 10.095000000000118 292.882 9.998000000000118 292.784 9.879000000000119 292.69 C 8.723000000000118 292.632 8.723000000000118 292.632 7.540000000000118 292.598 C 7.540000000000118 292.598 7.558000000000118 292.708 7.616000000000118 292.856 C 7.572000000000118 292.872 7.202000000000118 293.041 6.744000000000118 293.042 C 6.3120000000001175 293.11999999999995 6.3120000000001175 293.11999999999995 5.207000000000118 293.08599999999996 C 5.207000000000118 293.08599999999996 5.207000000000118 293.08599999999996 5.789000000000118 293.44599999999997 C 5.789000000000118 293.44599999999997 5.789000000000118 293.44599999999997 5.290000000000118 293.20899999999995 C 5.290000000000118 293.20899999999995 5.290000000000118 293.20899999999995 5.477000000000118 293.68399999999997 C 5.477000000000118 293.68399999999997 5.477000000000118 293.68399999999997 5.193000000000119 293.179 C 5.193000000000119 293.179 5.193000000000119 293.179 5.051000000000118 293.60699999999997 C 5.051000000000118 293.60699999999997 5.047000000000119 293.60299999999995 3.984000000000118 292.56399999999996 C 3.917000000000118 292.59999999999997 3.7570000000001182 292.68199999999996 3.356000000000118 292.888 C 3.356000000000118 292.888 3.254000000000118 293.01599999999996 3.187000000000118 293.15999999999997 C 3.1970000000001177 293.304 3.1970000000001177 293.304 2.906000000000118 293.85099999999994 C 2.906000000000118 293.85099999999994 2.9200000000001176 294.01699999999994 2.9800000000001177 294.18699999999995 C 3.112000000000118 294.33299999999997 3.112000000000118 294.33299999999997 3.2020000000001176 294.77899999999994 C 3.2020000000001176 294.77899999999994 3.3510000000001177 294.93699999999995 3.5530000000001176 295.0609999999999 C 3.7390000000001176 295.12499999999994 3.7870000000001176 295.1409999999999 4.470000000000118 295.3309999999999 C 4.424000000000118 295.4129999999999 4.382000000000118 295.5009999999999 4.346000000000118 295.5909999999999 C 4.336000000000118 296.4409999999999 4.337000000000118 296.4409999999999 5.407000000000118 298.2719999999999 C 5.407000000000118 298.2719999999999 5.928000000000118 298.7399999999999 6.707000000000118 299.02299999999985 C 7.171000000000118 299.05499999999984 7.390000000000118 299.0699999999999 7.6420000000001185 299.08799999999985 C 6.063000000000119 299.41999999999985 4.651000000000119 299.96099999999984 3.6370000000001186 300.68399999999986 C 0.9550000000001186 302.59699999999987 2.0270000000001183 305.05199999999985 6.036000000000119 306.17499999999984 L 6.616000000000119 306.35099999999983 C 4.604000000000118 306.70099999999985 2.861000000000119 307.3569999999998 1.9060000000001187 308.43499999999983 C 1.3960000000001187 309.0269999999998 1.8920000000001187 309.7359999999998 2.0320000000001186 310.3999999999998 C 1.9100000000001187 311.3729999999998 3.5360000000001186 312.1639999999998 5.654000000000119 312.1579999999998 C 6.229000000000119 312.1559999999998 6.776000000000119 312.0919999999998 7.275000000000119 311.9879999999998 C 8.315000000000119 312.1009999999998 9.36000000000012 312.2089999999998 10.407000000000119 312.3119999999998 C 10.693000000000119 312.5739999999998 11.00900000000012 312.81799999999976 11.376000000000118 313.0189999999998 L 11.621000000000118 313.1989999999998 C 10.223000000000118 313.0949999999998 10.060000000000118 313.0839999999998 8.357000000000118 312.95699999999977 C 8.357000000000118 312.95699999999977 8.365000000000117 313.06599999999975 8.431000000000118 313.21899999999977 C 8.358000000000118 313.23099999999977 7.7430000000001185 313.37099999999975 7.018000000000118 313.3359999999998 C 6.322000000000118 313.3789999999998 6.322000000000118 313.3789999999998 4.577000000000118 313.25999999999976 C 4.577000000000118 313.25999999999976 4.577000000000118 313.25999999999976 5.434000000000118 313.66199999999975 C 5.434000000000118 313.66199999999975 5.434000000000118 313.66199999999975 4.687000000000118 313.3889999999997 C 4.687000000000118 313.3889999999997 4.687000000000118 313.3889999999997 4.896000000000118 313.8769999999997 C 4.896000000000118 313.8769999999997 4.896000000000118 313.8769999999997 4.538000000000118 313.34999999999974 C 4.538000000000118 313.34999999999974 4.538000000000118 313.34999999999974 4.237000000000118 313.7639999999997 C 4.237000000000118 313.7639999999997 4.232000000000118 313.7599999999997 2.734000000000118 312.64099999999974 C 2.622000000000118 312.66999999999973 2.354000000000118 312.73899999999975 1.682000000000118 312.91399999999976 C 1.682000000000118 312.91399999999976 1.4980000000001181 313.0329999999998 1.366000000000118 313.17399999999975 C 1.358000000000118 313.3169999999997 1.3570000000001181 313.3169999999997 0.7990000000001181 313.83999999999975 C 0.7990000000001181 313.83999999999975 0.793000000000118 314.00599999999974 0.8570000000001181 314.1799999999997 C 1.041000000000118 314.33799999999974 1.041000000000118 314.33799999999974 1.103000000000118 314.7909999999997 C 1.103000000000118 314.7909999999997 1.311000000000118 314.9569999999997 1.6090000000001181 315.09799999999973 C 1.892000000000118 315.1759999999997 1.965000000000118 315.19599999999974 3.010000000000118 315.4399999999997 C 2.924000000000118 315.5179999999997 2.8420000000001178 315.6019999999997 2.7700000000001177 315.6879999999997 C 2.603000000000118 316.5399999999997 2.603000000000118 316.5359999999997 3.9720000000001177 318.4439999999997 C 3.9720000000001177 318.4439999999997 4.714000000000118 318.95399999999967 5.8970000000001175 319.29799999999966 C 7.260000000000117 319.42899999999963 7.260000000000117 319.42899999999963 8.832000000000118 319.57899999999967 C 8.832000000000118 319.57899999999967 9.176000000000117 319.62799999999964 9.767000000000118 319.71199999999965 C 10.218000000000119 320.01499999999965 10.318000000000119 320.09499999999963 10.653000000000118 320.36999999999966 C 10.653000000000118 320.36999999999966 10.656000000000118 320.36999999999966 10.660000000000117 320.3739999999997 C 10.362000000000117 320.4029999999997 10.071000000000117 320.4699999999997 9.831000000000117 320.5689999999997 C 9.137000000000118 320.86799999999965 9.057000000000116 321.3479999999997 9.660000000000117 321.65099999999967 C 8.931000000000118 322.9729999999997 9.439000000000117 324.12999999999965 10.464000000000118 325.21699999999964 C 10.180000000000117 325.65499999999963 10.059000000000118 326.11299999999966 10.116000000000117 326.5759999999996 C 9.006000000000117 327.7209999999996 8.335000000000116 328.9219999999996 8.083000000000117 330.18099999999964 L 7.986000000000117 331.27899999999966 C 8.353000000000117 332.1889999999997 9.348000000000116 333.01899999999966 10.803000000000118 333.63099999999963 L 11.246000000000118 333.8789999999996 L 10.869000000000117 334.7949999999996 C 12.788000000000117 337.1269999999996 16.477000000000118 338.92399999999964 18.789000000000115 341.1349999999996 L 20.508000000000116 342.2829999999996 C 21.761000000000116 343.2129999999996 23.719000000000115 343.8609999999996 25.996000000000116 344.1269999999996 L 28.402000000000115 344.3869999999996 C 28.906000000000116 344.3829999999996 29.406000000000116 344.3789999999996 29.914000000000115 344.3709999999996 C 27.401000000000117 345.5799999999996 26.055000000000113 347.2749999999996 26.578000000000117 348.9999999999996 C 27.473000000000116 351.8359999999996 33.188000000000116 353.6639999999996 39.390000000000114 353.1209999999996 C 43.329000000000114 352.9859999999996 47.225000000000115 352.8459999999996 51.112000000000116 352.68699999999956 C 46.884000000000114 353.27699999999953 42.41300000000012 354.04799999999955 38.51100000000012 354.08899999999954 C 37.34600000000012 354.9409999999995 34.22900000000011 354.3159999999995 31.141000000000115 355.26099999999957 L 32.573000000000114 355.9089999999996 C 36.08000000000011 356.61199999999957 43.972000000000115 355.18399999999957 49.51100000000011 354.9709999999996 L 49.33900000000011 355.4159999999996 C 48.19700000000011 355.6679999999996 47.39700000000011 356.1089999999996 45.94700000000011 356.05899999999957 L 45.64900000000011 356.8419999999996 C 48.330000000000105 359.18199999999956 55.510000000000105 355.2069999999996 57.54500000000011 355.3729999999996 C 61.85800000000011 355.6349999999996 54.94200000000011 357.2599999999996 56.95400000000011 356.93899999999957 C 52.39500000000011 358.4309999999996 61.03800000000011 358.35499999999956 63.10300000000011 359.00699999999955 C 68.7720000000001 360.1379999999995 80.73700000000011 357.9599999999995 87.9890000000001 357.1259999999996 C 99.89200000000011 353.9759999999996 116.24300000000011 354.11199999999957 127.4390000000001 352.85999999999956 C 130.13800000000012 352.67199999999957 189.4000000000001 351.66499999999957 192.6130000000001 350.90099999999956 C 193.1660000000001 350.76199999999955 193.7080000000001 350.63699999999955 194.2430000000001 350.52199999999954 C 193.9330000000001 351.22099999999955 198.3060000000001 351.28599999999955 200.9280000000001 351.5469999999995 C 200.2370000000001 351.6409999999995 200.07300000000012 351.7849999999995 199.13300000000012 351.7459999999995 C 198.3210000000001 351.7729999999995 198.48600000000013 351.6269999999995 198.36200000000014 351.55999999999955 L 196.72900000000013 351.61499999999955 C 196.68700000000013 351.82999999999953 197.01600000000013 352.24199999999956 194.85600000000014 352.2439999999996 L 193.58700000000013 351.79299999999955 C 189.31300000000013 351.58599999999956 187.22300000000013 352.56999999999954 192.73400000000012 352.73999999999955 L 193.22400000000013 352.2989999999996 L 198.48700000000014 353.0389999999996 C 199.33900000000014 353.5019999999996 195.99300000000014 353.3319999999996 195.91700000000014 353.7599999999996 C 195.14200000000014 354.2809999999996 199.67500000000015 354.6209999999996 201.67200000000014 354.7639999999996 C 203.75100000000015 354.4829999999996 200.40200000000013 354.3149999999996 198.94000000000014 354.2229999999996 L 201.91200000000015 353.4869999999996 C 202.72600000000014 353.45999999999964 203.91500000000013 353.6319999999996 203.87100000000015 353.84399999999965 C 204.77800000000016 354.09599999999966 203.71300000000016 354.69599999999963 205.34600000000015 354.64299999999963 C 210.04200000000014 354.8359999999996 205.62600000000015 353.85599999999965 209.54900000000015 353.86599999999964 C 208.47900000000016 353.05299999999966 201.91200000000015 352.78199999999964 199.83100000000016 352.3599999999997 L 198.08000000000015 352.34599999999966 C 197.34500000000014 351.94999999999965 200.92800000000017 352.25199999999967 198.27900000000017 351.98899999999963 C 202.68200000000016 351.5569999999996 208.96300000000016 352.61399999999963 212.23300000000017 353.20999999999964 C 212.28000000000017 353.70199999999966 215.83600000000018 354.2179999999996 213.02200000000016 354.80799999999965 C 214.49400000000017 354.89999999999964 215.23000000000016 355.29599999999965 217.27400000000017 355.2299999999997 C 222.81500000000017 354.47599999999966 225.19800000000018 355.5249999999997 230.09700000000018 355.36099999999965 C 229.44000000000017 355.2419999999996 230.42300000000017 355.06799999999964 230.5750000000002 354.9219999999996 C 233.47900000000018 355.09399999999965 233.53100000000018 355.5019999999996 233.3510000000002 355.8889999999996 C 232.4370000000002 355.8619999999996 231.3510000000002 355.7249999999996 230.1170000000002 355.87099999999964 C 228.50700000000018 356.34599999999966 228.03100000000018 356.75999999999965 225.8680000000002 357.15399999999966 C 220.3010000000002 356.82199999999966 217.06800000000018 357.98799999999966 212.0710000000002 357.51499999999965 C 211.34200000000018 358.24399999999963 208.2870000000002 358.60299999999967 210.6960000000002 359.23999999999967 C 205.5130000000002 359.13299999999964 200.8750000000002 358.72399999999965 195.8470000000002 358.67599999999965 C 195.5010000000002 358.7949999999997 195.1430000000002 358.91599999999966 194.80200000000022 359.03099999999966 C 193.6390000000002 360.45699999999965 188.5200000000002 363.47799999999967 193.92200000000022 363.87699999999967 C 193.7590000000002 363.8259999999997 193.52300000000022 363.77699999999965 193.13700000000023 363.7339999999997 C 193.28300000000021 363.3669999999997 193.75100000000023 363.1769999999997 195.23600000000022 362.8859999999997 C 196.5790000000002 362.96599999999967 199.6380000000002 362.66099999999966 199.1510000000002 363.0639999999997 L 198.81300000000022 363.0969999999997 C 198.9020000000002 363.3669999999997 200.5430000000002 363.8629999999997 202.23800000000023 363.6499999999997 C 202.60200000000023 363.3939999999997 201.17200000000022 363.0679999999997 202.78400000000022 362.5929999999997 C 204.81900000000022 362.34899999999965 207.2870000000002 362.34099999999967 208.9480000000002 362.56999999999965 L 210.4710000000002 361.82199999999966 C 212.4900000000002 361.7969999999997 213.0300000000002 362.0859999999997 214.4750000000002 362.19899999999967 L 213.4330000000002 362.5329999999997 C 214.20400000000018 362.72799999999967 213.59700000000018 363.2949999999997 216.1890000000002 363.1329999999997 C 217.9060000000002 362.7149999999997 218.24600000000018 362.6759999999997 220.5190000000002 362.3339999999997 C 223.2860000000002 362.7169999999997 228.0610000000002 361.9359999999997 231.3200000000002 361.9039999999997 C 234.4400000000002 360.6809999999997 241.0850000000002 361.8119999999997 243.4380000000002 360.39599999999973 C 248.7140000000002 360.3389999999997 249.22300000000018 359.4979999999997 251.9700000000002 358.74599999999975 C 256.0850000000002 359.1799999999998 246.7220000000002 359.9349999999998 248.9280000000002 360.45499999999976 C 254.8830000000002 360.3119999999998 261.3410000000002 359.5959999999998 267.4050000000002 359.10499999999973 C 268.9000000000002 358.5409999999997 266.2300000000002 358.27499999999975 269.3860000000002 357.89999999999975 C 268.3610000000002 358.2569999999998 269.5620000000002 358.65999999999974 270.6880000000002 358.56999999999977 C 269.4550000000002 358.6029999999998 270.7000000000002 358.3529999999998 270.82900000000024 358.1969999999998 L 269.9310000000002 358.1789999999998 C 269.2120000000002 357.1419999999998 274.1980000000002 357.9309999999998 276.25700000000023 357.2139999999998 C 277.2480000000002 357.5009999999998 275.13200000000023 357.3039999999998 274.9980000000002 357.67499999999984 C 275.0350000000002 357.89799999999985 275.2730000000002 358.11999999999983 275.7790000000002 358.29399999999987 C 275.7380000000002 358.30199999999985 275.69900000000024 358.3099999999999 275.65600000000023 358.3149999999999 L 275.8270000000002 358.31099999999986 C 276.43900000000025 358.5099999999999 277.4260000000002 358.63899999999984 278.97100000000023 358.60999999999984 C 284.6370000000002 357.52599999999984 288.73900000000026 358.29899999999986 295.0560000000002 357.54899999999986 C 294.7380000000002 357.1639999999999 296.5290000000002 357.1969999999999 297.5450000000002 357.0529999999999 C 296.2900000000002 357.5159999999999 298.8530000000002 357.7229999999999 300.0880000000002 357.6919999999999 C 301.5680000000002 357.3399999999999 301.71900000000016 356.5359999999999 304.0790000000002 356.4169999999999 L 302.4290000000002 355.79599999999994 C 301.5340000000002 355.77799999999996 298.3660000000002 356.36999999999995 296.7830000000002 356.66299999999995 C 295.7030000000002 355.88999999999993 288.8820000000002 357.70799999999997 289.51200000000017 356.4789999999999 L 290.5190000000002 356.55099999999993 C 294.2010000000002 356.6719999999999 295.96000000000015 355.35599999999994 299.35400000000016 354.6599999999999 C 302.15000000000015 354.7639999999999 303.13100000000014 355.26699999999994 305.0190000000002 355.56999999999994 C 307.25800000000015 355.6089999999999 307.83500000000015 355.2439999999999 308.9710000000002 354.93699999999995 C 310.8910000000002 354.597 311.8860000000002 354.88599999999997 313.00300000000016 355.01099999999997 C 313.67600000000016 354.91499999999996 312.67400000000015 354.84299999999996 313.35100000000017 354.74699999999996 C 314.2470000000002 354.76499999999993 315.2520000000002 354.83699999999993 315.92800000000017 354.739 C 316.19000000000017 353.989 312.47600000000017 354.301 310.2370000000002 354.26 C 310.80300000000017 354.11 310.9250000000002 353.95099999999996 311.7130000000002 353.90999999999997 C 312.38700000000017 353.81399999999996 312.2650000000002 353.974 312.3760000000002 354.03099999999995 L 313.7310000000002 353.83799999999997 C 313.7370000000002 353.748 313.6910000000002 353.62899999999996 313.75900000000024 353.506 C 313.90500000000026 353.45899999999995 314.07400000000024 353.416 314.30500000000023 353.39099999999996 L 313.79900000000026 353.448 C 313.84000000000026 353.40299999999996 313.9040000000003 353.35999999999996 313.99400000000026 353.317 C 314.6110000000003 353.286 315.2430000000003 353.26800000000003 315.89100000000025 353.266 L 316.32900000000024 353.401 C 316.7720000000002 353.38300000000004 317.18400000000025 353.348 317.5580000000002 353.303 C 317.79000000000025 353.313 318.00700000000023 353.30899999999997 318.2460000000002 353.323 C 318.3160000000002 353.26399999999995 318.4080000000002 353.20799999999997 318.5090000000002 353.15099999999995 C 319.2520000000002 352.99899999999997 319.7060000000002 352.80699999999996 319.74800000000016 352.64899999999994 C 320.8550000000002 352.26399999999995 321.78400000000016 351.94599999999997 319.89200000000017 351.56499999999994 C 326.08200000000016 351.5319999999999 331.6440000000002 351.89099999999996 337.65700000000015 351.68399999999997 C 338.0670000000002 351.553 338.4950000000002 351.41299999999995 338.9010000000002 351.282 C 339.7490000000002 350.382 342.37500000000017 348.76599999999996 342.71400000000017 347.64099999999996 C 343.1460000000002 347.59399999999994 343.56800000000015 347.54099999999994 343.98200000000014 347.489 C 345.69800000000015 347.49899999999997 347.41500000000013 347.50899999999996 349.13500000000016 347.518 C 348.85600000000017 347.282 348.77200000000016 346.969 348.69000000000017 346.657 C 348.1360000000002 346.876 347.47000000000014 346.954 346.80400000000014 347.003 C 347.89600000000013 346.76099999999997 348.87100000000015 346.472 349.65900000000016 346.10699999999997 C 350.6340000000002 346.40599999999995 351.6850000000002 346.62699999999995 352.79100000000017 346.79299999999995 C 352.94800000000015 347.56399999999996 354.07500000000016 348.21899999999994 356.2880000000002 348.67999999999995 C 361.6750000000002 349.37299999999993 368.6840000000002 349.77599999999995 376.2320000000002 349.47099999999995 C 377.6290000000002 349.04299999999995 379.0890000000002 348.6209999999999 380.7430000000002 348.22499999999997 L 385.4890000000002 348.268 C 389.59600000000023 347.77599999999995 394.3400000000002 347.049 397.34600000000023 346.04499999999996 C 399.63100000000026 345.90399999999994 401.90500000000026 345.758 404.1590000000002 345.604 C 403.75700000000023 345.526 403.3680000000002 345.43399999999997 402.9880000000002 345.334 C 404.1930000000002 345.16 405.44400000000024 344.973 406.37400000000025 344.684 C 406.90700000000027 344.639 407.44900000000024 344.59200000000004 407.9980000000003 344.543 C 409.13300000000027 344.648 409.4080000000003 344.936 410.4640000000003 345.121 C 415.0480000000003 344.111 421.1350000000003 344.4 425.6760000000003 343.123 C 427.9780000000003 343.98 432.3340000000003 341.57 435.04400000000027 342.301 C 437.1830000000003 342.188 439.36700000000025 341.912 441.27500000000026 341.567 C 436.13900000000024 343.827 424.6130000000003 343.69 416.63800000000026 344.622 L 416.65600000000023 344.692 C 426.89100000000025 343.913 436.9210000000002 343.047 447.00900000000024 342.213 C 445.15500000000026 342.108 443.43100000000027 341.867 441.87000000000023 341.45300000000003 C 444.2550000000002 340.98800000000006 446.1180000000002 340.418 446.7360000000002 339.932 C 446.7670000000002 340.13300000000004 445.1650000000002 340.889 447.32200000000023 340.877 C 447.7290000000002 340.754 448.56600000000026 340.572 448.5560000000002 340.508 C 448.9760000000002 340.45099999999996 452.82900000000024 340.281 454.0420000000002 339.779 C 454.5430000000002 339.588 454.6870000000002 339.468 454.5530000000002 339.377 C 449.4530000000002 339.156 460.1280000000002 335.322 463.8280000000002 333.572 C 464.4040000000002 333.416 464.9880000000002 333.258 465.5640000000002 333.099 C 463.4000000000002 333.191 461.0390000000002 333.378 458.25500000000017 333.767 C 459.1510000000002 333.99 454.9130000000002 334.484 457.0810000000002 334.537 C 457.50500000000017 334.47999999999996 457.9140000000002 334.35699999999997 458.3360000000002 334.301 L 461.36100000000016 334.311 C 458.86600000000016 334.916 452.8890000000002 335.299 451.30300000000017 336.19 C 448.3190000000002 336.381 447.38300000000015 335.96 445.63000000000017 335.784 C 441.08900000000017 336.317 435.68100000000015 336.528 431.9730000000002 337.497 C 430.7690000000002 337.099 429.97400000000016 336.73900000000003 430.1940000000002 336.462 C 434.6720000000002 332.521 443.2210000000002 333.34299999999996 454.7690000000002 330.45 C 457.95000000000016 329.768 452.4030000000002 330.091 452.22200000000015 329.47499999999997 C 452.67200000000014 329.10799999999995 453.27200000000016 328.76399999999995 453.9610000000001 328.43199999999996 C 456.2240000000001 328.116 458.4810000000001 327.78599999999994 460.7310000000001 327.42799999999994 C 460.4070000000001 327.4529999999999 460.0860000000001 327.4789999999999 459.7600000000001 327.50399999999996 C 457.7780000000001 327.74199999999996 455.8570000000001 328.00999999999993 454.0950000000001 328.373 C 456.1640000000001 327.4 458.9980000000001 326.545 461.1960000000001 325.592 C 444.0110000000001 326.488 426.8430000000001 328.219 409.6950000000001 329.969 C 416.1750000000001 329.65999999999997 422.5510000000001 329.528 428.6800000000001 329.793 C 420.2650000000001 330.326 411.82100000000014 330.731 403.32600000000014 331.111 C 403.0620000000001 331.07 402.8000000000001 331.02299999999997 402.53900000000016 330.984 C 402.54700000000014 331.03499999999997 402.56100000000015 331.089 402.57800000000015 331.144 C 399.93800000000016 331.26300000000003 397.29400000000015 331.378 394.64300000000014 331.496 C 391.04400000000015 331.84799999999996 387.45100000000014 332.18699999999995 383.8580000000001 332.519 C 383.3390000000001 332.378 382.83300000000014 332.22 382.33300000000014 332.048 C 386.45300000000015 331.862 390.55700000000013 331.679 394.6440000000001 331.495 C 399.65500000000014 330.985 404.67200000000014 330.47700000000003 409.6950000000001 329.968 C 400.51600000000013 330.37600000000003 391.12900000000013 331.06 381.9740000000001 331.148 C 387.9990000000001 329.99600000000004 394.5930000000001 329.091 401.3000000000001 328.47400000000005 C 396.9540000000001 328.75300000000004 392.5670000000001 329.0330000000001 388.1780000000001 329.314 C 384.81900000000013 329.30600000000004 381.4600000000001 329.29600000000005 379.1080000000001 328.87800000000004 C 383.3970000000001 328.73 386.9770000000001 328.45400000000006 390.3220000000001 327.86800000000005 C 385.74400000000014 328.083 381.1090000000001 328.26400000000007 376.4450000000001 328.4320000000001 C 376.5050000000001 328.3230000000001 376.5220000000001 328.2050000000001 376.5140000000001 328.08200000000005 C 382.09000000000015 327.57000000000005 387.73700000000014 327.01400000000007 393.20800000000014 327.2710000000001 C 392.25600000000014 327.5010000000001 391.30100000000016 327.69500000000005 390.32100000000014 327.8670000000001 C 403.65000000000015 327.2360000000001 416.67400000000015 326.4240000000001 429.60900000000015 325.2630000000001 C 422.54400000000015 324.1130000000001 412.17100000000016 327.0420000000001 404.1080000000002 326.2340000000001 C 432.25000000000017 322.9000000000001 463.50300000000016 322.0680000000001 490.84900000000016 315.8510000000001 C 485.93800000000016 316.3570000000001 481.01600000000013 316.8180000000001 476.07600000000014 317.21800000000013 C 471.1270000000001 317.57500000000016 466.15900000000016 317.88600000000014 461.1370000000001 317.98900000000015 C 463.0310000000001 317.95800000000014 465.1800000000001 317.56900000000013 467.2930000000001 317.22500000000014 C 460.4480000000001 317.9180000000001 454.0290000000001 318.57100000000014 446.9330000000001 319.28900000000016 C 446.9500000000001 319.2640000000002 446.9810000000001 319.24200000000013 447.0070000000001 319.21900000000016 C 431.0860000000001 320.75800000000015 414.9830000000001 321.03500000000014 399.36700000000013 321.30900000000014 C 405.3800000000001 318.84200000000016 409.42000000000013 321.29900000000015 413.7790000000001 320.8580000000001 C 425.6640000000001 319.3830000000001 437.7020000000001 318.4070000000001 448.5550000000001 317.2120000000001 C 444.2110000000001 317.6870000000001 439.8720000000001 318.1590000000001 435.5260000000001 318.6320000000001 C 442.0410000000001 317.91500000000013 447.5620000000001 317.6590000000001 454.2550000000001 317.5150000000001 C 452.3180000000001 318.3630000000001 447.97500000000014 318.2670000000001 447.0070000000001 319.2200000000001 C 456.0320000000001 318.35100000000006 464.9980000000001 317.0870000000001 473.7650000000001 315.2000000000001 C 484.3840000000001 313.2230000000001 478.1180000000001 311.1730000000001 473.8000000000001 311.7060000000001 C 452.07800000000015 314.38400000000007 432.1130000000001 314.6160000000001 411.7280000000001 317.5810000000001 C 402.2040000000001 319.47400000000005 392.4950000000001 320.70400000000006 382.7740000000001 321.90100000000007 C 378.5150000000001 322.05500000000006 372.9620000000001 322.29600000000005 369.1800000000001 322.6720000000001 C 366.9190000000001 321.3280000000001 365.0990000000001 320.1170000000001 365.45600000000013 319.4120000000001 C 369.82100000000014 313.4590000000001 377.36700000000013 314.0530000000001 387.44300000000015 312.2440000000001 C 401.20600000000013 311.93700000000007 425.8600000000001 311.22100000000006 437.15000000000015 309.87500000000006 C 450.80600000000015 308.25000000000006 457.20800000000014 305.9820000000001 458.84500000000014 305.3260000000001 C 460.64600000000013 305.18000000000006 462.44800000000015 305.0330000000001 464.27500000000015 304.8880000000001 C 463.00400000000013 304.7940000000001 461.77900000000017 304.6480000000001 460.58300000000014 304.4640000000001 C 464.9590000000001 304.3590000000001 469.33000000000015 304.2390000000001 473.69300000000015 304.0910000000001 C 466.29100000000017 303.02300000000014 458.62900000000013 302.8470000000001 450.85100000000017 302.96800000000013 C 449.80600000000015 303.0890000000001 448.76000000000016 303.19800000000015 447.71500000000015 303.3100000000001 L 446.33500000000015 303.09300000000013 C 448.14000000000016 302.77300000000014 449.70500000000015 302.48000000000013 450.93900000000014 302.25800000000015 C 452.5700000000001 301.7980000000002 452.4490000000001 301.20600000000013 451.3680000000001 300.54700000000014 C 450.8280000000001 300.21900000000016 450.0460000000001 299.87100000000015 449.1260000000001 299.51800000000014 C 448.8450000000001 299.40800000000013 448.5450000000001 299.2980000000001 448.23500000000007 299.18800000000016 C 450.2580000000001 299.15300000000013 452.27700000000004 299.1270000000002 454.27700000000004 299.1320000000002 C 458.74600000000004 299.15200000000016 463.15000000000003 299.3100000000002 467.46400000000006 299.6700000000002 C 463.13500000000005 299.1160000000002 458.68700000000007 298.8400000000002 454.19800000000004 298.8100000000002 C 451.975 298.8000000000002 449.742 298.84700000000015 447.51000000000005 298.94000000000017 C 447.0210000000001 298.77900000000017 446.50900000000007 298.62100000000015 445.97400000000005 298.4680000000002 C 443.66700000000003 297.7800000000002 441.22 297.1150000000002 439.41900000000004 296.46900000000016 C 437.60200000000003 295.78700000000015 436.46000000000004 295.1820000000002 436.78900000000004 294.73900000000015 C 437.69300000000004 293.88800000000015 438.706 293.20100000000014 439.79600000000005 292.56300000000016 C 440.88400000000007 291.91900000000015 442.0690000000001 291.3770000000002 443.34900000000005 290.9060000000002 C 445.93500000000006 289.94500000000016 448.79400000000004 289.35900000000015 452.04 288.8210000000002 C 457.492 287.9190000000002 463.958 287.1860000000002 471.22400000000005 285.5630000000002 C 474.38300000000004 285.5280000000002 477.54100000000005 285.4330000000002 480.69900000000007 285.2910000000002 C 485.4580000000001 285.0830000000002 490.21600000000007 284.7750000000002 494.9560000000001 284.3320000000002 C 495.49300000000005 283.41100000000023 497.0690000000001 283.0990000000002 498.78800000000007 282.8030000000002 C 500.50300000000004 282.4930000000002 502.36500000000007 282.2200000000002 503.48500000000007 281.4500000000002 C 501.4870000000001 281.4020000000002 499.5830000000001 281.3980000000002 497.7200000000001 281.39600000000024 C 495.8550000000001 281.37800000000027 494.0390000000001 281.39600000000024 492.23300000000006 281.4520000000002 C 488.6190000000001 281.56400000000025 485.04100000000005 281.82900000000024 481.17400000000004 282.2870000000002 L 496.64400000000006 280.4520000000002 C 490.19800000000004 281.21800000000025 483.39400000000006 281.86500000000024 476.4460000000001 282.6110000000002 C 474.8930000000001 282.7850000000002 473.32900000000006 282.9510000000002 471.7580000000001 283.1170000000002 C 471.5060000000001 283.0250000000002 471.3370000000001 282.91600000000017 471.2950000000001 282.7850000000002 C 471.97300000000007 282.1600000000002 472.88200000000006 281.5760000000002 473.9360000000001 281.0200000000002 L 478.8250000000001 280.3250000000002 C 480.7460000000001 280.03300000000024 482.6490000000001 279.62700000000024 484.5540000000001 279.2670000000002 C 484.0440000000001 279.31900000000024 483.54300000000006 279.3730000000002 483.0320000000001 279.42700000000025 C 479.9320000000001 279.94900000000024 476.9030000000001 280.32800000000026 474.1430000000001 280.91500000000025 C 475.1650000000001 280.38800000000026 476.31200000000007 279.88300000000027 477.5160000000001 279.38900000000024 C 478.15400000000005 279.13300000000027 478.80300000000005 278.8730000000002 479.4580000000001 278.6110000000002 C 480.1060000000001 278.32900000000024 480.7580000000001 278.0460000000002 481.4030000000001 277.7650000000002 C 482.6930000000001 277.2020000000002 483.9480000000001 276.63200000000023 485.0850000000001 276.0460000000002 L 480.0510000000001 276.4430000000002 C 478.3750000000001 276.5830000000002 476.6640000000001 276.6250000000002 474.9750000000001 276.73300000000023 C 471.5850000000001 276.9190000000002 468.19900000000007 277.12900000000025 464.81200000000007 277.36000000000024 C 458.04300000000006 277.82800000000026 451.27700000000004 278.3780000000002 444.52900000000005 279.0000000000002 C 441.20500000000004 279.3390000000002 437.88300000000004 279.7790000000002 434.56000000000006 279.9910000000002 L 429.57500000000005 280.40100000000024 L 424.5450000000001 280.7170000000002 C 424.22800000000007 280.74000000000024 423.9050000000001 280.7550000000002 423.5880000000001 280.7770000000002 C 426.54100000000005 278.9040000000002 424.1290000000001 276.7430000000002 421.02900000000005 275.9630000000002 C 425.88300000000004 275.7970000000002 430.684 275.5490000000002 435.38300000000004 275.1640000000002 C 430.01800000000003 274.03100000000023 423.365 274.5250000000002 416.36800000000005 274.9600000000002 C 409.40000000000003 275.4210000000002 402.14500000000004 275.8390000000002 395.88400000000007 274.6900000000002 C 406.94200000000006 273.9980000000002 418.2800000000001 273.60300000000024 429.4220000000001 272.92500000000024 C 432.1660000000001 272.70900000000023 434.9100000000001 272.54700000000025 437.6760000000001 272.30700000000024 C 440.4830000000001 272.02100000000024 443.1570000000001 271.70500000000027 446.1160000000001 271.46100000000024 C 451.9220000000001 270.9400000000002 457.7400000000001 270.4160000000002 463.5540000000001 269.8920000000002 C 466.4580000000001 269.6140000000002 469.3630000000001 269.33800000000025 472.26400000000007 269.06000000000023 C 475.15600000000006 268.7670000000002 478.09100000000007 268.5220000000002 480.86600000000004 268.0770000000002 C 486.485 267.27100000000024 492.071 266.41800000000023 497.595 265.4910000000002 C 503.107 264.65100000000024 508.61400000000003 263.3420000000002 514.015 262.0760000000002 C 519.446 260.7750000000002 524.679 259.4230000000002 529.994 257.86800000000017 C 522.272 259.01700000000017 514.751 260.0810000000002 507.076 261.0600000000002 C 505.168 261.28200000000015 503.23900000000003 261.5740000000002 501.339 261.7160000000002 C 499.435 261.8620000000002 497.528 262.0060000000002 495.61899999999997 262.1500000000002 C 491.80199999999996 262.4160000000002 487.96999999999997 262.6310000000002 484.123 262.7810000000002 C 487.021 262.67100000000016 490.282 261.96900000000016 493.484 261.3480000000002 C 488.27299999999997 262.01500000000016 483.22499999999997 262.6610000000002 478.12899999999996 263.31300000000016 C 472.90299999999996 263.84500000000014 467.52399999999994 264.3050000000002 461.948 264.9370000000002 C 461.972 264.8910000000002 462.02099999999996 264.8550000000002 462.061 264.81500000000017 C 455.78299999999996 265.40700000000015 449.48199999999997 265.87800000000016 443.178 266.2660000000002 L 438.715 266.5800000000002 L 436.491 266.72800000000024 L 434.296 266.79000000000025 C 431.371 266.86200000000025 428.496 266.94600000000025 425.442 266.90000000000026 C 413.591 266.84500000000025 401.44100000000003 266.23700000000025 389.435 265.58600000000024 C 390.124 265.3370000000002 390.782 265.0750000000002 391.398 264.79700000000025 C 391.44800000000004 264.78500000000025 391.497 264.77300000000025 391.54400000000004 264.76100000000025 C 394.76500000000004 265.16300000000024 398.16600000000005 265.02600000000024 400.795 264.6420000000002 C 404.49 265.3210000000002 407.79400000000004 266.49500000000023 411.288 266.3300000000002 C 415.82 265.9820000000002 420.365 265.6360000000002 424.889 265.2900000000002 L 428.238 265.0500000000002 C 429.313 264.9540000000002 430.388 264.85600000000017 431.461 264.7580000000002 C 433.606 264.5420000000002 435.70300000000003 264.4400000000002 437.869 264.1400000000002 C 438.94300000000004 264.01400000000024 440.01500000000004 263.88400000000024 441.084 263.7580000000002 L 442.69 263.5700000000002 L 444.4 263.3980000000002 C 446.676 263.1700000000002 448.935 262.9420000000002 451.17499999999995 262.7160000000002 C 455.65 262.24600000000015 460.04299999999995 261.7870000000002 464.32399999999996 261.33700000000016 C 457.477 262.09700000000015 450.64099999999996 262.8530000000002 443.79299999999995 263.61200000000014 C 454.05999999999995 262.47500000000014 462.7819999999999 262.06300000000016 473.40199999999993 261.99900000000014 C 470.40199999999993 263.41400000000016 463.49999999999994 263.1560000000001 462.0589999999999 264.81300000000016 C 465.6169999999999 264.47700000000015 469.1679999999999 264.10400000000016 472.7079999999999 263.68600000000015 C 474.4669999999999 263.4660000000001 476.2749999999999 263.28200000000015 477.9829999999999 263.0020000000001 L 483.0709999999999 262.10500000000013 C 489.8449999999999 260.83700000000016 496.5179999999999 259.47400000000016 503.12299999999993 257.6990000000001 C 505.27099999999996 257.1590000000001 506.9429999999999 256.6350000000001 508.23299999999995 256.13300000000015 C 493.23799999999994 256.23400000000015 475.52199999999993 256.34000000000015 464.52199999999993 256.43400000000014 C 466.92599999999993 256.17400000000015 469.30999999999995 255.94200000000015 471.62199999999996 255.71000000000015 C 487.38899999999995 255.71200000000016 499.73499999999996 255.71900000000014 509.191 255.73100000000014 C 515.9599999999999 252.67300000000014 508.034 250.61700000000013 502.572 251.61200000000014 C 502.443 251.63800000000015 502.318 251.65700000000012 502.19100000000003 251.68100000000013 C 501.586 251.71800000000013 501.011 251.74300000000014 500.47900000000004 251.75100000000012 L 500.53000000000003 251.46100000000013 C 501.72900000000004 251.31200000000013 502.923 251.15700000000012 504.11 250.99100000000013 C 509.59700000000004 250.90900000000013 516.1560000000001 250.47700000000012 518.0020000000001 251.19600000000014 C 520.1990000000001 249.74000000000015 515.738 250.30800000000013 511.7990000000001 250.71600000000015 C 516.1410000000001 250.16500000000016 521.3240000000001 249.36300000000014 526.0670000000001 248.92200000000014 C 524.1870000000001 249.32500000000013 522.8840000000001 249.96900000000014 520.7100000000002 249.58700000000013 C 519.6510000000002 250.10700000000014 520.0940000000002 250.36700000000013 521.5080000000002 250.52300000000014 C 525.8210000000001 249.78300000000013 533.9900000000001 249.66600000000014 534.4120000000001 248.69700000000014 C 535.2810000000002 248.76900000000015 536.0780000000002 248.88400000000016 536.7810000000002 249.05400000000014 L 538.9040000000002 248.03100000000015 L 539.8550000000002 248.14500000000015 C 539.5990000000003 248.04200000000014 539.3130000000002 247.95100000000016 539.0090000000002 247.86700000000016 C 544.6060000000002 247.17900000000017 550.6800000000003 246.87800000000016 554.8400000000003 245.67000000000016 C 554.4070000000003 245.63500000000016 554.0010000000002 245.59800000000016 553.6390000000002 245.56300000000016 C 554.0770000000002 245.59300000000016 554.4840000000003 245.62800000000016 554.8400000000003 245.67000000000016 C 555.2980000000002 245.37200000000016 555.6310000000003 245.12700000000015 555.8790000000002 244.91500000000016 C 557.4590000000003 245.20800000000017 555.0250000000002 245.49200000000016 554.4910000000002 246.00400000000016 C 558.4370000000002 245.62000000000018 561.3970000000002 245.33200000000016 562.5440000000002 244.40700000000015 L 556.0380000000002 244.76900000000015 C 556.3820000000003 244.44500000000014 556.5000000000002 244.21600000000015 556.5010000000002 244.03700000000015 C 558.6930000000002 243.28800000000015 560.5050000000002 242.67700000000013 561.2450000000002 242.76400000000015 C 566.5160000000002 242.79200000000014 570.5580000000002 243.26000000000016 574.2730000000003 243.81000000000014 C 574.1550000000002 243.89200000000014 574.0290000000002 243.96800000000013 573.9070000000003 244.04100000000014 C 571.2300000000002 244.06500000000014 567.3820000000003 244.33600000000013 565.9370000000002 244.40300000000013 L 570.6710000000003 245.01200000000014 L 572.2490000000003 244.36600000000016 C 572.9170000000003 244.35500000000016 573.2530000000003 244.43800000000016 573.4270000000002 244.54900000000015 C 573.4410000000003 244.61600000000016 573.4890000000003 244.68700000000015 573.5930000000003 244.76400000000015 C 573.6070000000003 244.83700000000016 573.5950000000003 244.90800000000016 573.5830000000003 244.96400000000014 L 573.8620000000003 244.92100000000013 C 573.9860000000003 244.98200000000014 574.1330000000003 245.04500000000013 574.3220000000003 245.11400000000015 L 574.4970000000003 244.82300000000015 L 576.5870000000003 244.50200000000015 C 576.6660000000003 244.43800000000016 576.6910000000004 244.38400000000016 576.6750000000003 244.33500000000015 C 578.7040000000003 244.89600000000016 580.6680000000003 245.54400000000015 584.9190000000003 245.41900000000015 C 584.9490000000003 245.39100000000016 585.0050000000003 245.35900000000015 585.0440000000003 245.32900000000015 C 587.2080000000003 245.53900000000016 589.5240000000003 245.67400000000015 592.1680000000003 245.66500000000016 C 592.7350000000004 245.72400000000016 594.5210000000003 245.24700000000016 596.2420000000003 244.67600000000016 C 596.3940000000003 244.66500000000016 596.5390000000003 244.65600000000015 596.7010000000002 244.64500000000015 C 598.0560000000003 244.22100000000015 598.7980000000002 243.87900000000016 599.0940000000003 243.59600000000015 C 599.6150000000002 243.35700000000014 599.9630000000003 243.15600000000015 599.9880000000003 243.04000000000013 C 598.926 242.364 596.271 241.982 593.32 241.689 z M 11.7 312.447 C 11.732999999999999 312.451 11.767 312.455 11.801 312.459 L 11.785 312.56600000000003 L 11.697000000000001 312.46400000000006 L 11.7 312.447 z M 11.527 333.211 L 11.405 333.10200000000003 L 12.724 330.31300000000005 L 11.527 333.211 z M 100.007 285.503 C 98.46000000000001 285.746 96.91900000000001 286.007 95.38600000000001 286.28 C 93.498 286.14 91.61200000000001 286.02 89.75000000000001 286.01 C 89.99800000000002 285.705 90.13800000000002 285.352 90.12200000000001 284.978 C 90.11700000000002 284.884 90.09400000000001 284.794 90.06800000000001 284.704 C 91.71400000000001 284.69800000000004 93.36800000000001 284.692 95.049 284.68600000000004 C 96.88000000000001 284.67600000000004 98.69600000000001 284.622 100.5 284.538 C 100.336 284.858 100.173 285.177 100.007 285.503 z M 101.674 282.275 C 99.421 282.518 97.21600000000001 282.65999999999997 95.01700000000001 282.75399999999996 C 93.558 282.79999999999995 92.105 282.84599999999995 90.64200000000001 282.89199999999994 C 89.18200000000002 282.93999999999994 87.724 283.03999999999996 86.24000000000001 283.11599999999993 C 85.65200000000002 283.0419999999999 85.06500000000001 283.0039999999999 84.47800000000001 283.0799999999999 C 83.88400000000001 283.15399999999994 83.29100000000001 283.22799999999995 82.70400000000001 283.3019999999999 C 78.07000000000001 283.5139999999999 73.46400000000001 283.24799999999993 68.941 283.2329999999999 L 72.953 282.5519999999999 L 76.983 281.9099999999999 C 79.666 281.4559999999999 82.33500000000001 280.9389999999999 84.98700000000001 280.3149999999999 C 85.239 280.2739999999999 85.42000000000002 280.1389999999999 85.50500000000001 279.9779999999999 C 87.406 279.9159999999999 89.31000000000002 279.8399999999999 91.22500000000001 279.7489999999999 C 92.68100000000001 279.7979999999999 94.13900000000001 279.8529999999999 95.596 279.8949999999999 C 98.01400000000001 279.9649999999999 100.431 280.00499999999994 102.848 280.0419999999999 C 102.468 280.759 102.077 281.504 101.674 282.275 z M 103.105 279.556 C 101.205 279.52299999999997 99.306 279.47999999999996 97.408 279.428 C 98.519 279.366 99.629 279.305 100.748 279.242 C 101.60900000000001 279.194 102.48100000000001 279.146 103.348 279.098 C 103.267 279.251 103.187 279.401 103.105 279.556 z M 225.792 351.414 L 224.605 351.24399999999997 C 220.24599999999998 350.75399999999996 218.015 351.88699999999994 213.89999999999998 352.23999999999995 C 210.59099999999998 351.85699999999997 209.48899999999998 351.25999999999993 207.28699999999998 350.76699999999994 C 204.63799999999998 350.50499999999994 203.909 350.81399999999996 202.522 351.0009999999999 C 200.201 351.14899999999994 199.059 350.76499999999993 197.753 350.5259999999999 C 196.94199999999998 350.5529999999999 198.119 350.7249999999999 197.30499999999998 350.7529999999999 C 196.27899999999997 350.6509999999999 195.14799999999997 350.48899999999986 194.33999999999997 350.5049999999999 C 196.87699999999998 349.9639999999999 199.16299999999998 349.7529999999999 200.67899999999997 350.5149999999999 L 210.78199999999998 349.68099999999987 L 210.71399999999997 349.8699999999999 C 210.17399999999998 349.9889999999999 209.49899999999997 350.06099999999986 208.50299999999996 350.01999999999987 L 210.38399999999996 350.8049999999999 C 211.44399999999996 350.9089999999999 215.27199999999996 350.6389999999999 217.18199999999996 350.5019999999999 C 218.375 351.381 226.671 350.254 225.792 351.414 z M 253.686 355.205 L 253.751 355.15799999999996 L 253.836 355.162 C 253.786 355.178 253.737 355.189 253.686 355.205 z M 253.939 354.314 C 253.315 354.214 252.468 354.17100000000005 251.85 354.216 L 250.713 354.493 C 248.957 355.552 243.488 355.278 239.868 355.778 C 239.085 355.79900000000004 238.761 355.62800000000004 239.439 355.546 L 235.418 355.384 C 235.322 355.47200000000004 235.21200000000002 355.53000000000003 235.10500000000002 355.591 C 234.32700000000003 355.484 232.99300000000002 355.39 234.341 355.077 C 238.63400000000001 355.19 240.657 354.35 244.13 354.497 L 245.26399999999998 354.147 C 246.60899999999998 354.137 249.90499999999997 353.729 251.748 353.971 C 253.824 354.041 254.229 354.164 253.939 354.314 z M 252.289 350.547 C 250.47 351.01000000000005 253.624 351.45500000000004 249.83999999999997 351.613 C 251.08799999999997 351.328 249.69199999999998 350.843 248.34599999999998 350.855 C 249.81499999999997 350.908 248.31399999999996 351.07 248.14799999999997 351.22200000000004 L 249.21399999999997 351.29600000000005 C 249.98499999999996 352.38200000000006 244.11999999999998 351.249 241.61099999999996 351.82500000000005 C 240.45999999999995 351.47 242.95599999999996 351.81300000000005 243.14899999999997 351.45000000000005 C 243.09299999999996 350.958 241.97699999999998 350.38900000000007 238.51699999999997 350.24300000000005 C 235.10499999999996 350.624 232.19699999999997 350.44000000000005 229.19999999999996 350.22 C 226.20299999999997 350.00300000000004 223.11499999999995 349.738 219.33099999999996 349.79600000000005 C 219.66499999999996 350.208 217.54399999999995 349.99700000000007 216.32299999999995 350.0400000000001 C 217.18799999999996 349.85100000000006 216.61899999999994 349.6240000000001 215.69499999999996 349.4440000000001 C 217.16999999999996 349.22300000000007 218.65199999999996 348.98500000000007 220.13899999999995 348.73100000000005 C 223.34899999999996 348.9200000000001 226.55699999999996 349.11000000000007 229.76299999999995 349.27000000000004 C 233.77599999999995 349.17600000000004 237.35399999999996 348.624 240.99399999999994 349.62000000000006 L 240.99199999999993 349.62200000000007 C 240.99499999999992 349.62200000000007 240.99699999999993 349.62200000000007 240.99999999999994 349.62200000000007 C 241.22199999999995 349.68300000000005 241.44399999999993 349.7290000000001 241.66599999999994 349.8020000000001 C 242.04199999999994 349.8180000000001 242.41299999999995 349.8310000000001 242.78299999999993 349.8450000000001 C 243.52799999999993 349.7220000000001 244.22499999999994 349.3760000000001 244.98299999999992 349.32900000000006 C 248.35899999999992 349.4460000000001 249.09699999999992 350.1980000000001 252.82299999999992 349.49500000000006 C 252.86499999999992 349.66300000000007 252.73299999999992 349.79600000000005 252.51999999999992 349.91300000000007 C 253.64999999999992 349.6380000000001 255.44699999999992 349.87800000000004 256.70199999999994 349.41100000000006 C 256.78299999999996 349.7250000000001 256.86099999999993 350.03800000000007 257.13499999999993 350.2780000000001 C 258.66799999999995 350.3130000000001 260.20599999999996 350.34100000000007 261.74499999999995 350.36800000000005 C 258.563 350.455 255.383 350.541 252.289 350.547 z M 312.4 353.607 C 312.38399999999996 353.61100000000005 312.366 353.613 312.34999999999997 353.617 L 312.06199999999995 353.648 L 312.097 353.66400000000004 C 309.57 354.1580000000001 306.308 354.06200000000007 303.644 353.85300000000007 C 306.106 353.90200000000004 308.209 353.7710000000001 310.25 353.6170000000001 C 310.992 353.5470000000001 311.73 353.4800000000001 312.474 353.4240000000001 C 312.012 353.566 310.717 353.574 312.4 353.607 z M 398.466 345.629 C 399.079 345.65000000000003 399.273 345.725 399.637 345.77700000000004 C 399.602 345.78900000000004 399.552 345.79800000000006 399.521 345.81000000000006 C 399.017 345.81000000000006 398.543 345.79800000000006 398.06 345.7900000000001 C 398.198 345.738 398.337 345.686 398.466 345.629 z M 405.226 276.27 C 407.105 276.257 408.981 276.231 410.855 276.205 C 394.841 277.162 379.553 276.86899999999997 364.334 277.669 C 361.35 277.363 358.59000000000003 276.971 356.411 276.36699999999996 C 363.181 276.62899999999996 368.83 276.573 374.14300000000003 275.94599999999997 C 362.54600000000005 275.666 350.761 275.253 338.749 274.816 C 351.827 275.114 365.716 273.58299999999997 378.72700000000003 275.24199999999996 C 377.21400000000006 275.53399999999993 375.699 275.76399999999995 374.14300000000003 275.94599999999997 C 384.629 276.184 394.997 276.349 405.226 276.27 z M 501.835 251.757 C 500.017 252.086 498.24899999999997 252.303 496.46999999999997 252.553 C 494.45099999999996 252.817 492.443 253.079 490.44399999999996 253.339 C 488.34599999999995 253.602 486.28399999999993 253.833 484.205 254.077 C 489.248 252.908 493.78299999999996 252.31 498.139 251.771 C 498.874 251.814 499.66 251.83599999999998 500.481 251.82 C 500.924 251.811 501.376 251.79 501.835 251.757 z M 574.979 244.057 L 575.0490000000001 243.94 C 575.2780000000001 243.987 575.498 244.038 575.7160000000001 244.091 C 575.498 244.074 575.25 244.063 574.979 244.057 z" stroke-linecap="round" />
</g>
<g transform="matrix(-0.2 -0.2 -0.2 0.2 54.04 144.66)" id="QRsnqCdbyUxNuLxNJGltw"  >
<path style="stroke: none; stroke-width: 1; stroke-dasharray: none; stroke-linecap: butt; stroke-dashoffset: 0; stroke-linejoin: miter; stroke-miterlimit: 4; fill: rgb(255,255,255); fill-rule: nonzero; opacity: 1;" vector-effect="non-scaling-stroke"  transform=" translate(-300, -300.52)" d="M 599.668 262.337 C 599.596 262.22499999999997 599.514 262.11 599.422 261.99199999999996 C 599.317 261.87399999999997 599.147 261.74899999999997 598.9920000000001 261.62399999999997 C 598.6740000000001 261.37399999999997 598.3100000000001 261.116 597.9140000000001 260.85299999999995 C 597.1250000000001 260.328 596.2100000000002 259.78099999999995 595.2870000000001 259.2339999999999 C 591.6130000000002 257.05099999999993 587.7130000000002 254.8799999999999 591.5800000000002 253.97299999999993 L 587.1070000000002 253.17899999999992 L 582.9570000000002 252.6289999999999 C 580.1840000000002 252.2849999999999 577.4120000000003 251.9419999999999 574.6430000000003 251.5999999999999 C 573.2210000000002 251.4129999999999 571.9560000000002 251.3309999999999 570.6430000000003 251.2199999999999 L 566.7210000000002 250.9079999999999 C 564.1160000000002 250.7129999999999 561.4730000000002 250.5049999999999 558.8980000000003 250.3489999999999 C 553.9300000000003 250.1529999999999 548.8680000000003 249.9319999999999 543.9830000000003 249.8499999999999 C 539.2020000000003 249.82899999999992 534.3280000000003 249.7789999999999 529.6350000000003 249.8569999999999 C 512.6800000000003 250.1229999999999 496.5950000000003 251.14399999999992 480.9680000000003 252.3729999999999 C 480.8220000000003 252.3239999999999 480.6590000000003 252.2749999999999 480.4820000000003 252.22699999999992 C 487.27900000000034 251.58099999999993 497.8890000000003 250.80099999999993 505.9010000000003 250.34099999999992 C 500.3890000000003 249.81199999999993 516.7900000000003 249.7249999999999 516.7230000000003 248.88899999999992 C 516.5920000000003 247.23499999999993 516.4590000000003 245.50199999999992 494.5300000000003 245.5649999999999 C 489.0400000000003 245.4849999999999 494.3780000000003 243.89299999999992 494.30300000000034 243.0579999999999 C 477.92600000000033 244.0609999999999 461.25200000000035 245.2139999999999 444.44200000000035 246.4379999999999 C 436.48500000000035 247.0259999999999 428.4890000000004 247.6179999999999 420.47400000000033 248.2109999999999 C 422.14700000000033 247.6439999999999 427.56200000000035 246.9109999999999 421.6410000000003 246.1849999999999 C 419.5690000000003 246.24899999999988 418.5340000000003 246.2819999999999 417.6620000000003 246.4939999999999 C 412.9780000000003 247.1989999999999 414.34600000000034 247.52699999999987 417.0760000000003 248.18199999999987 C 403.4600000000003 248.4229999999999 408.59900000000033 244.74599999999987 401.1720000000003 244.84199999999987 C 390.98600000000033 245.42799999999988 397.2990000000003 247.59199999999987 394.8570000000003 248.42999999999986 C 394.8900000000003 247.32399999999987 390.2680000000003 246.36699999999988 383.7540000000003 245.75399999999988 C 377.2340000000003 245.1969999999999 368.8310000000003 244.83899999999988 361.3090000000003 245.04399999999987 C 354.29100000000034 245.80399999999986 346.8600000000003 245.66699999999986 338.8930000000003 246.10599999999988 C 337.9010000000003 246.1489999999999 336.9030000000003 246.19299999999987 335.8990000000003 246.23499999999987 C 334.89000000000027 246.27199999999988 333.8870000000003 246.33099999999988 332.90500000000026 246.43999999999988 C 330.9260000000003 246.62899999999988 328.9210000000003 246.8399999999999 326.91700000000026 247.07699999999988 C 322.90500000000026 247.55199999999988 318.8370000000003 248.1449999999999 314.74100000000027 248.96399999999988 C 307.60000000000025 249.48699999999988 298.2550000000003 250.0249999999999 288.90700000000027 250.83099999999988 C 288.89100000000025 250.71499999999986 288.8530000000003 250.60299999999987 288.8530000000003 250.48599999999988 C 288.64000000000027 250.60299999999987 288.5160000000003 250.72299999999987 288.5350000000003 250.8459999999999 C 281.4430000000003 249.9949999999999 265.7870000000003 253.9239999999999 263.7700000000003 251.5729999999999 L 262.1360000000003 251.9549999999999 C 253.84600000000032 252.9369999999999 262.00500000000034 251.0459999999999 257.1550000000003 250.9979999999999 C 249.51400000000032 252.07199999999992 239.0810000000003 250.9079999999999 235.40600000000032 253.36299999999991 C 234.76300000000032 253.27399999999992 235.57500000000033 253.09099999999992 234.93000000000032 253.00199999999992 L 228.74700000000033 253.8979999999999 C 228.39600000000033 254.4429999999999 227.21900000000034 255.16799999999992 228.32300000000032 255.62699999999992 C 226.87000000000032 255.7139999999999 225.68600000000032 256.43999999999994 223.59200000000033 256.4319999999999 C 218.38500000000033 256.8489999999999 222.84100000000032 255.4249999999999 220.91900000000032 255.1379999999999 C 207.89100000000033 256.7909999999999 192.89200000000034 258.00799999999987 180.31800000000032 257.6479999999999 C 180.24100000000033 256.7339999999999 176.62600000000032 256.5589999999999 172.27900000000034 256.6659999999999 C 167.93300000000033 256.7359999999999 162.85100000000034 257.1239999999999 159.84200000000033 257.2949999999999 C 147.73300000000032 256.24099999999993 133.96900000000034 260.0879999999999 124.79900000000032 258.6269999999999 C 127.48700000000032 257.9919999999999 131.1550000000003 257.9869999999999 134.2900000000003 257.9209999999999 C 137.4250000000003 257.85499999999985 140.0150000000003 257.7879999999999 140.5060000000003 257.1349999999999 L 138.00300000000033 256.6129999999999 C 135.20100000000033 256.48899999999986 131.57300000000032 256.25799999999987 128.24600000000032 256.1939999999999 C 124.91500000000032 256.15199999999993 121.87900000000032 256.3059999999999 120.23700000000032 256.9779999999999 C 123.33000000000033 257.7039999999999 123.55100000000033 258.3569999999999 124.59300000000032 258.8859999999999 C 122.11100000000032 259.2579999999999 121.70100000000032 259.7469999999999 118.59100000000032 259.9509999999999 C 114.02600000000032 260.1389999999999 109.05600000000032 259.8049999999999 109.07100000000032 258.8959999999999 C 111.56000000000033 258.5879999999999 114.23800000000033 258.9569999999999 116.51800000000033 258.8589999999999 C 116.93600000000033 258.3379999999999 115.12300000000033 258.09099999999995 112.88300000000032 257.8829999999999 C 110.64300000000033 257.6739999999999 107.96700000000033 257.5489999999999 106.63300000000032 257.3719999999999 C 111.35100000000033 259.7579999999999 98.66200000000032 260.6319999999999 111.51600000000032 262.2509999999999 L 104.42700000000032 262.65399999999994 C 104.00800000000032 262.80299999999994 103.80700000000031 262.94399999999996 103.75100000000032 263.08099999999996 C 101.61300000000031 263.04799999999994 99.45200000000031 263.00899999999996 97.28100000000032 262.96 C 90.64200000000032 261.96799999999996 83.70800000000031 260.68199999999996 75.98800000000031 260.066 C 72.89200000000031 260.787 75.50800000000031 261.33399999999995 78.54200000000031 261.892 C 79.90800000000031 262.139 81.35700000000031 262.366 82.40100000000031 262.614 C 75.61200000000031 262.54999999999995 69.65400000000031 262.712 65.75700000000032 263.392 C 71.18000000000032 263.487 76.60900000000032 263.58 82.03100000000032 263.675 C 72.62200000000031 264.217 63.22700000000032 263.98400000000004 53.83600000000032 263.641 C 52.71700000000032 263.495 51.60700000000032 263.43800000000005 50.96300000000032 263.40500000000003 C 50.78300000000032 263.43 50.70500000000032 263.473 50.69200000000032 263.52700000000004 C 44.85600000000032 263.30300000000005 39.02100000000032 263.06300000000005 33.184000000000324 262.96700000000004 C 33.14500000000032 263.80500000000006 33.126000000000325 264.223 27.669000000000324 264.45400000000006 C 33.10000000000032 264.64200000000005 39.89200000000032 264.7710000000001 46.68000000000032 264.95400000000006 C 53.47000000000032 265.10800000000006 60.26500000000032 265.1620000000001 65.69600000000031 265.48600000000005 L 65.6710000000003 266.33200000000005 C 63.061000000000305 266.23600000000005 60.53900000000031 266.208 58.119000000000305 266.446 C 58.165000000000305 266.547 58.232000000000305 266.64000000000004 58.29500000000031 266.73400000000004 C 54.582000000000306 266.677 50.60600000000031 266.54800000000006 46.625000000000306 266.367 C 39.8370000000003 266.02700000000004 33.052000000000305 265.687 27.607000000000305 265.709 C 27.586000000000304 266.128 27.545000000000304 266.966 27.524000000000306 267.385 C 27.503000000000306 267.803 22.063000000000308 267.614 16.628000000000306 267.42699999999996 C 22.063000000000304 267.61499999999995 32.94900000000031 267.991 38.384000000000306 268.17999999999995 C 38.36500000000031 268.5969999999999 38.32800000000031 269.4359999999999 38.311000000000305 269.8539999999999 C 38.29200000000031 270.27399999999994 32.8520000000003 270.0849999999999 27.399000000000306 269.89699999999993 C 27.359000000000307 270.7339999999999 21.864000000000306 271.38199999999995 27.295000000000307 271.98999999999995 C 32.7540000000003 272.17799999999994 38.20000000000031 272.36699999999996 43.65200000000031 272.55499999999995 C 21.831000000000305 272.22099999999995 10.79400000000031 273.93499999999995 10.716000000000307 275.18999999999994 C 16.20900000000031 274.96099999999996 16.13900000000031 276.2169999999999 21.621000000000308 275.98799999999994 C 5.1710000000003085 276.67599999999993 -11.372999999999692 277.7799999999999 10.495000000000308 278.95699999999994 C 16.23500000000031 279.18799999999993 21.99400000000031 279.4189999999999 27.743000000000308 279.6499999999999 C 28.041000000000306 279.7389999999999 28.34600000000031 279.8229999999999 28.65100000000031 279.9049999999999 C 29.909000000000308 280.2519999999999 31.21300000000031 280.5309999999999 32.27300000000031 280.91599999999994 L 31.97500000000031 282.14699999999993 C 30.75000000000031 282.16399999999993 29.33200000000031 281.75199999999995 28.04200000000031 281.2269999999999 C 26.738000000000312 280.7079999999999 25.55300000000031 280.1029999999999 24.46000000000031 279.7749999999999 C 24.19300000000031 280.1329999999999 23.66400000000031 280.8479999999999 23.39900000000031 281.20699999999994 C 23.26700000000031 281.38499999999993 22.92800000000031 281.34099999999995 22.48200000000031 281.18299999999994 C 22.045000000000307 281.0129999999999 21.54400000000031 280.6789999999999 21.02600000000031 280.36999999999995 C 21.54700000000031 280.67699999999996 22.28800000000031 281.191 23.13400000000031 281.56399999999996 C 23.54500000000031 281.76699999999994 23.95600000000031 281.97099999999995 24.33300000000031 282.157 C 24.729000000000312 282.31199999999995 25.09100000000031 282.453 25.37900000000031 282.565 C 25.16200000000031 282.943 24.72800000000031 283.702 24.51200000000031 284.08 C 24.29700000000031 284.465 22.999000000000308 283.99 21.80900000000031 283.352 C 21.30500000000031 284.08 19.43800000000031 284.13199999999995 20.48500000000031 285.13899999999995 C 21.79100000000031 285.835 23.20600000000031 286.36199999999997 24.61700000000031 286.888 C 23.16600000000031 286.448 21.79200000000031 286.19599999999997 20.62400000000031 285.89399999999995 C 20.02700000000031 285.76099999999997 19.45700000000031 285.6569999999999 18.91400000000031 285.57899999999995 C 18.38400000000031 285.489 17.90500000000031 285.39899999999994 17.44100000000031 285.34999999999997 C 15.589000000000311 285.14899999999994 14.258000000000312 285.32099999999997 13.782000000000313 285.79099999999994 C 15.438000000000313 286.38199999999995 14.559000000000312 287.3539999999999 16.30400000000031 287.90899999999993 C 15.021000000000312 287.5009999999999 13.596000000000311 287.12799999999993 12.485000000000312 286.72999999999996 C 11.350000000000312 286.34799999999996 10.341000000000312 286.044 9.645000000000312 285.93899999999996 C 9.280000000000312 285.876 9.058000000000312 285.90399999999994 8.909000000000312 285.97999999999996 C 8.757000000000312 286.05199999999996 8.679000000000311 286.17299999999994 8.691000000000312 286.34999999999997 C 8.818000000000312 286.768 9.457000000000312 287.51699999999994 10.831000000000312 288.669 C 12.783000000000312 290.089 14.989000000000313 291.387 17.341000000000314 292.488 C 13.400000000000315 292.308 9.460000000000313 292.128 5.530000000000314 291.949 C 0.9360000000003135 292.11 3.1200000000003136 293.06100000000004 3.0510000000003137 293.909 C 7.6170000000003135 294.132 12.187000000000314 294.355 16.470000000000315 294.56399999999996 C 18.612000000000315 294.67699999999996 20.675000000000317 294.847 22.637000000000313 295.00199999999995 C 23.479000000000312 295.06499999999994 24.289000000000314 295.1449999999999 25.088000000000314 295.2289999999999 C 26.309000000000314 295.53599999999994 27.526000000000312 295.7899999999999 28.730000000000313 295.99999999999994 C 28.325000000000312 296.52399999999994 26.414000000000314 297.4769999999999 28.012000000000313 298.1329999999999 C 30.313000000000315 298.2169999999999 34.914000000000314 298.3829999999999 37.21700000000031 298.4679999999999 C 39.46500000000031 299.8059999999999 34.795000000000314 300.8949999999999 37.048000000000314 302.2359999999999 C 38.91300000000032 303.39099999999985 45.584000000000316 303.10399999999987 49.139000000000316 303.47199999999987 C 49.106000000000314 303.91299999999984 49.10100000000032 304.35399999999987 49.155000000000314 304.7929999999999 C 46.267000000000316 304.9019999999999 42.31400000000031 304.9079999999999 39.255000000000315 304.8309999999999 C 41.54000000000032 305.7519999999999 34.61100000000032 304.6619999999999 34.57100000000032 305.4999999999999 C 34.53100000000032 306.3369999999999 34.490000000000315 307.17399999999986 35.61900000000032 308.0019999999999 C 36.74900000000032 308.8069999999999 39.05200000000032 309.6979999999999 43.70700000000032 310.38299999999987 C 44.86800000000032 310.6129999999999 44.85600000000032 311.0309999999999 44.54800000000032 311.49699999999984 C 41.114000000000324 311.65999999999985 37.611000000000324 312.0749999999998 34.28500000000032 311.8659999999999 C 36.117000000000324 316.0269999999999 54.77400000000033 314.15999999999985 53.669000000000324 318.13799999999986 C 50.40200000000032 318.95099999999985 37.245000000000324 312.05499999999984 35.830000000000325 317.0219999999999 C 35.54800000000033 318.0189999999999 41.49300000000032 318.3869999999999 44.467000000000326 318.57599999999985 C 26.081000000000326 319.4449999999999 15.632000000000325 323.84999999999985 32.117000000000324 329.9329999999999 C 26.288000000000324 329.5689999999999 18.172000000000324 327.14299999999986 11.965000000000323 327.60399999999987 C 11.970000000000324 327.63299999999987 11.994000000000323 327.65699999999987 12.006000000000324 327.6869999999999 C 15.071000000000323 327.9679999999999 20.317000000000323 329.1999999999999 23.156000000000326 329.3739999999999 C 19.667000000000325 329.1559999999999 16.164000000000325 328.9369999999999 12.668000000000326 328.71899999999994 C 13.175000000000326 329.44499999999994 13.756000000000327 330.1599999999999 14.371000000000326 330.87699999999995 C 16.949000000000325 331.58899999999994 19.551000000000325 332.18299999999994 22.278000000000326 332.35699999999997 C 19.961000000000325 332.212 17.635000000000325 332.066 15.303000000000326 331.91999999999996 C 16.945000000000327 333.61499999999995 18.856000000000325 335.26899999999995 20.972000000000325 336.82499999999993 C 29.086000000000325 340.36299999999994 36.81900000000032 345.3949999999999 41.327000000000325 345.67799999999994 C 45.94700000000032 346.15199999999993 50.57000000000033 346.6019999999999 55.19500000000033 347.03099999999995 C 55.05800000000033 347.054 54.94800000000033 347.09399999999994 54.882000000000325 347.15599999999995 C 55.60000000000032 347.55199999999996 57.153000000000326 347.72099999999995 58.46500000000032 347.77399999999994 L 58.21800000000032 347.65399999999994 C 59.37500000000033 347.68499999999995 61.684000000000324 347.78599999999994 62.87100000000032 348.2919999999999 C 62.54600000000032 348.50499999999994 63.062000000000324 348.7469999999999 62.21200000000032 348.7169999999999 L 63.784000000000326 348.93299999999994 C 63.995000000000324 348.8759999999999 64.21100000000033 348.81899999999996 63.763000000000325 348.7149999999999 C 64.53200000000032 348.61099999999993 65.26700000000032 348.7489999999999 65.82200000000033 348.9439999999999 C 65.94600000000032 349.1769999999999 72.15800000000033 348.6669999999999 73.73100000000034 348.6089999999999 C 73.99400000000034 348.62999999999994 74.25700000000033 348.6499999999999 74.52100000000034 348.6699999999999 C 74.83000000000034 348.7209999999999 75.06700000000035 348.7929999999999 75.29700000000034 348.8559999999999 C 72.42900000000034 348.8379999999999 65.94400000000034 349.01299999999986 67.12200000000034 349.03499999999985 C 67.88600000000034 349.32299999999987 75.89800000000034 348.92699999999985 79.32600000000033 349.0459999999999 C 79.72200000000034 349.07599999999985 80.11900000000034 349.10899999999987 80.51500000000033 349.1399999999999 C 80.67900000000033 349.16699999999986 80.79500000000033 349.1999999999999 80.84300000000033 349.2399999999999 C 81.23900000000033 349.2599999999999 81.67200000000032 349.2739999999999 82.00500000000034 349.2559999999999 C 82.34700000000034 349.2809999999999 82.68800000000034 349.30299999999994 83.03000000000034 349.3279999999999 C 82.87300000000035 349.47399999999993 82.48100000000034 349.6319999999999 83.05500000000035 349.8179999999999 C 83.08200000000035 349.7779999999999 82.98500000000035 349.6789999999999 83.30800000000035 349.7129999999999 L 84.25200000000035 350.1189999999999 C 86.50800000000035 349.8719999999999 89.71000000000035 350.67099999999994 92.08400000000034 350.1989999999999 C 91.38700000000034 350.4519999999999 90.57600000000035 350.9259999999999 89.05600000000034 351.10399999999987 L 88.80600000000034 350.9469999999999 C 88.58600000000034 351.0119999999999 87.34800000000034 351.0119999999999 87.35900000000034 351.2779999999999 C 88.76300000000033 351.5719999999999 89.98800000000034 351.58699999999993 91.50900000000034 351.3869999999999 C 91.78000000000034 351.4699999999999 92.09700000000034 351.5549999999999 92.30700000000034 351.63799999999986 C 92.30400000000034 351.60399999999987 92.28400000000035 351.57399999999984 92.29200000000034 351.5339999999999 C 92.76900000000035 351.71999999999986 92.71500000000034 351.74399999999986 92.52700000000034 351.8389999999999 C 92.50300000000034 351.85699999999986 92.47100000000034 351.8769999999999 92.41900000000034 351.89499999999987 C 93.25300000000034 352.70599999999985 98.05300000000034 351.6589999999999 100.62300000000033 352.1759999999999 C 101.39800000000034 352.10199999999986 100.70400000000033 352.0479999999999 101.66900000000034 351.94399999999985 C 104.30700000000034 352.36999999999983 106.12700000000034 352.68899999999985 108.89900000000034 352.99399999999986 C 109.80600000000034 352.70099999999985 109.88200000000035 352.57099999999986 108.83000000000034 352.1759999999999 L 110.92300000000034 352.37899999999985 C 108.96400000000034 353.17899999999986 114.80400000000034 353.4019999999999 112.65100000000034 354.19199999999984 C 113.25600000000034 354.41799999999984 114.51500000000034 354.53499999999985 115.70200000000034 354.4189999999998 C 115.83200000000033 354.19699999999983 116.03300000000034 353.8429999999998 117.51500000000034 353.8729999999998 C 119.56700000000035 354.21099999999984 119.07900000000035 354.0939999999998 120.77700000000034 354.41299999999984 C 121.17100000000035 354.70999999999987 120.53800000000034 354.81199999999984 120.60100000000034 355.0459999999998 C 123.25400000000035 354.72799999999984 122.88100000000034 355.72299999999984 125.37400000000034 355.71799999999985 C 126.93800000000033 355.66299999999984 130.02000000000032 355.69099999999986 130.11000000000033 355.18399999999986 C 132.21000000000032 355.2479999999999 132.20100000000033 355.62199999999984 131.98200000000034 356.03099999999984 L 133.69000000000034 356.1229999999998 C 128.15700000000035 356.0509999999998 122.34700000000034 355.7549999999998 116.62800000000034 355.4329999999998 C 128.99500000000035 357.4019999999998 143.81100000000035 359.3269999999998 153.43800000000033 355.4909999999998 C 154.47600000000034 357.4479999999998 166.61000000000033 358.32899999999984 166.85000000000034 357.8449999999998 C 169.36100000000033 357.5039999999998 171.89600000000033 357.1209999999998 174.46100000000033 356.8279999999998 C 182.56700000000032 355.8599999999998 191.02500000000032 355.5289999999998 199.74200000000033 355.2959999999998 C 208.45200000000034 354.9909999999998 217.43800000000033 355.01899999999983 226.58000000000033 354.95399999999984 C 231.64400000000032 354.8439999999998 241.04700000000034 354.48899999999986 250.49000000000032 354.15499999999986 C 259.9240000000003 353.73299999999983 269.3840000000003 353.21499999999986 274.5920000000003 353.11899999999986 C 276.1000000000003 353.06899999999985 277.6000000000003 353.01899999999983 279.1210000000003 352.9689999999999 C 276.5900000000003 352.9849999999999 276.5900000000003 352.9849999999999 274.0590000000003 353.00099999999986 C 280.3110000000003 352.04299999999984 285.9390000000003 350.95099999999985 291.4130000000003 350.12099999999987 C 290.4040000000003 349.93099999999987 290.1980000000003 349.67699999999985 287.8430000000003 349.50399999999985 L 290.6810000000003 349.43099999999987 C 293.1360000000003 348.38599999999985 299.0450000000003 347.87599999999986 301.7730000000003 347.27999999999986 C 301.23600000000033 347.75899999999984 303.4350000000003 347.6399999999999 305.3750000000003 347.52499999999986 L 304.5700000000003 347.31599999999986 C 311.9150000000003 346.76599999999985 320.3380000000003 345.45299999999986 326.8770000000003 344.81099999999986 C 327.78900000000027 344.71099999999984 328.4960000000003 344.79499999999985 328.9340000000003 344.89599999999984 C 328.9340000000003 344.89599999999984 330.4870000000003 344.64499999999987 332.0380000000003 344.39299999999986 C 333.5910000000003 344.1469999999999 335.1360000000003 343.85499999999985 335.1360000000003 343.85499999999985 C 334.7530000000003 344.47999999999985 340.4040000000003 343.70399999999984 337.48600000000033 344.42999999999984 C 342.04300000000035 343.1779999999998 346.86300000000034 342.99199999999985 351.1890000000003 341.74499999999983 C 359.1560000000003 340.7699999999998 367.3040000000003 339.37399999999985 375.5160000000003 337.99199999999985 C 377.5660000000003 337.63299999999987 379.6190000000003 337.27299999999985 381.6730000000003 336.91299999999984 C 383.7250000000003 336.5439999999998 385.7660000000003 336.10799999999983 387.8080000000003 335.69899999999984 C 391.8910000000003 334.86299999999983 395.9560000000003 334.00099999999986 399.98200000000026 333.10999999999984 L 399.53300000000024 332.96599999999984 C 405.17400000000026 331.72099999999983 409.8850000000002 329.66999999999985 416.8870000000002 328.78999999999985 C 419.25200000000024 327.97299999999984 422.15800000000024 327.14799999999985 424.6780000000002 326.34099999999984 C 427.20100000000025 325.5579999999998 429.2990000000002 324.65799999999984 430.1090000000002 323.89999999999986 C 435.69700000000023 322.5889999999999 437.7680000000002 321.5509999999999 443.1900000000002 320.12599999999986 C 441.5900000000002 319.8559999999999 448.32600000000025 318.32799999999986 445.47300000000024 318.4569999999999 C 441.56900000000024 318.4059999999999 441.5820000000002 319.1249999999999 438.28700000000026 319.1129999999999 L 438.43700000000024 319.28699999999986 C 434.75800000000027 319.80899999999986 431.09100000000024 320.35499999999985 427.42900000000026 320.9229999999999 C 427.30700000000024 320.94299999999987 427.1830000000003 320.9569999999999 427.06000000000023 320.97699999999986 C 431.4840000000002 319.66899999999987 435.79700000000025 318.4739999999999 440.06400000000025 317.62199999999984 C 453.73400000000026 315.60799999999983 471.29400000000027 316.30899999999986 484.4860000000002 315.80499999999984 C 482.96800000000025 310.57399999999984 490.1210000000002 306.11699999999985 496.81000000000023 301.75199999999984 C 501.46800000000025 298.7069999999998 505.9310000000002 295.68599999999986 506.9600000000002 292.36699999999985 C 512.7160000000002 291.66199999999986 518.3120000000002 290.9859999999999 523.5560000000002 290.24999999999983 C 524.2910000000002 290.1449999999998 525.0950000000001 290.0659999999998 525.9410000000001 290.0079999999998 C 526.7850000000002 289.9649999999998 527.6710000000002 289.94699999999983 528.5840000000002 289.9359999999998 C 530.4020000000002 289.92299999999983 532.3240000000002 289.89399999999983 534.1560000000002 289.9309999999998 C 535.9900000000001 289.9509999999998 537.7660000000002 289.8839999999998 539.3140000000002 289.73999999999984 C 540.8570000000002 289.60699999999986 542.1950000000002 289.32899999999984 543.1830000000002 288.81099999999986 C 541.2250000000003 288.81899999999985 539.2870000000003 288.73999999999984 537.3120000000002 288.81199999999984 C 538.7870000000003 288.4429999999998 540.2510000000002 288.32599999999985 541.7250000000003 288.26399999999984 C 543.1950000000003 288.21799999999985 544.6790000000002 288.21799999999985 546.1240000000003 288.35499999999985 L 550.4760000000002 288.70399999999984 C 551.9060000000002 288.8589999999998 553.3310000000002 288.97299999999984 554.7790000000002 288.9809999999998 C 554.8860000000002 288.1659999999998 554.9590000000002 287.6929999999998 556.9370000000002 287.50699999999983 C 555.9920000000002 287.36299999999983 554.8780000000003 287.34299999999985 553.7240000000003 287.27299999999985 C 552.5640000000003 287.22199999999987 551.3530000000003 287.13599999999985 550.1260000000003 287.10199999999986 C 547.6550000000003 287.07999999999987 545.2220000000003 286.8989999999999 543.2300000000004 286.71599999999984 L 543.2570000000004 285.46099999999984 C 545.2770000000004 285.2239999999998 547.7570000000004 285.5099999999998 550.2430000000004 285.69099999999986 C 551.4790000000004 285.80399999999986 552.6990000000004 285.98199999999986 553.8700000000003 286.07999999999987 C 555.0330000000004 286.19799999999987 556.1570000000004 286.21999999999986 557.1380000000004 286.2619999999999 C 557.2040000000004 285.8449999999999 557.3370000000003 285.0149999999999 557.4060000000004 284.5989999999999 C 557.4700000000004 284.18399999999986 559.4690000000004 284.43399999999986 561.4650000000004 284.6819999999999 C 560.4670000000003 284.5579999999999 558.9690000000004 284.3709999999999 557.4710000000003 284.1839999999999 C 555.9760000000003 283.9849999999999 554.4500000000004 283.9219999999999 553.4460000000004 283.82499999999993 C 553.4950000000003 283.40799999999996 553.5910000000003 282.57199999999995 553.6370000000004 282.15599999999995 C 553.6820000000004 281.756 555.7500000000005 281.86199999999997 557.8070000000004 282.10699999999997 C 557.9280000000003 281.275 560.1700000000004 280.70799999999997 558.1390000000004 280.03099999999995 C 556.0320000000004 279.78 553.9240000000003 279.67099999999994 551.8170000000003 279.48499999999996 C 553.9340000000003 279.54999999999995 555.8070000000004 279.48099999999994 557.4380000000003 279.347 C 559.0710000000004 279.272 560.4630000000003 279.102 561.6090000000004 278.87399999999997 C 563.8970000000004 278.388 565.2060000000004 277.84499999999997 565.3580000000004 277.205 C 563.0510000000004 277.21099999999996 563.3230000000004 276.03 561.0220000000004 276.152 C 561.8830000000004 276.094 562.7490000000004 276.037 563.5850000000004 275.981 C 564.4350000000004 275.944 565.2550000000003 275.909 566.0150000000003 275.876 C 567.5460000000003 275.799 568.8510000000003 275.686 569.6580000000004 275.51099999999997 C 569.7110000000004 275.49899999999997 569.7540000000004 275.48699999999997 569.8030000000003 275.47499999999997 C 575.8480000000003 276.102 581.6880000000003 277.05199999999996 587.2600000000003 278.47999999999996 C 588.1850000000003 278.60599999999994 588.7890000000003 278.62199999999996 589.1850000000003 278.56399999999996 C 589.6140000000003 278.52899999999994 589.8030000000003 278.40299999999996 589.8750000000003 278.22999999999996 C 590.0210000000003 277.883 589.6970000000003 277.34599999999995 589.8650000000004 276.95099999999996 C 582.6730000000003 274.878 575.0000000000003 274.111 569.2910000000004 272.62899999999996 C 567.3180000000004 272.41799999999995 571.5390000000004 271.17799999999994 569.7020000000003 270.13599999999997 C 568.7010000000004 270.03 567.2010000000004 269.868 565.7010000000004 269.70799999999997 C 564.1830000000003 269.59499999999997 562.6650000000004 269.48199999999997 561.6520000000004 269.407 C 559.7420000000004 268.005 563.9680000000004 267.055 562.0480000000003 265.65 C 561.5650000000004 265.299 560.6730000000003 265.049 559.5800000000004 264.856 C 558.4840000000004 264.687 557.1850000000004 264.585 555.8850000000003 264.49399999999997 C 553.4780000000003 264.311 551.0830000000003 264.22299999999996 549.9280000000003 263.85299999999995 C 550.9380000000003 263.48599999999993 552.0000000000003 263.12899999999996 553.1060000000003 262.78399999999993 C 555.4030000000004 262.78099999999995 558.0480000000003 262.85499999999996 560.2100000000004 262.99199999999996 C 558.1860000000004 261.99999999999994 564.4200000000004 263.304 564.5170000000004 262.46899999999994 C 564.6010000000003 261.75899999999996 564.6810000000004 261.04999999999995 564.1010000000003 260.3229999999999 C 564.4940000000004 260.26699999999994 564.8720000000003 260.2059999999999 565.2770000000004 260.15399999999994 C 566.6580000000004 260.06699999999995 568.1250000000003 260.0659999999999 569.6400000000004 260.12799999999993 C 570.4000000000004 260.1579999999999 571.1690000000004 260.2049999999999 571.9490000000004 260.26399999999995 C 572.7300000000004 260.32699999999994 573.5830000000004 260.44999999999993 574.4040000000005 260.55699999999996 C 577.7240000000005 261.01099999999997 581.0900000000005 261.63399999999996 584.2040000000004 262.22599999999994 C 584.5940000000004 262.29999999999995 584.9790000000004 262.37299999999993 585.3610000000004 262.44699999999995 C 585.7650000000004 262.5369999999999 586.1640000000004 262.6259999999999 586.5580000000004 262.7149999999999 C 587.3510000000005 262.8929999999999 588.1220000000004 263.0679999999999 588.8710000000004 263.23599999999993 C 590.3650000000005 263.56699999999995 591.7590000000005 263.86299999999994 593.0170000000004 264.09299999999996 C 595.5350000000004 264.556 597.5170000000004 264.75999999999993 598.7080000000004 264.48499999999996 C 600.152 264.001 600.246 263.239 599.668 262.337 z M 58.982 347.545 C 58.367 347.461 58.158 347.374 58.127 347.288 C 58.516000000000005 347.32300000000004 58.905 347.355 59.294000000000004 347.391 C 59.225 347.447 59.125 347.498 58.982 347.545 z" stroke-linecap="round" />
</g>
</svg>