<?xml version="1.0" encoding="UTF-8" standalone="no" ?>
<!DOCTYPE svg PUBLIC "-//W3C//DTD SVG 1.1//EN" "http://www.w3.org/Graphics/SVG/1.1/DTD/svg11.dtd">
<svg xmlns="http://www.w3.org/2000/svg" xmlns:xlink="http://www.w3.org/1999/xlink" version="1.1" width="210" height="210" viewBox="0 0 210 210" xml:space="preserve">
<desc>Created with Fabric.js 4.6.0</desc>
<defs>
</defs>
<g transform="matrix(0.35 0 0 0.35 105 104.87)" id="jz1clg62HBjlDDu7CrKRe"  >
<path style="stroke: none; stroke-width: 1; stroke-dasharray: none; stroke-linecap: butt; stroke-dashoffset: 0; stroke-linejoin: miter; stroke-miterlimit: 4; fill: rgb(255,255,255); fill-rule: nonzero; opacity: 1;" vector-effect="non-scaling-stroke"  transform=" translate(-300, -300)" d="M 22.797 268.155 L 17.897 281.375 L 20.974999999999998 265.115 L 22.797 268.155 z M 371.165 267.229 C 371.249 267.493 371.288 267.776 371.362 268.051 C 371.627 268.042 371.872 268.003 372.136 268.003 L 371.165 267.229 z M 568.596 117.945 C 559.768 101.195 556.831 98.579 561.579 111.80799999999999 C 564.516 114.565 568.028 119.748 568.596 117.945 z M 563.1 321.325 C 567.16 312.099 571.8720000000001 299.239 574.659 287.92699999999996 C 577.528 276.65399999999994 578.633 267.097 577.577 265.549 C 574.667 285.038 569.445 303.451 563.1 321.325 z M 523.234 387.141 C 520.119 390.869 517.303 395.107 515.4150000000001 401.067 C 519.456 394.618 521.902 390.17 523.234 387.141 z M 505.066 403.993 C 503.905 407.469 505.68899999999996 407.392 501.167 413.55 C 506.001 409.716 508.626 402.766 512.7529999999999 396.516 C 511.281 397.846 504.905 402.88 505.066 403.993 z M 546.858 94.301 C 544.375 90.675 541.608 87.181 539.9749999999999 84.745 C 542.3639999999999 89.938 545.1879999999999 95.63300000000001 550.9479999999999 104.933 C 553.978 105.67 550.721 100.166 546.858 94.301 z M 522.658 381.096 C 522.081 381.124 521.421 381.238 520.703 381.427 C 520.685 382.077 521.298 382.002 522.658 381.096 z M 523.234 387.141 C 529.475 379.65200000000004 536.99 374.363 541.25 362.50300000000004 C 545.612 358.047 540.324 372.34200000000004 548.049 360.03000000000003 C 551.581 347.32000000000005 537.709 362.427 523.7719999999999 380.34900000000005 C 523.2819999999999 380.72700000000003 523.026 380.84900000000005 522.6589999999999 381.095 C 524.564 381.011 525.396 382.201 523.234 387.141 z M 587.943 212.973 C 588.678 222.36900000000003 589.066 228.40300000000002 584.514 213.17200000000003 C 585.893 205.89200000000002 583.807 186.23300000000003 578.3770000000001 167.02700000000002 C 573.1270000000001 147.717 563.052 129.74900000000002 557.1880000000001 123.96000000000001 C 557.2530000000002 132.82600000000002 554.1960000000001 124.74400000000001 548.5770000000001 114.376 C 543.2050000000002 103.876 534.4700000000001 91.37400000000001 528.6730000000001 89.938 C 534.0070000000001 96.888 537.2090000000001 102.497 539.0310000000001 107.01 C 541.0120000000001 111.44800000000001 541.768 114.68700000000001 541.7600000000001 117.302 C 541.8640000000001 122.438 539.7390000000001 124.63000000000001 538.9470000000001 128.019 C 542.7220000000001 136.272 548.2650000000001 143.524 550.7210000000001 148.46200000000002 C 556.1890000000001 150.55800000000002 551.8160000000001 139.21800000000002 555.3950000000001 136.81000000000003 C 562.4960000000001 154.69400000000002 567.8690000000001 172.60600000000002 572.1570000000002 188.68700000000004 C 573.8560000000001 196.76900000000003 576.1490000000001 204.32300000000004 577.4440000000002 211.21600000000004 C 578.8320000000002 218.27900000000002 580.6730000000002 223.81200000000004 581.5990000000002 230.36500000000004 C 580.7100000000002 237.91800000000003 578.4440000000002 239.84500000000003 577.2920000000001 238.42900000000003 C 576.1020000000001 237.05900000000003 575.0810000000001 231.54500000000002 574.5160000000002 223.58500000000004 C 576.5930000000002 248.60800000000003 570.0690000000002 271.91200000000003 562.2310000000002 293.355 C 554.0740000000002 314.79 543.5540000000002 334.553 532.4680000000002 352.267 C 542.3080000000002 342.295 536.9530000000002 352.702 530.4660000000002 363.825 C 525.9440000000002 371.625 520.7610000000002 379.471 520.7030000000002 381.42699999999996 C 517.3140000000002 382.31399999999996 512.8940000000002 384.27899999999994 512.8290000000002 380.29299999999995 C 498.4850000000002 405.5319999999999 510.6000000000002 377.26199999999994 493.5280000000002 399.85699999999997 C 486.7480000000002 410.924 478.2870000000002 422.633 468.6930000000002 434.048 C 468.9210000000002 434.208 469.15600000000023 434.38 469.3750000000002 434.585 C 470.3750000000002 435.757 471.2340000000002 439.327 462.7360000000002 455.113 C 465.0780000000002 446.71 464.88900000000024 444.159 465.1910000000002 438.212 C 464.7660000000002 438.693 464.3130000000002 439.155 463.8870000000002 439.649 C 460.12000000000023 448.541 455.29500000000024 456.946 449.89400000000023 464.784 L 452.45400000000024 468.012 C 449.1300000000002 471.091 450.56600000000026 468.409 448.97000000000025 469.77 C 448.12000000000023 474.94599999999997 440.8970000000003 485.341 432.33300000000025 493.849 C 429.68000000000023 496.625 427.04500000000024 499.174 424.48500000000024 501.554 C 422.4640000000002 509.077 420.32100000000025 516.1039999999999 415.92200000000025 524.704 C 417.17700000000025 529.3679999999999 423.08800000000025 508.23699999999997 424.5990000000003 514.0169999999999 C 424.10900000000026 515.9229999999999 418.1590000000003 526.159 410.7180000000003 536.036 C 407.2810000000003 541.097 403.3330000000003 545.9879999999999 400.2670000000003 550.1039999999999 C 397.3680000000003 554.2969999999999 395.2040000000003 557.66 395.0360000000003 559.5289999999999 C 387.03700000000026 564.5899999999999 389.5300000000003 556.7909999999998 391.3150000000003 552.0699999999999 C 386.74400000000026 557.6229999999999 382.5510000000003 563.5899999999999 377.06600000000026 568.6679999999999 C 370.82600000000025 571.7209999999999 370.41900000000027 570.209 372.6370000000003 566.6489999999999 C 373.75100000000026 564.8539999999999 375.52700000000027 562.5409999999999 377.5750000000003 559.9809999999999 C 379.40700000000027 557.2789999999999 381.48400000000026 554.2419999999998 383.54400000000027 551.2189999999998 C 391.4470000000003 538.9239999999999 396.7810000000003 526.6519999999998 386.09300000000025 533.9939999999998 L 380.67300000000023 541.0769999999998 L 374.5920000000002 547.6669999999998 C 366.6130000000002 551.5589999999999 374.25200000000024 542.4379999999998 378.7380000000002 535.7709999999998 C 382.92200000000025 528.6999999999998 385.9050000000002 525.4309999999998 370.73000000000025 540.3239999999998 C 359.80600000000027 554.9219999999998 348.39000000000027 570.0859999999998 364.70600000000024 561.8499999999998 C 347.8800000000002 574.7119999999998 343.76400000000024 578.3759999999997 339.92000000000024 583.6829999999998 C 337.88100000000026 586.1379999999998 335.48200000000026 588.2129999999997 330.65700000000027 590.8959999999997 C 325.87900000000025 593.7199999999997 318.2400000000003 596.0719999999998 305.8610000000003 597.7239999999997 C 298.9690000000003 596.6949999999997 308.82600000000025 596.2019999999997 318.9400000000003 593.4259999999997 C 329.1360000000003 591.1789999999997 339.07100000000025 586.3429999999997 333.9230000000003 586.1189999999997 C 311.52700000000027 589.8169999999997 289.2420000000003 597.1449999999996 269.46000000000026 593.2459999999996 C 291.25400000000025 597.0039999999997 272.2360000000003 601.4139999999996 257.39300000000026 599.5629999999996 C 234.34300000000025 591.8089999999996 273.18100000000027 598.8089999999996 240.72800000000026 590.0059999999996 C 235.09000000000026 592.3129999999996 201.41000000000025 580.6959999999997 228.73600000000027 593.8199999999996 C 224.96000000000026 594.1809999999996 220.67200000000028 593.3119999999996 216.15900000000028 591.7259999999995 C 211.71100000000027 589.8749999999995 207.13300000000027 586.8719999999995 202.43800000000027 583.8779999999996 C 193.22300000000027 577.4079999999996 184.43200000000027 569.3249999999996 175.25400000000027 563.2839999999995 C 172.48700000000028 557.0899999999996 181.61800000000028 562.4889999999996 187.52000000000027 564.8029999999995 C 193.88300000000027 566.8149999999995 196.15100000000027 567.0729999999995 183.18500000000026 552.3109999999996 C 183.46900000000025 556.2959999999996 174.27100000000027 548.2129999999996 166.63200000000026 540.5269999999996 C 159.75000000000026 532.7469999999996 153.35600000000025 525.8839999999996 155.94400000000027 536.9969999999996 C 152.16800000000026 529.6689999999996 151.67700000000028 525.1569999999996 152.54500000000027 523.7019999999997 C 153.50800000000027 522.2099999999997 155.72900000000027 523.7949999999996 159.64700000000028 528.0459999999997 C 157.6260000000003 522.9069999999997 155.24800000000027 517.5449999999997 152.2150000000003 512.2389999999997 C 150.26000000000028 508.2539999999997 148.34400000000028 504.32399999999967 146.44600000000028 500.4549999999997 C 146.34200000000027 500.3619999999997 146.2270000000003 500.2649999999997 146.12500000000028 500.1719999999997 C 131.8760000000003 496.3469999999997 117.71200000000029 490.6639999999997 103.10500000000027 481.0029999999997 C 108.39300000000027 483.3469999999997 115.38000000000028 486.7829999999997 117.60900000000028 485.8569999999997 C 103 475.605 98.374 475.113 84.172 466.577 C 86.11699999999999 467.04 79.16799999999999 461.213 71.331 452.063 C 67.194 447.768 63.257000000000005 442.198 59.291000000000004 437.164 C 55.797000000000004 431.66999999999996 52.181000000000004 426.693 50.04600000000001 422.142 C 41.888000000000005 412.86899999999997 38.82000000000001 409.79 36.61000000000001 409.546 C 34.486000000000004 409.22499999999997 33.75800000000001 411.415 31.983000000000008 410.93399999999997 C 29.575000000000006 398.72499999999997 20.92600000000001 382.88 15.960000000000008 364.29799999999994 C 10.757000000000009 345.99799999999993 9.379000000000008 325.4429999999999 14.488000000000008 311.703 C 14.044000000000008 320.352 17.367000000000008 348.20799999999997 19.294000000000008 327.491 C 23.04200000000001 316.255 23.750000000000007 305.81 23.39100000000001 292.81899999999996 C 23.37200000000001 289.59 23.230000000000008 286.227 23.36300000000001 282.753 C 23.79800000000001 279.315 24.31700000000001 275.74699999999996 25.00600000000001 272.026 C 26.64900000000001 264.661 27.81100000000001 256.428 32.34300000000001 248.401 C 29.05700000000001 250.35500000000002 25.94100000000001 252.461 23.22100000000001 254.73700000000002 C 27.27100000000001 247.437 32.58800000000001 234.74800000000002 36.37400000000001 224.115 C 41.540000000000006 214.031 46.27900000000001 206.476 47.91300000000001 209.923 C 49.15000000000001 206.977 51.23700000000001 203.125 53.94700000000001 199.3 C 57.09200000000001 195.77800000000002 60.47100000000001 192.01100000000002 63.50300000000001 188.63000000000002 C 69.376 181.73700000000002 74.09700000000001 176.60100000000003 70.49100000000001 175.82600000000002 C 83.88100000000001 164.66400000000002 100.41400000000002 154.33500000000004 118.19300000000001 146.29900000000004 C 124.62200000000001 137.24400000000003 131.12300000000002 129.95900000000003 136.35600000000002 125.39800000000004 C 129.66400000000002 130.87300000000005 134.08 123.64300000000004 139.87300000000002 116.62200000000004 C 141.507 122.64600000000004 164.085 100.66400000000004 187.181 90.44800000000004 L 189.239 85.84100000000004 C 194.924 85.34900000000003 200.437 84.61300000000004 205.952 84.80200000000004 C 210.513 83.45200000000004 212.789 80.84500000000004 217.236 79.22100000000003 C 220.89999999999998 77.77600000000004 226.423 76.63400000000003 235.22299999999998 77.53500000000003 C 242.38 68.44700000000003 250.351 58.12200000000003 249.24399999999997 63.041000000000025 C 245.93099999999998 66.34200000000003 241.35099999999997 72.30900000000003 236.78099999999998 77.73400000000002 C 238.11299999999997 77.89900000000003 239.27299999999997 77.96100000000003 240.765 78.22900000000003 C 241.93499999999997 79.68400000000003 243.267 81.17000000000003 247.535 82.58700000000003 C 248.781 82.58200000000004 250.162 82.67700000000004 251.464 82.70500000000003 C 252.408 79.99900000000002 254.515 76.20800000000003 257.101 72.09700000000002 C 264.004 60.87900000000002 275.467 48.505000000000024 268.894 48.72700000000002 C 288.214 32.20300000000002 298.468 32.97300000000002 306.882 32.07100000000002 C 316.004 31.80200000000002 322.867 29.24800000000002 346.321 16.28300000000002 C 339.31500000000005 16.750000000000018 351.732 8.767000000000019 342.687 10.963000000000019 C 348.634 8.659000000000018 352.064 6.841000000000019 355.849 5.024000000000019 C 358.804 3.5560000000000187 361.996 2.111000000000019 367.019 1.2700000000000187 C 371.996 0.26000000000001866 378.766 -0.4339999999999813 388.66200000000003 0.3170000000000187 C 374.093 2.356000000000019 382.15600000000006 4.099000000000019 388.151 6.096000000000019 C 394.261 8.168000000000019 398.19800000000004 10.335000000000019 378.652 13.235000000000019 C 381.127 10.081000000000019 356.445 13.67900000000002 350.816 16.22800000000002 C 357.45399999999995 16.39400000000002 357.161 18.47600000000002 359.11699999999996 19.70200000000002 C 361.054 20.92000000000002 365.09499999999997 21.07600000000002 380.32399999999996 19.83000000000002 C 398.991 17.39000000000002 424.57199999999995 22.04900000000002 421.66299999999995 17.512000000000018 C 421.71999999999997 15.109000000000018 414.27899999999994 14.241000000000017 408.55699999999996 13.542000000000018 C 402.816 13.046000000000017 398.633 13.098000000000017 405.11099999999993 11.148000000000017 C 424.7989999999999 12.413000000000018 435.6669999999999 17.02100000000002 443.49499999999995 20.142000000000017 C 451.5129999999999 23.074000000000016 456.50699999999995 25.26500000000002 465.6929999999999 24.877000000000017 C 454.2029999999999 19.967000000000017 447.1479999999999 16.520000000000017 443.0419999999999 13.810000000000016 C 438.99099999999993 10.992000000000017 438.0379999999999 8.692000000000016 438.67099999999994 7.276000000000017 L 453.44699999999995 11.029000000000018 L 467.893 15.967000000000017 L 461.26599999999996 16.425000000000015 C 482.727 27.213000000000015 485.71 28.898000000000017 489.554 29.168000000000013 C 493.085 29.777000000000015 497.40999999999997 29.423000000000012 515.324 44.70000000000002 C 519.769 50.814000000000014 523.3499999999999 57.44300000000002 526.966 63.78800000000002 C 524.123 62.75800000000002 519.988 59.22700000000002 515.173 54.85500000000002 C 510.055 50.77200000000002 504.606 45.43700000000002 498.78 41.371000000000016 C 487.561 32.70300000000002 476.78 27.496000000000016 478.356 32.963000000000015 C 490.716 40.49800000000002 499.036 45.436000000000014 506.711 50.97400000000002 C 514.407 56.45500000000002 521.706 62.44200000000002 529.807 73.39100000000002 C 525.482 69.16100000000002 519.4110000000001 63.57100000000002 514.6610000000001 59.92200000000002 C 518.1 63.746000000000016 520.195 69.00500000000002 524.2550000000001 76.99800000000002 C 528.589 84.85900000000002 535.2950000000001 94.79200000000002 548.2210000000001 109.93800000000002 C 560.1000000000001 126.60400000000001 553.3960000000001 113.29900000000002 556.3030000000001 112.18600000000002 C 567.5590000000001 131.901 573.3270000000001 145.471 578.0200000000001 157.245 C 582.666 169.048 586.1240000000001 179.255 588.7180000000001 193.513 C 585.119 191.105 587.509 203.616 587.943 212.973 z M 91.055 411.302 C 82.057 384.58000000000004 75.74900000000001 356.433 73.946 328.91700000000003 C 71.538 296.86 75.24 266.021 83.889 241.71600000000004 C 83.17999999999999 242.15000000000003 82.689 242.07400000000004 82.72699999999999 240.67700000000005 C 82.01899999999999 242.30100000000004 81.225 243.97300000000004 80.338 245.68200000000004 C 79.687 247.54200000000006 78.997 249.47800000000004 78.28899999999999 251.49800000000005 C 76.81599999999999 255.48200000000006 75.07 259.63700000000006 73.08599999999998 263.97100000000006 C 70.75399999999999 268.09700000000004 70.07399999999998 273.4320000000001 68.25199999999998 278.3620000000001 C 66.83599999999998 283.4890000000001 64.58699999999997 288.4940000000001 63.567999999999984 294.1300000000001 C 62.60599999999998 299.7960000000001 61.61399999999998 305.5650000000001 60.621999999999986 311.3730000000001 L 59.252999999999986 320.1260000000001 L 58.95999999999999 328.4360000000001 C 58.893999999999984 336.4530000000001 59.761999999999986 344.3180000000001 61.76399999999999 351.5330000000001 C 63.15199999999999 371.09600000000006 71.73599999999999 388.2060000000001 83.45299999999999 402.95500000000004 C 85.814 405.844 88.43 408.573 91.055 411.302 z M 91.735 232.075 C 88.789 235.93699999999998 86.126 239.808 84.474 241.37599999999998 C 83.12400000000001 256.94599999999997 88.345 241.43299999999996 90.51700000000001 241.58399999999997 C 90.527 237.58 91.046 234.521 91.735 232.075 z M 269.97 200.188 C 263.90700000000004 216.713 259.46000000000004 234.79399999999998 256.85600000000005 253.55599999999998 C 264.67300000000006 233.93499999999997 275.1360000000001 215.617 287.91100000000006 201 C 286.69300000000004 200.415 285.49500000000006 199.791 284.27600000000007 199.225 C 279.65900000000005 198.91299999999998 275.09900000000005 198.762 270.58400000000006 198.733 C 270.395 199.226 270.159 199.688 269.97 200.188 z M 255.939 137.803 C 256.515 137.661 256.997 137.51 257.317 137.321 C 258.185 135.868 259.177 134.621 260.13100000000003 133.356 C 259.8 133.186 259.564 133.016 259.242 132.847 C 258.922 132.99800000000002 258.591 133.13 258.261 133.29000000000002 C 257.469 134.791 256.686 136.282 255.939 137.803 z M 253.965 141.646 C 254.042 141.65499999999997 254.116 141.665 254.191 141.684 C 254.29500000000002 141.57 254.363 141.43699999999998 254.465 141.325 L 254.362 141.72099999999998 C 254.54999999999998 141.75999999999996 254.75799999999998 141.80599999999998 254.956 141.85399999999998 C 255.42999999999998 140.88099999999997 255.92999999999998 139.946 256.421 139.04999999999998 C 256.032 139.02999999999997 255.69199999999998 139.021 255.316 139.011 C 254.891 139.89 254.372 140.758 253.965 141.646 z M 251.208 257.277 C 251.481 260.299 251.907 263.245 252.256 266.229 C 252.502 265.455 252.71 264.662 252.965 263.887 C 253.852 261.319 254.862 258.788 255.844 256.248 C 255.665 246.626 252.936 243.199 251.208 257.277 z M 198.313 274.915 C 198.43599999999998 279.297 198.48299999999998 283.68800000000005 198.84099999999998 288.02200000000005 C 201.09799999999998 315.273 208.47199999999998 342.12700000000007 221.04799999999997 361.93800000000005 C 224.85499999999996 367.7830000000001 228.94399999999996 372.69300000000004 233.277 376.89400000000006 C 229.898 370.17100000000005 227.07299999999998 363.19300000000004 224.75099999999998 356.1020000000001 C 217.00799999999998 330.3430000000001 214.50599999999997 303.6020000000001 215.10999999999999 277.82400000000007 C 216.612 282.0160000000001 219.52999999999997 285.7940000000001 221.683 279.9390000000001 C 216.442 274.8780000000001 217.319 242.81200000000007 223.589 215.71200000000007 C 224.941 213.82300000000006 226.045 211.00900000000007 227.111 207.81800000000007 C 225.647 208.55400000000006 224.231 209.33800000000008 222.84199999999998 210.17800000000008 C 214.44799999999998 230.13900000000007 205.70299999999997 251.29000000000008 198.963 273.8670000000001 C 198.775 274.17 198.51 274.594 198.313 274.915 z M 138.635 378.858 C 137.08599999999998 374.193 135.765 369.245 134.652 364.127 C 134.378 365.732 134.14999999999998 367.206 133.98 368.604 C 135.34 374.32599999999996 136.803 379.954 138.381 385.43199999999996 C 138.391 383.768 138.493 381.492 138.635 378.858 z M 172.94 182.682 C 166.527 183.683 160.09799999999998 184.78699999999998 153.781 186.36499999999998 C 151.523 190.81199999999998 149.333 195.694 147.191 201.06699999999998 C 146.859 197.60099999999997 144.366 197.771 139.967 207.21299999999997 C 137.53 216.23999999999995 131.42200000000003 232.27399999999997 129.23200000000003 244.61399999999998 C 126.73900000000003 256.90799999999996 126.82300000000002 264.77299999999997 132.65900000000002 256.53999999999996 C 124.99100000000001 281.77 124.55600000000003 313.43999999999994 128.93900000000002 343.467 C 129.65500000000003 348.113 130.657 352.61699999999996 131.573 357.15799999999996 C 131.40300000000002 354.609 131.27100000000002 352.116 131.252 349.756 L 132.036 349.26399999999995 C 131.676 346.56499999999994 131.327 343.864 131.082 341.21899999999994 C 131.903 345.1669999999999 132.715 347.09299999999996 133.55599999999998 348.3209999999999 L 134.291 347.8669999999999 C 134.291 346.3569999999999 134.433 344.4489999999999 134.62199999999999 342.4099999999999 C 128.01399999999998 311.8539999999999 129.684 277.4269999999999 141.969 243.50099999999992 C 141.60299999999998 248.0999999999999 141.501 254.6779999999999 140.329 258.4179999999999 C 146.613 243.1399999999999 154.162 227.81499999999988 163.733 213.6919999999999 C 165.293 204.5979999999999 167.293 195.5429999999999 169.625 186.9889999999999 C 169.276 191.31399999999988 168.039 197.7149999999999 170.031 197.2049999999999 C 170.541 192.106 171.627 187.328 172.94 182.682 z M 200.229 462.083 C 195.299 457.937 191.73100000000002 454.60400000000004 188.83200000000002 451.65900000000005 C 186.26500000000001 449.26800000000003 184.121 447.25800000000004 182.13800000000003 445.16200000000003 C 182.44000000000003 451.08200000000005 182.86600000000004 456.663 183.35600000000002 461.88500000000005 C 184.52800000000002 463.141 185.76500000000001 464.29200000000003 186.97400000000002 465.50100000000003 C 190.16400000000002 466.333 193.45000000000002 466.975 196.698 467.67300000000006 C 193.98000000000002 464.37800000000004 192.29000000000002 461.6310000000001 192.261 459.91100000000006 C 189.389 454 210.398 474.132 200.229 462.083 z M 258.262 547.462 C 257.026 546.234 256.297 544.97 255.514 543.824 C 253.40800000000002 540.548 251.047 539.245 237.31 538.8309999999999 C 235.365 538.4169999999999 233.57 538.0659999999999 231.739 537.6969999999999 C 235.507 539.6819999999999 239.15 541.8349999999999 243.419 543.0209999999998 C 247.725 544.902 252.975 546.197 258.262 547.462 z M 269.706 454.907 C 268.581 453.019 266.882 449.138 264.805 441.762 L 267.288 444.653 C 266.07 442.764 264.777 439.1 263.568 434.399 C 258.28 433.906 253.00199999999998 433.152 247.81699999999998 431.809 C 230.84999999999997 427.588 215.47599999999997 418.09900000000005 203.259 406.023 C 193.845 393.353 189.69 384.543 189.539 380.67 C 188.16899999999998 378.73400000000004 186.386 375.93 184.505 372.815 C 184.49699999999999 373.617 184.468 374.288 184.458 375.109 C 184.458 375.13599999999997 184.449 375.156 184.449 375.17499999999995 C 187.66000000000003 384.59799999999996 191.40800000000002 393.75699999999995 196.3 402.11299999999994 C 209.717 425.16299999999995 229.727 443.78299999999996 251.39600000000002 450.95099999999996 C 257.278 453.047 263.426 454.303 269.706 454.907 z M 275.06 455.229 C 270.3 446.844 270.763 450.959 271.077 454.199 C 271.104 454.492 271.123 454.736 271.133 455.00100000000003 C 272.443 455.096 273.747 455.19 275.06 455.229 z M 365.877 414.134 C 359.994 418.13800000000003 353.8 421.802 347.039 424.73 C 335.51099999999997 429.583 322.611 432.15200000000004 309.57099999999997 431.35900000000004 C 308.34299999999996 431.302 307.13399999999996 431.038 305.907 430.90500000000003 C 303.72499999999997 431.46400000000006 301.573 432.093 299.364 432.55600000000004 C 290.846 434.20000000000005 282.094 435.07800000000003 273.34099999999995 435.023 C 275.46599999999995 437.478 277.73999999999995 439.952 280.42299999999994 442.908 C 283.33199999999994 445.994 286.63599999999997 449.91200000000003 290.98799999999994 454.266 C 301.22299999999996 452.764 311.5539999999999 449.713 321.62999999999994 445.06800000000004 C 337.72 437.74 352.733 427.015 365.877 414.134 z M 303.83 338.747 C 303.793 337.802 303.94399999999996 336.857 303.954 335.914 C 297.824 348.265 293.481 362.116 290.744 376.554 C 291.168 376.95 291.649 377.35699999999997 292.028 377.743 C 294.283 379.27299999999997 296.46500000000003 380.859 298.56100000000004 382.105 C 300.66700000000003 382.785 302.68800000000005 384.409 304.499 384.475 C 311.855 386.6 316.228 384.71000000000004 321.69300000000004 380.89700000000005 C 325.33900000000006 378.53600000000006 329.07800000000003 374.6940000000001 332.37300000000005 369.802 C 334.535 365.94 336.37700000000007 361.531 337.85100000000006 356.82800000000003 C 336.16200000000003 358.02700000000004 334.47100000000006 359.225 332.70400000000006 360.31100000000004 L 333.31800000000004 362.35200000000003 L 330.97600000000006 361.293 C 324.49800000000005 365.146 317.63400000000007 368.32800000000003 310.54200000000003 370.754 C 308.92900000000003 365.65500000000003 307.05 360.613 305.74600000000004 355.457 C 305.51900000000006 353.47499999999997 305.15000000000003 351.512 304.783 349.54699999999997 L 301.62 348.131 C 302.556 347.83799999999997 303.404 347.375 304.329 347.054 C 303.858 344.299 303.547 341.542 303.83 338.747 z M 337.663 324.658 C 336.294 324.18600000000004 333.894 324.62 331.534 328.30400000000003 C 330.656 329.28400000000005 330.109 330.87100000000004 329.693 332.684 C 332.611 330.21 335.255 327.538 337.663 324.658 z M 343.337 296.803 C 345.765 297.105 348.087 297.823 350.353 298.711 C 350.759 296.63300000000004 350.892 294.51800000000003 351.062 292.384 C 347.03000000000003 293.47900000000004 343.122 294.90500000000003 339.382 296.793 C 340.703 296.803 342.017 296.624 343.337 296.803 z M 392.986 294.367 C 381.532 276.784 368.048 260.29900000000004 352.798 245.83300000000003 C 340.107 233.76600000000002 326.283 223.27400000000003 311.751 214.16400000000002 C 310.289 215.882 308.83299999999997 217.62800000000001 307.445 219.51800000000003 C 300.355 229.14000000000004 294.263 240.33900000000003 289.316 252.33100000000002 C 288.85299999999995 256.901 288.419 261.707 288.835 265.437 C 289.71299999999997 261.075 291.762 255.82500000000002 292.829 252.04700000000003 C 291.516 264.53000000000003 288.609 277.45700000000005 284.61400000000003 297.427 C 285.41700000000003 284.34000000000003 281.413 298.389 279.845 299.844 C 283.19800000000004 304.453 280.30800000000005 324.924 276.485 351.06 C 276.37100000000004 351.352 276.332 351.702 276.23900000000003 352.004 C 277.59000000000003 357.53700000000003 279.38300000000004 362.588 281.80100000000004 366.365 C 282.79200000000003 368.377 284.01000000000005 369.774 285.15200000000004 371.134 C 285.06800000000004 369.88800000000003 284.982 368.66 284.92600000000004 367.26300000000003 C 284.95400000000006 359.708 285.37000000000006 349.58700000000005 288.87200000000007 337.45300000000003 C 292.4030000000001 325.48900000000003 298.27700000000004 310.617 310.9390000000001 297.20000000000005 C 323.4320000000001 279.75100000000003 346.2820000000001 268.17400000000004 371.3610000000001 268.052 C 375.7990000000001 283.69800000000004 375.2600000000001 301.29900000000004 369.3120000000001 317.247 C 371.05900000000014 321.75100000000003 369.0000000000001 322.072 367.9710000000001 323.469 C 366.6400000000001 325.056 366.6500000000001 327.746 367.75400000000013 339.39 C 374.14600000000013 330.476 379.91500000000013 320.95799999999997 384.44800000000015 310.703 C 388.001 304.716 390.757 299.353 392.986 294.367 z M 309.95 160.077 C 306.55899999999997 157.481 302.961 155.026 299.203 152.694 C 298.768 153.1 298.33399999999995 153.411 297.90099999999995 153.84599999999998 C 297.078 154.61999999999998 296.30299999999994 155.67699999999996 295.49199999999996 156.527 C 300.535 157.886 305.151 159.057 309.95 160.077 z M 483.963 86.879 C 453.70000000000005 60.879000000000005 413.42 45.86600000000001 370.49300000000005 51.659000000000006 C 375.03600000000006 49.501000000000005 379.7370000000001 46.816 384.68500000000006 45.144000000000005 C 376.80000000000007 47.212 374.30800000000005 47.316 371.5690000000001 46.306000000000004 C 368.87000000000006 45.352000000000004 366.0930000000001 44.42700000000001 358.3230000000001 46.395 C 367.7740000000001 46.754000000000005 362.40100000000007 48.803000000000004 354.1210000000001 52.316 C 345.7550000000001 55.762 334.5560000000001 61.366 330.5440000000001 65.394 C 317.9090000000001 69.878 305.1140000000001 77.94300000000001 293.6600000000001 88.013 C 313.72600000000006 90.732 331.8740000000001 99.494 345.13200000000006 106.97200000000001 C 343.64900000000006 106.48100000000001 343.26300000000003 106.91600000000001 343.14900000000006 107.161 C 343.95200000000006 107.5 344.71600000000007 107.821 345.5280000000001 108.153 C 345.9630000000001 108.38900000000001 346.3980000000001 108.634 346.8330000000001 108.88000000000001 C 356.8780000000001 86.19900000000001 334.7560000000001 122.49600000000001 353.13900000000007 92.65800000000002 C 352.99700000000007 96.85000000000002 351.6860000000001 102.01400000000001 347.13500000000005 109.05000000000001 C 348.9560000000001 110.05100000000002 350.78800000000007 111.07100000000001 352.62000000000006 112.09100000000001 C 357.55800000000005 114.319 361.90200000000004 117.29400000000001 366.7730000000001 119.049 L 367.0010000000001 117.435 C 384.3280000000001 126.575 389.3900000000001 135.961 402.21100000000007 147.914 L 402.6650000000001 149.784 C 406.1310000000001 153.67499999999998 409.4170000000001 157.357 412.51400000000007 160.832 C 414.8930000000001 164.816 417.1410000000001 168.55599999999998 419.2180000000001 172.04 C 423.7120000000001 178.867 425.6580000000001 185.542 427.69700000000006 190.69799999999998 C 432.08700000000005 200.92399999999998 432.85200000000003 206.70199999999997 435.71400000000006 205.456 C 434.90100000000007 213.24599999999998 432.98500000000007 203.19 428.99000000000007 195.088 C 425.1190000000001 187.214 421.56800000000004 180.906 422.14400000000006 190.65 C 422.18100000000004 190.707 422.21900000000005 190.744 422.24800000000005 190.80100000000002 C 423.17400000000004 192.935 423.48500000000007 194.257 423.57800000000003 195.334 C 427.338 204.53 430.09400000000005 214.143 431.889 224.02 C 434.90000000000003 223.5 441.699 237.334 446.06100000000004 249.816 C 450.81100000000004 262.733 453.862 273.762 454.87100000000004 261.515 C 457.29900000000004 272.78 458.94200000000006 286.65999999999997 459.06300000000005 300.861 C 460.25300000000004 303.364 461.36800000000005 305.90299999999996 462.47200000000004 308.32099999999997 C 464.285 313.29699999999997 465.81500000000005 317.87699999999995 466.562 321.12499999999994 L 461.312 317.08399999999995 C 461.386 317.95199999999994 461.546 319.10499999999996 461.67900000000003 320.143 C 463.40700000000004 323.863 465.18300000000005 327.565 467.08000000000004 331.058 C 464.45500000000004 329.73699999999997 465.843 337.159 468.10100000000006 346.686 C 470.0640000000001 356.346 472.20700000000005 368.43199999999996 472.55600000000004 375.89099999999996 C 472.71600000000007 384.65399999999994 473.82300000000004 389.508 474.85100000000006 392.90799999999996 C 479.93100000000004 385.23999999999995 485.994 376.81699999999995 492.09400000000005 367.828 C 503.11300000000006 351.758 513.8290000000001 334.19399999999996 519.1170000000001 320.18199999999996 C 532.214 298.52099999999996 541.9590000000001 272.21399999999994 545.4420000000001 249.32599999999996 C 546.3950000000001 243.60399999999996 546.7740000000001 238.18399999999997 546.9530000000001 233.15999999999997 C 546.916 230.67699999999996 546.868 228.24999999999997 546.83 225.89899999999997 C 546.623 223.28399999999996 546.414 220.73399999999998 546.226 218.27899999999997 C 545.812 208.40199999999996 544.734 200.06499999999997 545.31 193.39899999999997 C 535.349 150.332 514.348 113.148 483.963 86.879 z M 538.615 81.785 C 538.322 82.13499999999999 539.002 83.29599999999999 539.975 84.74499999999999 C 539.513 83.754 539.06 82.758 538.615 81.785 z M 141.969 243.501 C 142.573 241.829 143.055 240.168 143.706 238.505 C 142.639 237.816 142.234 240.129 141.969 243.501 z M 150.833 217.534 C 152.447 212.737 151.409 203.81199999999998 153.062 199.685 C 153.119 200.336 147.26700000000002 202.445 147.173 203.323 C 145.51 206.959 152.221 213.681 150.833 217.534 z M 432.067 220.017 L 437.524 219.29999999999998 L 435.599 215.04999999999998 L 432.067 220.017 z M 310.846 371.7 C 310.752 371.38 310.639 371.077 310.543 370.756 C 310.223 370.86999999999995 309.901 371.02099999999996 309.581 371.125 L 310.846 371.7 z" stroke-linecap="round" />
</g>
</svg>