<?xml version="1.0" encoding="UTF-8" standalone="no" ?>
<!DOCTYPE svg PUBLIC "-//W3C//DTD SVG 1.1//EN" "http://www.w3.org/Graphics/SVG/1.1/DTD/svg11.dtd">
<svg xmlns="http://www.w3.org/2000/svg" xmlns:xlink="http://www.w3.org/1999/xlink" version="1.1" width="210" height="210" viewBox="0 0 210 210" xml:space="preserve">
<desc>Created with Fabric.js 4.6.0</desc>
<defs>
</defs>
<g transform="matrix(0 0.35 -0.35 0 105 104.89)" id="WHFB24jrBz3OLQTBVPLQ3"  >
<path style="stroke: none; stroke-width: 1; stroke-dasharray: none; stroke-linecap: butt; stroke-dashoffset: 0; stroke-linejoin: miter; stroke-miterlimit: 4; fill: rgb(255,255,255); fill-rule: nonzero; opacity: 1;" vector-effect="non-scaling-stroke"  transform=" translate(-300, -301.94)" d="M 570.659 317.537 L 571.152 317.537 L 570.854 317.426 C 570.754 317.461 570.6690000000001 317.49 570.59 317.518 C 568.942 317.03599999999994 567.226 316.594 565.995 316.097 C 565.863 315.955 565.746 315.839 565.627 315.719 C 567.168 315.564 568.674 315.383 570.156 315.189 C 570.4839999999999 315.18300000000005 570.8159999999999 315.18 571.144 315.173 C 571.54 315.079 571.92 314.984 572.308 314.889 C 582.322 313.44 591.128 311.293 599.998 310.118 C 598.9540000000001 308.225 597.964 306.161 594.479 304.525 C 594.235 303.698 593.846 302.84799999999996 593.173 301.967 C 592.774 301.44599999999997 592.277 300.916 591.654 300.375 C 591.033 299.832 590.279 299.268 589.427 298.805 C 587.707 297.836 585.4060000000001 296.83 582.384 295.921 C 580.546 295.416 578.671 295.031 576.767 294.719 C 574.238 293.746 571.4390000000001 292.778 568.452 291.912 C 567.422 292.027 566.267 292.101 565.043 292.14799999999997 C 563.155 291.79099999999994 561.246 291.484 559.322 291.234 C 558.28 290.815 557.094 290.57 555.748 290.57 C 549.58 290.573 543.413 290.605 537.2460000000001 290.65 C 522.0160000000001 288.36499999999995 507.9100000000001 287.74899999999997 493.8470000000001 287.25399999999996 C 487.7950000000001 286.96299999999997 481.6640000000001 286.97999999999996 475.6090000000001 287.20799999999997 C 469.5490000000001 287.40299999999996 463.5660000000001 287.835 457.7980000000001 288.30999999999995 C 456.0800000000001 287.2049999999999 453.18900000000014 285.63599999999997 448.8200000000001 285.43299999999994 C 436.8880000000001 284.55999999999995 420.7200000000001 283.03099999999995 411.9420000000001 286.36699999999996 C 408.0550000000001 285.097 403.6870000000001 284.91999999999996 401.3600000000001 285.412 C 398.3440000000001 286.031 395.1880000000001 286.37899999999996 391.9470000000001 286.55699999999996 C 384.3060000000001 286.006 376.3350000000001 285.27799999999996 368.9470000000001 285.87899999999996 C 369.0000000000001 285.895 369.0670000000001 285.90999999999997 369.1420000000001 285.92699999999996 C 364.4490000000001 285.611 359.77800000000013 285.29499999999996 355.2460000000001 285.188 C 346.3800000000001 285.545 336.7690000000001 284.493 330.0780000000001 285.116 C 325.5120000000001 285.727 321.4620000000001 285.772 317.5750000000001 285.788 C 316.2740000000001 285.495 314.7690000000001 285.26800000000003 313.2010000000001 285.288 C 314.0640000000001 285.327 314.82200000000006 285.40000000000003 315.5230000000001 285.493 L 315.44900000000007 285.8 C 314.39000000000004 285.806 313.33700000000005 285.821 312.2870000000001 285.848 C 307.4820000000001 285.228 301.6930000000001 284.886 300.1480000000001 283.87 C 298.0830000000001 285.189 302.04100000000005 285.121 305.5270000000001 285.165 C 301.6750000000001 285.231 297.0690000000001 285.459 292.8800000000001 285.35400000000004 C 294.5600000000001 285.146 295.7600000000001 284.60600000000005 297.6230000000001 285.29300000000006 C 298.5990000000001 284.8550000000001 298.2380000000001 284.5180000000001 297.0160000000001 284.1700000000001 C 293.1650000000001 284.4390000000001 285.98300000000006 283.56000000000006 285.5450000000001 284.58200000000005 C 284.7900000000001 284.40000000000003 284.1040000000001 284.1820000000001 283.5030000000001 283.91600000000005 L 282.3210000000001 284.44700000000006 L 281.4580000000001 283.66600000000005 L 280.6110000000001 283.85400000000004 L 282.1030000000001 284.545 L 281.5500000000001 284.793 L 280.72500000000014 284.562 C 280.94100000000014 284.704 281.18600000000015 284.834 281.44500000000016 284.961 C 280.2470000000002 284.988 279.02900000000017 284.991 277.8140000000002 284.988 C 276.9030000000002 284.903 275.6310000000002 284.822 274.4600000000002 284.674 C 274.9670000000002 284.774 275.4530000000002 284.87699999999995 275.8830000000002 284.984 C 272.7410000000002 284.983 269.7370000000002 285.042 267.3730000000002 285.58799999999997 C 267.73500000000024 285.671 268.07400000000024 285.753 268.3800000000002 285.82899999999995 C 268.0120000000002 285.751 267.6720000000002 285.67099999999994 267.3730000000002 285.58799999999997 C 266.9450000000002 285.864 266.6330000000002 286.09799999999996 266.39600000000024 286.30199999999996 C 265.03800000000024 285.804 267.19400000000024 285.765 267.70600000000024 285.263 C 264.2120000000002 285.24399999999997 261.59100000000024 285.22799999999995 260.5120000000002 286.11699999999996 L 266.24400000000026 286.44599999999997 C 265.91800000000023 286.76 265.79700000000025 286.998 265.78100000000023 287.193 C 265.1090000000002 287.388 264.4810000000002 287.56899999999996 263.9140000000002 287.71799999999996 C 262.1190000000002 287.59499999999997 260.2480000000002 287.51699999999994 258.35300000000024 287.46299999999997 C 258.0990000000002 287.45799999999997 257.8440000000002 287.45599999999996 257.59000000000026 287.45199999999994 C 254.79200000000026 286.92999999999995 252.40900000000025 286.28499999999997 250.16600000000025 285.61499999999995 C 250.27600000000027 285.537 250.39400000000026 285.46599999999995 250.50500000000025 285.39699999999993 C 252.86000000000024 285.6309999999999 256.25800000000027 285.7079999999999 257.53100000000023 285.7749999999999 L 253.41700000000023 284.64899999999994 L 251.98200000000023 285.20399999999995 C 251.39500000000024 285.15099999999995 251.10500000000022 285.02799999999996 250.96100000000024 284.88999999999993 C 250.95400000000024 284.81499999999994 250.91600000000025 284.7319999999999 250.83100000000024 284.6379999999999 C 250.82300000000023 284.5559999999999 250.83900000000025 284.4799999999999 250.85300000000024 284.4189999999999 L 250.60500000000025 284.4389999999999 C 250.50100000000023 284.36099999999993 250.37600000000023 284.27699999999993 250.21400000000025 284.18299999999994 L 250.03900000000024 284.48499999999996 L 248.17800000000025 284.63399999999996 C 248.10200000000026 284.698 248.08300000000025 284.75699999999995 248.09600000000026 284.81299999999993 C 246.34900000000025 284.0009999999999 244.66400000000027 283.1049999999999 240.90500000000026 282.84099999999995 C 240.87700000000027 282.86799999999994 240.82500000000024 282.89899999999994 240.78800000000027 282.92799999999994 C 238.89500000000027 282.49499999999995 236.86000000000027 282.12999999999994 234.52600000000027 281.88999999999993 C 234.02800000000028 281.7579999999999 232.41800000000026 282.1449999999999 230.86000000000027 282.64399999999995 C 230.72700000000026 282.64399999999995 230.60100000000028 282.643 230.46000000000026 282.64399999999995 C 229.23100000000025 283.0079999999999 228.55600000000027 283.32899999999995 228.28100000000026 283.61899999999997 C 227.80700000000027 283.84099999999995 227.49100000000027 284.03499999999997 227.46500000000026 284.15799999999996 C 228.47000000000025 285.07699999999994 231.18800000000027 285.73299999999995 234.08200000000025 286.328 L 233.38500000000025 286.32899999999995 L 233.80400000000026 286.43699999999995 C 233.94400000000024 286.40199999999993 234.06400000000025 286.37299999999993 234.17400000000026 286.34599999999995 C 234.39600000000027 286.39199999999994 234.61800000000025 286.4359999999999 234.84100000000026 286.48099999999994 C 234.48500000000027 286.4699999999999 234.13200000000026 286.4599999999999 233.77400000000026 286.44899999999996 C 230.69700000000026 286.381 227.50500000000025 286.27599999999995 224.14200000000025 285.81999999999994 C 218.45000000000024 284.63899999999995 209.37200000000024 285.36299999999994 201.48300000000026 285.34899999999993 C 200.60800000000026 285.57899999999995 199.73200000000026 285.8109999999999 198.85300000000026 286.0419999999999 C 198.26000000000028 285.82699999999994 197.92400000000026 285.57699999999994 198.26000000000028 285.2289999999999 L 199.55100000000027 285.3159999999999 C 199.88500000000028 284.97599999999994 198.79600000000028 284.7029999999999 197.88700000000028 284.4409999999999 C 198.2640000000003 285.0229999999999 196.57500000000027 285.6319999999999 198.5140000000003 286.1309999999999 C 198.45800000000028 286.1459999999999 198.40400000000028 286.15899999999993 198.3490000000003 286.1749999999999 C 195.3330000000003 286.4389999999999 190.5690000000003 285.5759999999999 189.5270000000003 285.8509999999999 C 178.3900000000003 287.20999999999987 167.7100000000003 286.36899999999986 158.6660000000003 287.1699999999999 C 144.90000000000032 287.9779999999999 131.35300000000032 287.7989999999999 118.7190000000003 288.7979999999999 L 117.98400000000031 288.1299999999999 C 116.58900000000031 288.49599999999987 115.21700000000031 288.7449999999999 114.87400000000031 289.1459999999999 C 114.14900000000031 289.2189999999999 113.42600000000031 289.2959999999999 112.70800000000031 289.3799999999999 C 110.5640000000003 289.0789999999999 108.77600000000031 289.2259999999999 107.4180000000003 290.0999999999999 C 105.8020000000003 289.7819999999999 106.8470000000003 289.5179999999999 105.9200000000003 289.2229999999999 C 103.48700000000031 289.5009999999999 100.8480000000003 289.6049999999999 98.1490000000003 289.5819999999999 C 97.3360000000003 289.3189999999999 96.1490000000003 289.1289999999999 93.6460000000003 289.1629999999999 L 93.5870000000003 289.4229999999999 C 85.35600000000031 288.9259999999999 77.25500000000031 287.36399999999986 73.1220000000003 285.5819999999999 C 68.6540000000003 287.71499999999986 63.1730000000003 285.6969999999999 58.065000000000296 286.3169999999999 C 55.050000000000296 286.4519999999999 51.73700000000029 286.7839999999999 48.587000000000295 286.94799999999987 C 45.43600000000029 287.12899999999985 42.4580000000003 287.0049999999999 40.1160000000003 286.4419999999999 C 35.852000000000295 285.5879999999999 31.947000000000298 285.2859999999999 28.299000000000298 285.3369999999999 C 26.476000000000298 285.35699999999986 24.7130000000003 285.48899999999986 23.008000000000298 285.6439999999999 C 22.014000000000298 285.7239999999999 21.042000000000296 285.8309999999999 20.081000000000298 285.9509999999999 C 19.8720000000003 285.9389999999999 19.6600000000003 285.9239999999999 19.452000000000297 285.91399999999993 C 19.181000000000296 285.98799999999994 18.923000000000297 286.0659999999999 18.658000000000296 286.1429999999999 C 18.454000000000296 286.1719999999999 18.244000000000295 286.1959999999999 18.040000000000298 286.2269999999999 C 14.184000000000298 286.8109999999999 10.560000000000297 287.6269999999999 7.025000000000297 288.3449999999999 C 6.972000000000297 288.2299999999999 6.939000000000297 288.1569999999999 6.939000000000297 288.1569999999999 C 6.894000000000297 288.2419999999999 6.8800000000002965 288.3069999999999 6.854000000000297 288.3809999999999 C 4.5420000000002965 288.84899999999993 2.269000000000297 289.2729999999999 -0.002999999999703462 289.5539999999999 C 0.3590000000002965 290.89199999999994 0.6980000000002965 292.3119999999999 1.5950000000002966 293.6559999999999 C 1.5320000000002967 293.6699999999999 1.4690000000002965 293.68099999999987 1.4070000000002967 293.6949999999999 C 1.4070000000002967 293.6949999999999 4.657000000000297 305.0649999999999 26.999000000000294 307.9999999999999 C 28.167000000000293 308.60399999999987 29.543000000000294 308.97699999999986 31.141000000000293 309.0119999999999 C 40.18900000000029 309.2089999999999 49.23700000000029 309.3049999999999 58.285000000000295 309.3339999999999 C 62.885000000000296 311.2969999999999 70.7850000000003 310.2279999999999 75.69800000000029 311.32999999999987 C 79.17700000000029 312.0819999999999 82.8360000000003 311.72199999999987 86.86100000000029 312.78499999999985 C 90.25300000000028 314.08799999999985 95.7400000000003 313.57799999999986 100.49400000000028 313.85099999999983 C 101.13400000000028 313.60799999999983 101.77000000000028 313.36699999999985 102.41200000000029 313.12199999999984 C 104.23900000000029 312.94799999999987 107.07800000000029 313.9569999999998 107.7170000000003 313.7119999999998 C 114.4870000000003 312.69399999999985 120.9010000000003 313.8979999999998 126.3890000000003 313.3679999999998 C 134.7290000000003 312.9379999999998 142.9200000000003 313.50899999999984 150.5800000000003 312.70099999999985 L 151.0150000000003 313.38599999999985 C 151.8680000000003 313.04899999999986 152.6910000000003 312.80599999999987 152.9070000000003 312.40599999999984 C 153.3530000000003 312.34099999999984 153.8000000000003 312.27099999999984 154.2420000000003 312.1929999999998 C 155.5240000000003 312.5059999999998 156.6040000000003 312.3729999999998 157.4340000000003 311.5199999999998 C 157.4460000000003 311.5199999999998 157.4550000000003 311.5199999999998 157.46600000000032 311.5199999999998 C 158.40000000000032 311.8449999999998 157.7860000000003 312.10099999999983 158.33800000000033 312.39899999999983 C 159.81900000000033 312.15299999999985 161.42500000000032 312.07099999999986 163.06600000000034 312.1059999999998 C 163.55500000000035 312.36999999999983 164.26800000000034 312.5659999999998 165.76600000000033 312.5509999999998 L 165.80500000000032 312.2729999999998 C 167.00800000000032 312.3919999999998 168.2070000000003 312.5619999999998 169.3690000000003 312.7849999999998 C 173.01900000000032 313.4429999999998 176.3140000000003 314.5829999999998 178.2430000000003 315.8929999999998 C 178.6230000000003 315.5869999999998 179.0170000000003 315.3669999999998 179.4220000000003 315.2009999999998 C 179.81100000000032 315.4059999999998 183.3000000000003 315.3629999999998 186.34600000000032 315.5319999999998 C 184.32900000000032 315.3279999999998 182.51400000000032 315.0969999999998 182.02000000000032 314.7729999999998 C 183.78300000000033 314.7889999999998 185.63200000000032 315.1739999999998 187.3930000000003 314.7459999999998 C 191.05600000000032 314.2669999999998 195.40700000000032 312.8489999999998 198.3090000000003 313.7149999999998 C 200.9450000000003 314.28599999999983 203.3430000000003 314.3329999999998 205.55500000000032 314.0429999999998 C 207.29500000000033 313.83199999999977 208.92900000000031 313.3019999999998 210.47200000000032 312.6849999999998 C 210.60800000000032 312.6699999999998 210.74500000000032 312.65899999999976 210.8810000000003 312.6429999999998 C 211.0390000000003 312.5379999999998 211.19100000000032 312.4299999999998 211.3440000000003 312.3229999999998 C 211.4630000000003 312.2719999999998 211.5860000000003 312.2249999999998 211.70400000000032 312.1739999999998 C 211.8570000000003 312.1059999999998 212.00400000000033 312.03099999999984 212.15600000000032 311.9619999999998 C 219.9880000000003 311.84099999999984 227.8910000000003 311.6159999999998 234.0060000000003 311.9649999999998 C 242.7540000000003 312.4479999999998 251.8510000000003 311.8519999999998 261.9730000000003 312.68499999999983 C 270.5320000000003 313.8159999999998 284.1630000000003 313.01399999999984 296.0160000000003 313.2649999999998 C 297.5900000000003 313.0129999999998 299.1650000000003 312.7599999999998 300.7470000000003 312.5059999999998 C 305.2880000000003 312.3139999999998 312.4040000000003 313.4189999999998 313.9760000000003 313.1769999999998 C 316.0720000000003 313.0679999999998 318.1590000000003 312.99299999999977 320.22900000000027 312.9459999999998 C 322.29700000000025 312.9239999999998 324.35000000000025 312.9489999999998 326.38400000000024 312.9819999999998 C 328.60800000000023 313.0189999999998 330.80200000000025 313.0839999999998 332.9760000000002 313.1559999999998 C 334.6570000000002 313.6699999999998 336.4940000000002 314.16599999999977 338.44700000000023 314.63499999999976 C 339.68400000000025 314.14699999999976 341.21100000000024 313.77999999999975 342.8680000000002 313.49399999999974 C 349.0580000000002 313.6849999999997 354.98000000000025 313.8509999999998 360.5030000000002 313.72899999999976 C 366.0590000000002 313.71699999999976 371.5760000000002 313.78299999999973 377.0610000000002 313.86599999999976 C 379.7840000000002 313.93899999999974 382.4810000000002 313.97499999999974 385.16800000000023 313.99399999999974 C 390.36000000000024 314.09199999999976 395.50600000000026 314.19599999999974 400.57600000000025 314.13999999999976 C 406.14000000000027 314.11899999999974 411.62100000000027 314.05199999999974 417.00700000000023 313.89999999999975 C 418.03000000000026 314.4349999999998 419.28500000000025 314.86099999999976 420.80200000000025 314.96299999999974 C 429.0700000000003 315.7759999999997 440.24000000000024 317.33499999999975 446.4260000000003 314.0839999999997 C 449.09200000000027 315.3849999999997 452.11900000000026 315.5819999999997 453.75100000000026 315.1249999999997 C 455.86700000000025 314.53499999999974 458.07400000000024 314.22499999999974 460.3340000000003 314.08799999999974 C 465.6250000000003 314.73399999999975 471.1350000000003 315.58699999999976 476.2690000000003 315.14499999999975 C 476.2390000000003 315.12999999999977 476.2000000000003 315.11599999999976 476.15700000000027 315.09999999999974 C 478.23400000000026 315.3679999999997 480.3010000000003 315.6269999999997 482.3440000000003 315.84399999999977 C 485.3340000000003 316.3239999999998 487.9210000000003 316.85199999999975 489.9090000000003 317.40999999999974 C 491.22900000000027 316.99299999999977 492.6150000000003 316.73099999999977 494.0460000000003 316.56999999999977 C 497.40500000000026 316.8599999999998 500.5810000000003 317.1579999999998 503.1590000000003 316.93299999999977 C 506.34500000000025 316.4419999999998 509.19600000000025 316.55799999999977 511.9380000000003 316.70099999999974 C 512.3590000000003 316.8629999999997 512.8130000000003 317.00299999999976 513.2900000000003 317.11899999999974 C 513.3070000000004 317.1269999999997 513.3260000000002 317.13299999999975 513.3420000000003 317.13999999999976 L 513.3440000000003 317.12999999999977 C 513.8680000000003 317.25499999999977 514.4120000000003 317.35199999999975 514.9790000000003 317.3739999999998 C 514.3750000000002 317.3009999999998 513.8450000000003 317.1969999999998 513.3570000000003 317.0759999999998 L 513.4250000000003 316.7719999999998 C 514.1590000000003 316.8089999999998 514.8900000000003 316.8349999999998 515.6180000000003 316.84799999999984 C 518.9700000000003 317.6469999999998 523.0550000000003 318.10799999999983 524.1100000000002 319.1899999999998 C 525.6130000000003 317.93199999999985 522.8230000000002 317.8829999999998 520.3720000000002 317.7389999999998 C 522.9400000000002 317.7829999999998 525.9910000000002 317.69699999999983 528.8080000000002 317.8819999999998 C 528.9700000000003 317.89199999999977 529.1280000000003 317.90399999999977 529.2880000000002 317.9149999999998 C 528.0950000000003 318.0809999999998 527.2310000000002 318.5799999999998 525.9390000000002 317.8409999999998 C 525.2370000000002 318.2489999999998 525.4780000000002 318.59899999999976 526.3280000000002 318.9819999999998 C 529.0540000000002 318.8529999999998 534.0850000000002 319.8279999999998 534.4170000000003 318.8239999999998 C 534.9430000000002 319.0199999999998 535.4210000000003 319.2539999999998 535.8380000000003 319.5329999999998 L 537.2330000000003 318.6929999999998 L 537.8080000000003 318.94199999999984 C 537.6620000000004 318.79799999999983 537.4940000000004 318.6639999999998 537.3170000000003 318.53499999999985 C 540.8120000000004 318.51799999999986 544.5680000000003 318.97299999999984 547.2170000000003 318.1229999999999 C 547.5200000000003 317.8509999999999 547.7410000000003 317.6199999999999 547.9090000000003 317.4179999999999 C 548.8600000000004 317.9299999999999 547.3450000000004 317.94799999999987 546.9790000000004 318.4439999999999 C 549.4370000000004 318.4979999999999 551.2830000000004 318.5369999999999 552.0450000000004 317.6619999999999 L 548.0170000000004 317.27699999999993 C 548.2490000000004 316.96399999999994 548.3370000000004 316.7289999999999 548.3500000000004 316.5329999999999 C 548.5360000000004 316.4599999999999 548.7080000000003 316.3919999999999 548.8830000000004 316.3229999999999 C 550.6770000000004 316.37799999999993 552.4240000000004 316.38999999999993 554.1320000000004 316.3709999999999 C 555.0450000000004 316.6309999999999 555.9000000000004 316.91599999999994 556.7080000000004 317.2169999999999 C 557.6260000000004 317.5489999999999 558.4880000000004 317.8949999999999 559.3270000000005 318.2459999999999 C 559.2490000000005 318.3239999999999 559.1670000000005 318.3959999999999 559.0880000000004 318.4649999999999 C 557.4260000000004 318.2329999999999 555.0310000000004 318.14899999999994 554.1390000000005 318.04099999999994 L 557.0350000000004 319.2199999999999 L 558.0470000000004 318.6629999999999 C 558.4620000000003 318.7139999999999 558.6670000000004 318.8359999999999 558.7700000000003 318.9749999999999 C 558.7760000000003 319.05099999999993 558.8020000000004 319.1329999999999 558.8630000000003 319.2269999999999 C 558.8690000000003 319.3089999999999 558.8580000000003 319.38499999999993 558.8480000000003 319.4459999999999 L 559.0230000000003 319.4249999999999 C 559.0970000000002 319.5029999999999 559.1850000000003 319.5869999999999 559.2990000000002 319.68099999999987 L 559.4210000000002 319.3779999999999 L 560.7360000000002 319.2239999999999 C 560.7900000000002 319.1609999999999 560.8010000000003 319.1029999999999 560.7930000000002 319.04699999999985 C 562.0310000000003 319.85499999999985 563.2320000000002 320.75399999999985 565.9010000000002 321.02099999999984 C 565.9210000000002 320.99199999999985 565.9580000000002 320.96099999999984 565.9830000000002 320.93199999999985 C 567.3300000000002 321.3659999999999 568.7780000000001 321.73299999999983 570.4380000000002 321.97599999999983 C 570.7920000000003 322.1259999999998 571.9330000000002 321.71799999999985 573.0340000000002 321.1929999999998 C 573.1290000000002 321.1909999999998 573.2190000000002 321.1889999999998 573.3190000000002 321.18499999999983 C 574.1880000000002 320.79999999999984 574.6620000000001 320.46799999999985 574.8480000000002 320.17299999999983 C 575.1780000000002 319.94399999999985 575.3970000000002 319.74499999999983 575.4110000000002 319.62399999999985 C 574.7370000000002 318.80499999999984 573.0710000000001 318.22599999999983 571.2310000000002 317.7139999999998 C 571.043 317.65 570.852 317.594 570.659 317.537 z M 179.703 315.09 C 180.245 314.904 180.805 314.816 181.376 314.78499999999997 L 179.703 315.09 z M 249.505 285.41 C 249.305 285.336 249.113 285.25800000000004 248.92499999999998 285.178 C 249.11399999999998 285.217 249.337 285.254 249.57699999999997 285.287 L 249.505 285.41 z" stroke-linecap="round" />
</g>
</svg>